<svg xmlns="http://www.w3.org/2000/svg" xmlns:xlink="http://www.w3.org/1999/xlink" width="500" zoomAndPan="magnify" viewBox="0 0 375 374.999991" height="500" preserveAspectRatio="xMidYMid meet" version="1.0"><defs><clipPath id="id1"><path d="M 115.875 112.5 L 259.125 112.5 L 259.125 262.5 L 115.875 262.5 Z M 115.875 112.5 " clip-rule="nonzero"/></clipPath></defs><path fill="rgb(65.098572%, 65.098572%, 65.098572%)" d="M 187.5 0 C 190.570312 0 193.636719 0.0742188 196.699219 0.226562 C 199.765625 0.375 202.824219 0.601562 205.878906 0.902344 C 208.933594 1.203125 211.976562 1.578125 215.011719 2.03125 C 218.046875 2.480469 221.070312 3.003906 224.078125 3.601562 C 227.089844 4.203125 230.082031 4.875 233.058594 5.617188 C 236.035156 6.363281 238.992188 7.183594 241.929688 8.074219 C 244.863281 8.964844 247.777344 9.925781 250.667969 10.960938 C 253.554688 11.996094 256.417969 13.097656 259.253906 14.273438 C 262.089844 15.445312 264.890625 16.691406 267.667969 18.003906 C 270.441406 19.3125 273.179688 20.691406 275.886719 22.140625 C 278.59375 23.585938 281.261719 25.097656 283.894531 26.675781 C 286.527344 28.253906 289.117188 29.894531 291.667969 31.597656 C 294.222656 33.304688 296.730469 35.070312 299.195312 36.898438 C 301.660156 38.726562 304.078125 40.613281 306.449219 42.558594 C 308.820312 44.507812 311.144531 46.511719 313.417969 48.570312 C 315.691406 50.632812 317.914062 52.746094 320.082031 54.917969 C 322.253906 57.085938 324.367188 59.308594 326.429688 61.582031 C 328.488281 63.855469 330.492188 66.179688 332.4375 68.550781 C 334.386719 70.921875 336.273438 73.339844 338.101562 75.804688 C 339.929688 78.269531 341.695312 80.777344 343.402344 83.332031 C 345.105469 85.882812 346.746094 88.472656 348.324219 91.105469 C 349.902344 93.738281 351.414062 96.40625 352.859375 99.113281 C 354.308594 101.820312 355.6875 104.558594 356.996094 107.332031 C 358.308594 110.105469 359.554688 112.910156 360.726562 115.746094 C 361.902344 118.582031 363.003906 121.445312 364.039062 124.332031 C 365.074219 127.222656 366.035156 130.136719 366.925781 133.070312 C 367.816406 136.007812 368.636719 138.964844 369.378906 141.941406 C 370.125 144.917969 370.796875 147.910156 371.398438 150.921875 C 371.996094 153.929688 372.519531 156.953125 372.96875 159.988281 C 373.421875 163.023438 373.796875 166.066406 374.097656 169.121094 C 374.398438 172.175781 374.625 175.234375 374.773438 178.300781 C 374.925781 181.363281 375 184.429688 375 187.5 C 375 190.570312 374.925781 193.636719 374.773438 196.699219 C 374.625 199.765625 374.398438 202.824219 374.097656 205.878906 C 373.796875 208.933594 373.421875 211.976562 372.96875 215.011719 C 372.519531 218.046875 371.996094 221.070312 371.398438 224.078125 C 370.796875 227.089844 370.125 230.082031 369.378906 233.058594 C 368.636719 236.035156 367.816406 238.992188 366.925781 241.929688 C 366.035156 244.863281 365.074219 247.777344 364.039062 250.667969 C 363.003906 253.554688 361.902344 256.417969 360.726562 259.253906 C 359.554688 262.089844 358.308594 264.890625 356.996094 267.667969 C 355.6875 270.441406 354.308594 273.179688 352.859375 275.886719 C 351.414062 278.59375 349.902344 281.261719 348.324219 283.894531 C 346.746094 286.527344 345.105469 289.117188 343.402344 291.667969 C 341.695312 294.222656 339.929688 296.730469 338.101562 299.195312 C 336.273438 301.660156 334.386719 304.078125 332.4375 306.449219 C 330.492188 308.820312 328.488281 311.144531 326.429688 313.417969 C 324.367188 315.691406 322.253906 317.914062 320.082031 320.082031 C 317.914062 322.253906 315.691406 324.367188 313.417969 326.429688 C 311.144531 328.488281 308.820312 330.492188 306.449219 332.4375 C 304.078125 334.386719 301.660156 336.273438 299.195312 338.101562 C 296.730469 339.929688 294.222656 341.695312 291.667969 343.402344 C 289.117188 345.105469 286.527344 346.746094 283.894531 348.324219 C 281.261719 349.902344 278.59375 351.414062 275.886719 352.859375 C 273.179688 354.308594 270.441406 355.6875 267.667969 356.996094 C 264.890625 358.308594 262.089844 359.554688 259.253906 360.726562 C 256.417969 361.902344 253.554688 363.003906 250.667969 364.039062 C 247.777344 365.074219 244.863281 366.035156 241.929688 366.925781 C 238.992188 367.816406 236.035156 368.636719 233.058594 369.378906 C 230.082031 370.125 227.089844 370.796875 224.078125 371.398438 C 221.070312 371.996094 218.046875 372.519531 215.011719 372.96875 C 211.976562 373.421875 208.933594 373.796875 205.878906 374.097656 C 202.824219 374.398438 199.765625 374.625 196.699219 374.773438 C 193.636719 374.925781 190.570312 375 187.5 375 C 184.429688 375 181.363281 374.925781 178.300781 374.773438 C 175.234375 374.625 172.175781 374.398438 169.121094 374.097656 C 166.066406 373.796875 163.023438 373.421875 159.988281 372.96875 C 156.953125 372.519531 153.929688 371.996094 150.921875 371.398438 C 147.910156 370.796875 144.917969 370.125 141.941406 369.378906 C 138.964844 368.636719 136.007812 367.816406 133.070312 366.925781 C 130.136719 366.035156 127.222656 365.074219 124.332031 364.039062 C 121.445312 363.003906 118.582031 361.902344 115.746094 360.726562 C 112.910156 359.554688 110.105469 358.308594 107.332031 356.996094 C 104.558594 355.6875 101.820312 354.308594 99.113281 352.859375 C 96.40625 351.414062 93.738281 349.902344 91.105469 348.324219 C 88.472656 346.746094 85.882812 345.105469 83.332031 343.402344 C 80.777344 341.695312 78.269531 339.929688 75.804688 338.101562 C 73.339844 336.273438 70.921875 334.386719 68.550781 332.4375 C 66.179688 330.492188 63.855469 328.488281 61.582031 326.429688 C 59.308594 324.367188 57.085938 322.253906 54.917969 320.082031 C 52.746094 317.914062 50.632812 315.691406 48.570312 313.417969 C 46.511719 311.144531 44.507812 308.820312 42.558594 306.449219 C 40.613281 304.078125 38.726562 301.660156 36.898438 299.195312 C 35.070312 296.730469 33.304688 294.222656 31.597656 291.667969 C 29.894531 289.117188 28.253906 286.527344 26.675781 283.894531 C 25.097656 281.261719 23.585938 278.59375 22.140625 275.886719 C 20.691406 273.179688 19.3125 270.441406 18.003906 267.667969 C 16.691406 264.890625 15.445312 262.089844 14.273438 259.253906 C 13.097656 256.417969 11.996094 253.554688 10.960938 250.667969 C 9.925781 247.777344 8.964844 244.863281 8.074219 241.929688 C 7.183594 238.992188 6.363281 236.035156 5.621094 233.058594 C 4.875 230.082031 4.203125 227.089844 3.601562 224.078125 C 3.003906 221.070312 2.480469 218.046875 2.03125 215.011719 C 1.578125 211.976562 1.203125 208.933594 0.902344 205.878906 C 0.601562 202.824219 0.375 199.765625 0.226562 196.699219 C 0.0742188 193.636719 0 190.570312 0 187.5 C 0 184.429688 0.0742188 181.363281 0.226562 178.300781 C 0.375 175.234375 0.601562 172.175781 0.902344 169.121094 C 1.203125 166.066406 1.578125 163.023438 2.03125 159.988281 C 2.480469 156.953125 3.003906 153.929688 3.601562 150.921875 C 4.203125 147.910156 4.875 144.917969 5.621094 141.941406 C 6.363281 138.964844 7.183594 136.007812 8.074219 133.070312 C 8.964844 130.136719 9.925781 127.222656 10.960938 124.332031 C 11.996094 121.445312 13.097656 118.582031 14.273438 115.746094 C 15.445312 112.910156 16.691406 110.105469 18.003906 107.332031 C 19.3125 104.558594 20.691406 101.820312 22.140625 99.113281 C 23.585938 96.40625 25.097656 93.738281 26.675781 91.105469 C 28.253906 88.472656 29.894531 85.882812 31.597656 83.332031 C 33.304688 80.777344 35.070312 78.269531 36.898438 75.804688 C 38.726562 73.339844 40.613281 70.921875 42.558594 68.550781 C 44.507812 66.179688 46.511719 63.855469 48.570312 61.582031 C 50.632812 59.308594 52.746094 57.085938 54.917969 54.917969 C 57.085938 52.746094 59.308594 50.632812 61.582031 48.570312 C 63.855469 46.511719 66.179688 44.507812 68.550781 42.558594 C 70.921875 40.613281 73.339844 38.726562 75.804688 36.898438 C 78.269531 35.070312 80.777344 33.304688 83.332031 31.597656 C 85.882812 29.894531 88.472656 28.253906 91.105469 26.675781 C 93.738281 25.097656 96.40625 23.585938 99.113281 22.140625 C 101.820312 20.691406 104.558594 19.3125 107.332031 18.003906 C 110.105469 16.691406 112.910156 15.445312 115.746094 14.273438 C 118.582031 13.097656 121.445312 11.996094 124.332031 10.960938 C 127.222656 9.925781 130.136719 8.964844 133.070312 8.074219 C 136.007812 7.183594 138.964844 6.363281 141.941406 5.617188 C 144.917969 4.875 147.910156 4.203125 150.921875 3.601562 C 153.929688 3.003906 156.953125 2.480469 159.988281 2.03125 C 163.023438 1.578125 166.066406 1.203125 169.121094 0.902344 C 172.175781 0.601562 175.234375 0.375 178.300781 0.226562 C 181.363281 0.0742188 184.429688 0 187.5 0 L 187.5 41.25 C 185.105469 41.25 182.714844 41.308594 180.324219 41.425781 C 177.933594 41.542969 175.546875 41.71875 173.164062 41.953125 C 170.78125 42.1875 168.410156 42.480469 166.039062 42.832031 C 163.671875 43.183594 161.316406 43.59375 158.96875 44.058594 C 156.621094 44.527344 154.285156 45.050781 151.964844 45.632812 C 149.640625 46.214844 147.335938 46.851562 145.046875 47.546875 C 142.753906 48.242188 140.484375 48.992188 138.230469 49.800781 C 135.976562 50.605469 133.742188 51.464844 131.53125 52.382812 C 129.320312 53.296875 127.132812 54.269531 124.96875 55.292969 C 122.804688 56.316406 120.667969 57.390625 118.558594 58.519531 C 116.449219 59.648438 114.367188 60.828125 112.3125 62.058594 C 110.257812 63.289062 108.238281 64.566406 106.246094 65.898438 C 104.257812 67.226562 102.300781 68.605469 100.378906 70.03125 C 98.457031 71.457031 96.570312 72.929688 94.71875 74.445312 C 92.871094 75.964844 91.058594 77.527344 89.285156 79.136719 C 87.511719 80.742188 85.777344 82.394531 84.085938 84.085938 C 82.394531 85.777344 80.742188 87.511719 79.136719 89.285156 C 77.527344 91.058594 75.964844 92.871094 74.445312 94.71875 C 72.929688 96.570312 71.457031 98.457031 70.03125 100.378906 C 68.605469 102.300781 67.226562 104.257812 65.898438 106.246094 C 64.566406 108.238281 63.289062 110.257812 62.058594 112.3125 C 60.828125 114.367188 59.648438 116.449219 58.519531 118.558594 C 57.390625 120.667969 56.316406 122.804688 55.292969 124.96875 C 54.269531 127.132812 53.296875 129.320312 52.382812 131.53125 C 51.464844 133.742188 50.605469 135.976562 49.800781 138.230469 C 48.992188 140.484375 48.242188 142.753906 47.546875 145.046875 C 46.851562 147.335938 46.214844 149.640625 45.632812 151.964844 C 45.050781 154.285156 44.527344 156.621094 44.058594 158.96875 C 43.59375 161.316406 43.183594 163.671875 42.832031 166.039062 C 42.480469 168.410156 42.1875 170.78125 41.953125 173.164062 C 41.71875 175.546875 41.542969 177.933594 41.425781 180.324219 C 41.308594 182.714844 41.25 185.105469 41.25 187.5 C 41.25 189.894531 41.308594 192.285156 41.425781 194.675781 C 41.542969 197.066406 41.71875 199.453125 41.953125 201.835938 C 42.1875 204.21875 42.480469 206.589844 42.832031 208.960938 C 43.183594 211.328125 43.59375 213.683594 44.058594 216.03125 C 44.527344 218.378906 45.050781 220.714844 45.632812 223.035156 C 46.214844 225.359375 46.851562 227.664062 47.546875 229.953125 C 48.242188 232.246094 48.992188 234.515625 49.800781 236.769531 C 50.605469 239.023438 51.464844 241.257812 52.382812 243.46875 C 53.296875 245.679688 54.269531 247.867188 55.292969 250.03125 C 56.316406 252.195312 57.390625 254.332031 58.519531 256.441406 C 59.648438 258.550781 60.828125 260.632812 62.058594 262.6875 C 63.289062 264.742188 64.566406 266.761719 65.898438 268.753906 C 67.226562 270.742188 68.605469 272.699219 70.03125 274.621094 C 71.457031 276.542969 72.929688 278.429688 74.445312 280.28125 C 75.964844 282.128906 77.527344 283.941406 79.136719 285.714844 C 80.742188 287.488281 82.394531 289.222656 84.085938 290.914062 C 85.777344 292.605469 87.511719 294.257812 89.285156 295.863281 C 91.058594 297.472656 92.871094 299.035156 94.71875 300.554688 C 96.570312 302.070312 98.457031 303.542969 100.378906 304.96875 C 102.300781 306.394531 104.257812 307.773438 106.246094 309.101562 C 108.238281 310.433594 110.257812 311.710938 112.3125 312.941406 C 114.367188 314.171875 116.449219 315.351562 118.558594 316.480469 C 120.667969 317.609375 122.804688 318.683594 124.96875 319.707031 C 127.132812 320.730469 129.320312 321.703125 131.53125 322.617188 C 133.742188 323.535156 135.976562 324.394531 138.230469 325.199219 C 140.484375 326.007812 142.753906 326.757812 145.046875 327.453125 C 147.335938 328.148438 149.640625 328.785156 151.964844 329.367188 C 154.285156 329.949219 156.621094 330.472656 158.96875 330.941406 C 161.316406 331.40625 163.671875 331.816406 166.039062 332.167969 C 168.410156 332.519531 170.78125 332.8125 173.164062 333.046875 C 175.546875 333.28125 177.933594 333.457031 180.324219 333.574219 C 182.714844 333.691406 185.105469 333.75 187.5 333.75 C 189.894531 333.75 192.285156 333.691406 194.675781 333.574219 C 197.066406 333.457031 199.453125 333.28125 201.835938 333.046875 C 204.21875 332.8125 206.589844 332.519531 208.960938 332.167969 C 211.328125 331.816406 213.683594 331.40625 216.03125 330.941406 C 218.378906 330.472656 220.714844 329.949219 223.035156 329.367188 C 225.359375 328.785156 227.664062 328.148438 229.953125 327.453125 C 232.246094 326.757812 234.515625 326.007812 236.769531 325.199219 C 239.023438 324.394531 241.257812 323.535156 243.46875 322.617188 C 245.679688 321.703125 247.867188 320.730469 250.03125 319.707031 C 252.195312 318.683594 254.332031 317.609375 256.441406 316.480469 C 258.550781 315.351562 260.632812 314.171875 262.6875 312.941406 C 264.742188 311.710938 266.761719 310.433594 268.753906 309.101562 C 270.742188 307.773438 272.699219 306.394531 274.621094 304.96875 C 276.542969 303.542969 278.429688 302.070312 280.28125 300.550781 C 282.128906 299.035156 283.941406 297.472656 285.714844 295.863281 C 287.488281 294.257812 289.222656 292.605469 290.914062 290.914062 C 292.605469 289.222656 294.257812 287.488281 295.863281 285.714844 C 297.472656 283.941406 299.035156 282.128906 300.554688 280.28125 C 302.070312 278.429688 303.542969 276.542969 304.96875 274.621094 C 306.394531 272.699219 307.773438 270.742188 309.101562 268.753906 C 310.433594 266.761719 311.710938 264.742188 312.941406 262.6875 C 314.171875 260.632812 315.351562 258.550781 316.480469 256.441406 C 317.609375 254.332031 318.683594 252.195312 319.707031 250.03125 C 320.730469 247.867188 321.703125 245.679688 322.617188 243.46875 C 323.535156 241.257812 324.394531 239.023438 325.199219 236.769531 C 326.007812 234.515625 326.757812 232.246094 327.453125 229.953125 C 328.148438 227.664062 328.785156 225.359375 329.367188 223.035156 C 329.949219 220.714844 330.472656 218.378906 330.941406 216.03125 C 331.40625 213.683594 331.816406 211.328125 332.167969 208.960938 C 332.519531 206.589844 332.8125 204.21875 333.046875 201.835938 C 333.28125 199.453125 333.457031 197.066406 333.574219 194.675781 C 333.691406 192.285156 333.75 189.894531 333.75 187.5 C 333.75 185.105469 333.691406 182.714844 333.574219 180.324219 C 333.457031 177.933594 333.28125 175.546875 333.046875 173.164062 C 332.8125 170.78125 332.519531 168.410156 332.167969 166.039062 C 331.816406 163.671875 331.40625 161.316406 330.941406 158.96875 C 330.472656 156.621094 329.949219 154.285156 329.367188 151.964844 C 328.785156 149.640625 328.148438 147.335938 327.453125 145.046875 C 326.757812 142.753906 326.007812 140.484375 325.199219 138.230469 C 324.394531 135.976562 323.535156 133.742188 322.617188 131.53125 C 321.703125 129.320312 320.730469 127.132812 319.707031 124.96875 C 318.683594 122.804688 317.609375 120.667969 316.480469 118.558594 C 315.351562 116.449219 314.171875 114.367188 312.941406 112.3125 C 311.710938 110.257812 310.433594 108.238281 309.101562 106.246094 C 307.773438 104.257812 306.394531 102.300781 304.96875 100.378906 C 303.542969 98.457031 302.070312 96.570312 300.554688 94.71875 C 299.035156 92.871094 297.472656 91.058594 295.863281 89.285156 C 294.257812 87.511719 292.605469 85.777344 290.914062 84.085938 C 289.222656 82.394531 287.488281 80.742188 285.714844 79.136719 C 283.941406 77.527344 282.128906 75.964844 280.28125 74.445312 C 278.429688 72.929688 276.542969 71.457031 274.621094 70.03125 C 272.699219 68.605469 270.742188 67.226562 268.753906 65.898438 C 266.761719 64.566406 264.742188 63.289062 262.6875 62.058594 C 260.632812 60.828125 258.550781 59.648438 256.441406 58.519531 C 254.332031 57.390625 252.195312 56.316406 250.03125 55.292969 C 247.867188 54.269531 245.679688 53.296875 243.46875 52.382812 C 241.257812 51.464844 239.023438 50.605469 236.769531 49.800781 C 234.515625 48.992188 232.246094 48.242188 229.953125 47.546875 C 227.664062 46.851562 225.359375 46.214844 223.035156 45.632812 C 220.714844 45.050781 218.378906 44.527344 216.03125 44.058594 C 213.683594 43.59375 211.328125 43.183594 208.960938 42.832031 C 206.589844 42.480469 204.21875 42.1875 201.835938 41.953125 C 199.453125 41.71875 197.066406 41.542969 194.675781 41.425781 C 192.285156 41.308594 189.894531 41.25 187.5 41.25 Z M 187.5 0 " fill-opacity="1" fill-rule="nonzero"/><path fill="rgb(36.079407%, 88.238525%, 90.19928%)" d="M 210.675781 1.4375 C 213.660156 1.808594 216.636719 2.253906 219.605469 2.769531 C 222.570312 3.285156 225.523438 3.871094 228.460938 4.527344 C 231.398438 5.1875 234.320312 5.914062 237.222656 6.710938 C 240.125 7.511719 243.007812 8.378906 245.867188 9.316406 C 248.730469 10.253906 251.566406 11.257812 254.378906 12.332031 C 257.191406 13.40625 259.976562 14.546875 262.734375 15.753906 C 265.492188 16.964844 268.21875 18.238281 270.914062 19.578125 C 273.609375 20.914062 276.273438 22.320312 278.902344 23.785156 C 281.53125 25.253906 284.121094 26.785156 286.675781 28.375 C 289.230469 29.96875 291.746094 31.621094 294.222656 33.335938 C 296.699219 35.050781 299.128906 36.820312 301.519531 38.652344 C 303.910156 40.484375 306.253906 42.371094 308.554688 44.3125 C 310.851562 46.257812 313.105469 48.253906 315.308594 50.308594 C 317.507812 52.359375 319.660156 54.464844 321.761719 56.621094 C 323.863281 58.777344 325.914062 60.980469 327.910156 63.234375 C 329.902344 65.488281 331.84375 67.789062 333.726562 70.140625 C 335.613281 72.488281 337.4375 74.878906 339.207031 77.316406 C 340.976562 79.75 342.6875 82.226562 344.335938 84.746094 C 345.988281 87.265625 347.574219 89.820312 349.101562 92.414062 C 350.628906 95.011719 352.09375 97.640625 353.492188 100.304688 C 354.890625 102.972656 356.226562 105.667969 357.496094 108.398438 C 358.765625 111.128906 359.972656 113.886719 361.109375 116.671875 C 362.246094 119.460938 363.316406 122.273438 364.316406 125.113281 C 365.320312 127.953125 366.25 130.8125 367.113281 133.699219 C 367.980469 136.582031 368.773438 139.484375 369.496094 142.40625 C 370.222656 145.328125 370.875 148.265625 371.457031 151.222656 C 372.039062 154.175781 372.550781 157.140625 372.988281 160.121094 C 373.429688 163.097656 373.796875 166.085938 374.09375 169.082031 C 374.390625 172.078125 374.613281 175.078125 374.761719 178.085938 C 374.914062 181.09375 374.992188 184.101562 375 187.109375 C 375.007812 190.121094 374.941406 193.132812 374.800781 196.136719 C 374.664062 199.144531 374.453125 202.148438 374.167969 205.144531 C 373.882812 208.140625 373.53125 211.132812 373.101562 214.113281 C 372.675781 217.089844 372.175781 220.058594 371.605469 223.015625 C 371.035156 225.972656 370.394531 228.914062 369.683594 231.835938 C 368.96875 234.761719 368.1875 237.667969 367.335938 240.558594 C 366.484375 243.445312 365.5625 246.308594 364.574219 249.152344 C 363.585938 251.996094 362.527344 254.8125 361.402344 257.605469 C 360.273438 260.398438 359.082031 263.160156 357.824219 265.898438 C 356.566406 268.632812 355.242188 271.335938 353.851562 274.003906 C 352.464844 276.675781 351.011719 279.3125 349.496094 281.914062 C 347.980469 284.515625 346.402344 287.078125 344.761719 289.601562 C 343.121094 292.128906 341.421875 294.613281 339.664062 297.054688 C 337.90625 299.5 336.089844 301.898438 334.214844 304.253906 C 332.339844 306.609375 330.410156 308.917969 328.421875 311.179688 C 326.4375 313.445312 324.398438 315.65625 322.304688 317.824219 C 320.210938 319.988281 318.070312 322.101562 315.875 324.160156 C 313.679688 326.222656 311.4375 328.230469 309.148438 330.183594 C 306.855469 332.136719 304.519531 334.03125 302.136719 335.875 C 299.753906 337.714844 297.328125 339.496094 294.859375 341.21875 C 292.390625 342.945312 289.882812 344.609375 287.335938 346.210938 C 284.789062 347.8125 282.203125 349.355469 279.578125 350.832031 C 276.957031 352.3125 274.300781 353.726562 271.609375 355.078125 C 268.917969 356.425781 266.195312 357.710938 263.445312 358.929688 C 260.691406 360.152344 257.910156 361.304688 255.105469 362.386719 C 252.296875 363.472656 249.460938 364.492188 246.605469 365.441406 C 243.75 366.390625 240.871094 367.269531 237.972656 368.078125 C 235.070312 368.890625 232.152344 369.628906 229.21875 370.300781 C 226.285156 370.96875 223.335938 371.570312 220.371094 372.097656 C 217.40625 372.625 214.429688 373.082031 211.445312 373.464844 C 208.460938 373.847656 205.464844 374.160156 202.464844 374.402344 C 199.464844 374.640625 196.457031 374.808594 193.449219 374.90625 C 190.441406 375 187.429688 375.023438 184.421875 374.976562 C 181.410156 374.925781 178.402344 374.804688 175.398438 374.609375 C 174.726562 374.566406 174.054688 374.488281 173.386719 374.378906 C 172.722656 374.269531 172.0625 374.128906 171.410156 373.953125 C 170.757812 373.78125 170.113281 373.574219 169.480469 373.335938 C 168.847656 373.097656 168.230469 372.832031 167.625 372.53125 C 167.019531 372.234375 166.429688 371.90625 165.855469 371.550781 C 165.28125 371.195312 164.726562 370.8125 164.1875 370.402344 C 163.652344 369.988281 163.136719 369.554688 162.644531 369.09375 C 162.152344 368.632812 161.679688 368.148438 161.234375 367.640625 C 160.789062 367.132812 160.371094 366.605469 159.976562 366.054688 C 159.582031 365.507812 159.214844 364.941406 158.878906 364.355469 C 158.539062 363.769531 158.230469 363.171875 157.949219 362.554688 C 157.671875 361.941406 157.421875 361.3125 157.207031 360.671875 C 156.988281 360.035156 156.800781 359.386719 156.648438 358.726562 C 156.492188 358.070312 156.371094 357.40625 156.285156 356.738281 C 156.195312 356.066406 156.140625 355.394531 156.117188 354.71875 C 156.09375 354.042969 156.105469 353.371094 156.148438 352.695312 C 156.191406 352.023438 156.269531 351.351562 156.378906 350.683594 C 156.488281 350.019531 156.628906 349.359375 156.804688 348.707031 C 156.976562 348.054688 157.183594 347.410156 157.421875 346.777344 C 157.660156 346.144531 157.925781 345.527344 158.222656 344.921875 C 158.523438 344.316406 158.851562 343.726562 159.207031 343.152344 C 159.5625 342.578125 159.945312 342.023438 160.355469 341.484375 C 160.765625 340.949219 161.203125 340.433594 161.664062 339.941406 C 162.125 339.449219 162.609375 338.976562 163.117188 338.53125 C 163.625 338.085938 164.152344 337.667969 164.703125 337.273438 C 165.25 336.878906 165.816406 336.511719 166.402344 336.175781 C 166.988281 335.835938 167.585938 335.527344 168.203125 335.246094 C 168.816406 334.96875 169.445312 334.71875 170.082031 334.503906 C 170.722656 334.285156 171.371094 334.097656 172.03125 333.945312 C 172.6875 333.789062 173.351562 333.667969 174.019531 333.582031 C 174.691406 333.492188 175.363281 333.4375 176.039062 333.414062 C 176.710938 333.390625 177.386719 333.402344 178.0625 333.445312 C 180.40625 333.597656 182.75 333.691406 185.097656 333.730469 C 187.445312 333.769531 189.792969 333.75 192.140625 333.675781 C 194.488281 333.601562 196.832031 333.472656 199.171875 333.285156 C 201.511719 333.097656 203.847656 332.851562 206.175781 332.550781 C 208.507812 332.253906 210.828125 331.898438 213.140625 331.484375 C 215.449219 331.074219 217.75 330.605469 220.039062 330.082031 C 222.332031 329.5625 224.605469 328.984375 226.867188 328.351562 C 229.128906 327.71875 231.375 327.035156 233.601562 326.292969 C 235.832031 325.554688 238.039062 324.761719 240.230469 323.914062 C 242.421875 323.066406 244.589844 322.167969 246.738281 321.214844 C 248.882812 320.265625 251.007812 319.261719 253.105469 318.210938 C 255.203125 317.15625 257.277344 316.054688 259.320312 314.898438 C 261.367188 313.746094 263.382812 312.542969 265.371094 311.292969 C 267.359375 310.042969 269.316406 308.746094 271.242188 307.402344 C 273.167969 306.058594 275.058594 304.667969 276.917969 303.230469 C 278.773438 301.796875 280.597656 300.316406 282.382812 298.792969 C 284.171875 297.269531 285.921875 295.703125 287.632812 294.09375 C 289.34375 292.488281 291.015625 290.839844 292.648438 289.152344 C 294.28125 287.464844 295.871094 285.738281 297.417969 283.972656 C 298.96875 282.207031 300.472656 280.40625 301.9375 278.566406 C 303.398438 276.730469 304.816406 274.859375 306.1875 272.953125 C 307.558594 271.046875 308.886719 269.109375 310.164062 267.140625 C 311.441406 265.171875 312.671875 263.171875 313.855469 261.144531 C 315.039062 259.113281 316.171875 257.058594 317.253906 254.972656 C 318.339844 252.890625 319.371094 250.78125 320.351562 248.648438 C 321.335938 246.515625 322.265625 244.359375 323.144531 242.183594 C 324.019531 240.003906 324.847656 237.808594 325.617188 235.589844 C 326.390625 233.371094 327.109375 231.136719 327.773438 228.882812 C 328.4375 226.632812 329.046875 224.363281 329.601562 222.082031 C 330.15625 219.800781 330.65625 217.507812 331.101562 215.203125 C 331.546875 212.898438 331.9375 210.582031 332.269531 208.257812 C 332.601562 205.933594 332.878906 203.601562 333.101562 201.261719 C 333.320312 198.925781 333.488281 196.582031 333.59375 194.238281 C 333.703125 191.890625 333.753906 189.546875 333.75 187.195312 C 333.746094 184.847656 333.683594 182.5 333.566406 180.15625 C 333.449219 177.8125 333.273438 175.46875 333.042969 173.132812 C 332.8125 170.796875 332.527344 168.464844 332.183594 166.144531 C 331.839844 163.820312 331.441406 161.507812 330.988281 159.203125 C 330.53125 156.898438 330.023438 154.605469 329.457031 152.328125 C 328.894531 150.046875 328.273438 147.785156 327.601562 145.535156 C 326.925781 143.285156 326.199219 141.054688 325.417969 138.839844 C 324.636719 136.625 323.800781 134.429688 322.914062 132.253906 C 322.027344 130.082031 321.089844 127.929688 320.097656 125.800781 C 319.109375 123.671875 318.066406 121.566406 316.972656 119.488281 C 315.882812 117.410156 314.742188 115.359375 313.550781 113.335938 C 312.359375 111.308594 311.121094 109.316406 309.832031 107.351562 C 308.546875 105.386719 307.210938 103.457031 305.832031 101.554688 C 304.453125 99.65625 303.027344 97.789062 301.558594 95.957031 C 300.089844 94.125 298.574219 92.332031 297.019531 90.574219 C 295.460938 88.816406 293.863281 87.09375 292.226562 85.414062 C 290.585938 83.730469 288.90625 82.089844 287.191406 80.488281 C 285.472656 78.890625 283.714844 77.332031 281.921875 75.816406 C 280.128906 74.300781 278.300781 72.828125 276.4375 71.398438 C 274.570312 69.972656 272.675781 68.589844 270.742188 67.25 C 268.8125 65.914062 266.851562 64.625 264.859375 63.382812 C 262.867188 62.140625 260.84375 60.949219 258.792969 59.804688 C 256.742188 58.660156 254.667969 57.5625 252.5625 56.519531 C 250.460938 55.476562 248.332031 54.480469 246.183594 53.539062 C 244.03125 52.597656 241.859375 51.707031 239.664062 50.871094 C 237.472656 50.03125 235.257812 49.246094 233.027344 48.515625 C 230.796875 47.785156 228.546875 47.109375 226.28125 46.484375 C 224.019531 45.863281 221.742188 45.296875 219.449219 44.78125 C 217.15625 44.269531 214.855469 43.8125 212.542969 43.410156 C 210.226562 43.007812 207.90625 42.660156 205.574219 42.371094 C 204.90625 42.289062 204.242188 42.171875 203.582031 42.023438 C 202.921875 41.875 202.273438 41.695312 201.632812 41.480469 C 200.992188 41.269531 200.363281 41.023438 199.746094 40.75 C 199.128906 40.476562 198.523438 40.171875 197.9375 39.835938 C 197.351562 39.503906 196.78125 39.144531 196.230469 38.753906 C 195.675781 38.363281 195.144531 37.949219 194.632812 37.503906 C 194.125 37.0625 193.636719 36.597656 193.171875 36.109375 C 192.707031 35.617188 192.265625 35.105469 191.851562 34.574219 C 191.433594 34.042969 191.046875 33.488281 190.6875 32.917969 C 190.324219 32.347656 189.996094 31.757812 189.691406 31.15625 C 189.386719 30.550781 189.117188 29.933594 188.875 29.304688 C 188.628906 28.671875 188.421875 28.03125 188.242188 27.382812 C 188.0625 26.730469 187.914062 26.070312 187.800781 25.40625 C 187.683594 24.742188 187.601562 24.070312 187.554688 23.398438 C 187.503906 22.722656 187.488281 22.050781 187.507812 21.375 C 187.523438 20.699219 187.574219 20.027344 187.65625 19.355469 C 187.742188 18.683594 187.859375 18.019531 188.007812 17.363281 C 188.15625 16.703125 188.335938 16.050781 188.546875 15.410156 C 188.761719 14.769531 189.003906 14.140625 189.28125 13.523438 C 189.554688 12.90625 189.859375 12.304688 190.191406 11.71875 C 190.523438 11.128906 190.886719 10.558594 191.277344 10.007812 C 191.667969 9.457031 192.082031 8.925781 192.523438 8.414062 C 192.964844 7.902344 193.429688 7.414062 193.921875 6.949219 C 194.410156 6.484375 194.921875 6.042969 195.457031 5.628906 C 195.988281 5.214844 196.539062 4.828125 197.113281 4.464844 C 197.683594 4.105469 198.269531 3.773438 198.875 3.46875 C 199.476562 3.167969 200.09375 2.894531 200.726562 2.652344 C 201.355469 2.410156 201.996094 2.199219 202.648438 2.019531 C 203.300781 1.839844 203.957031 1.695312 204.625 1.578125 C 205.289062 1.464844 205.957031 1.382812 206.632812 1.332031 C 207.304688 1.285156 207.980469 1.269531 208.65625 1.285156 C 209.332031 1.304688 210.003906 1.355469 210.675781 1.4375 Z M 210.675781 1.4375 " fill-opacity="1" fill-rule="nonzero"/><g clip-path="url(#id1)"><path fill="rgb(74.119568%, 74.119568%, 74.119568%)" d="M 187.273438 112.5 L 115.910156 137.335938 L 127.1875 229.800781 L 187.347656 262.5 L 247.816406 229.355469 L 259.089844 136.894531 Z M 187.273438 112.5 " fill-opacity="1" fill-rule="nonzero"/></g><path fill="rgb(71.759033%, 10.978699%, 10.978699%)" d="M 251.652344 141.570312 L 187.5 119.777344 L 187.5 254.640625 L 241.472656 225.058594 Z M 251.652344 141.570312 " fill-opacity="1" fill-rule="nonzero"/><path fill="rgb(86.669922%, 17.248535%, 0%)" d="M 187.300781 119.710938 L 123.34375 141.96875 L 133.527344 225.488281 L 187.332031 254.730469 L 187.5 254.640625 L 187.5 119.777344 Z M 187.300781 119.710938 " fill-opacity="1" fill-rule="nonzero"/><path fill="rgb(74.119568%, 74.119568%, 74.119568%)" d="M 187.5 126.121094 L 187.5 158.535156 L 216.742188 221.589844 L 231.773438 221.589844 Z M 187.5 126.121094 " fill-opacity="1" fill-rule="nonzero"/><path fill="rgb(93.328857%, 93.328857%, 93.328857%)" d="M 143.226562 221.589844 L 158.257812 221.589844 L 187.5 158.535156 L 187.5 126.121094 Z M 143.226562 221.589844 " fill-opacity="1" fill-rule="nonzero"/><path fill="rgb(74.119568%, 74.119568%, 74.119568%)" d="M 187.5 187.5 L 207.953125 187.5 L 207.953125 201.136719 L 187.5 201.136719 Z M 187.5 187.5 " fill-opacity="1" fill-rule="nonzero"/><path fill="rgb(93.328857%, 93.328857%, 93.328857%)" d="M 167.046875 187.5 L 187.5 187.5 L 187.5 201.136719 L 167.046875 201.136719 Z M 167.046875 187.5 " fill-opacity="1" fill-rule="nonzero"/></svg>