<svg xmlns="http://www.w3.org/2000/svg" xmlns:xlink="http://www.w3.org/1999/xlink" width="500" zoomAndPan="magnify" viewBox="0 0 375 374.999991" height="500" preserveAspectRatio="xMidYMid meet" version="1.0"><defs><clipPath id="id1"><path d="M 112.5 112.5 L 262.5 112.5 L 262.5 262.5 L 112.5 262.5 Z M 112.5 112.5 " clip-rule="nonzero"/></clipPath></defs><path fill="rgb(65.098572%, 65.098572%, 65.098572%)" d="M 187.5 0 C 190.570312 0 193.636719 0.0742188 196.699219 0.226562 C 199.765625 0.375 202.824219 0.601562 205.878906 0.902344 C 208.933594 1.203125 211.976562 1.578125 215.011719 2.03125 C 218.046875 2.480469 221.070312 3.003906 224.078125 3.601562 C 227.089844 4.203125 230.082031 4.875 233.058594 5.617188 C 236.035156 6.363281 238.992188 7.183594 241.929688 8.074219 C 244.863281 8.964844 247.777344 9.925781 250.667969 10.960938 C 253.554688 11.996094 256.417969 13.097656 259.253906 14.273438 C 262.089844 15.445312 264.890625 16.691406 267.667969 18.003906 C 270.441406 19.3125 273.179688 20.691406 275.886719 22.140625 C 278.59375 23.585938 281.261719 25.097656 283.894531 26.675781 C 286.527344 28.253906 289.117188 29.894531 291.667969 31.597656 C 294.222656 33.304688 296.730469 35.070312 299.195312 36.898438 C 301.660156 38.726562 304.078125 40.613281 306.449219 42.558594 C 308.820312 44.507812 311.144531 46.511719 313.417969 48.570312 C 315.691406 50.632812 317.914062 52.746094 320.082031 54.917969 C 322.253906 57.085938 324.367188 59.308594 326.429688 61.582031 C 328.488281 63.855469 330.492188 66.179688 332.4375 68.550781 C 334.386719 70.921875 336.273438 73.339844 338.101562 75.804688 C 339.929688 78.269531 341.695312 80.777344 343.402344 83.332031 C 345.105469 85.882812 346.746094 88.472656 348.324219 91.105469 C 349.902344 93.738281 351.414062 96.40625 352.859375 99.113281 C 354.308594 101.820312 355.6875 104.558594 356.996094 107.332031 C 358.308594 110.105469 359.554688 112.910156 360.726562 115.746094 C 361.902344 118.582031 363.003906 121.445312 364.039062 124.332031 C 365.074219 127.222656 366.035156 130.136719 366.925781 133.070312 C 367.816406 136.007812 368.636719 138.964844 369.378906 141.941406 C 370.125 144.917969 370.796875 147.910156 371.398438 150.921875 C 371.996094 153.929688 372.519531 156.953125 372.96875 159.988281 C 373.421875 163.023438 373.796875 166.066406 374.097656 169.121094 C 374.398438 172.175781 374.625 175.234375 374.773438 178.300781 C 374.925781 181.363281 375 184.429688 375 187.5 C 375 190.570312 374.925781 193.636719 374.773438 196.699219 C 374.625 199.765625 374.398438 202.824219 374.097656 205.878906 C 373.796875 208.933594 373.421875 211.976562 372.96875 215.011719 C 372.519531 218.046875 371.996094 221.070312 371.398438 224.078125 C 370.796875 227.089844 370.125 230.082031 369.378906 233.058594 C 368.636719 236.035156 367.816406 238.992188 366.925781 241.929688 C 366.035156 244.863281 365.074219 247.777344 364.039062 250.667969 C 363.003906 253.554688 361.902344 256.417969 360.726562 259.253906 C 359.554688 262.089844 358.308594 264.890625 356.996094 267.667969 C 355.6875 270.441406 354.308594 273.179688 352.859375 275.886719 C 351.414062 278.59375 349.902344 281.261719 348.324219 283.894531 C 346.746094 286.527344 345.105469 289.117188 343.402344 291.667969 C 341.695312 294.222656 339.929688 296.730469 338.101562 299.195312 C 336.273438 301.660156 334.386719 304.078125 332.4375 306.449219 C 330.492188 308.820312 328.488281 311.144531 326.429688 313.417969 C 324.367188 315.691406 322.253906 317.914062 320.082031 320.082031 C 317.914062 322.253906 315.691406 324.367188 313.417969 326.429688 C 311.144531 328.488281 308.820312 330.492188 306.449219 332.4375 C 304.078125 334.386719 301.660156 336.273438 299.195312 338.101562 C 296.730469 339.929688 294.222656 341.695312 291.667969 343.402344 C 289.117188 345.105469 286.527344 346.746094 283.894531 348.324219 C 281.261719 349.902344 278.59375 351.414062 275.886719 352.859375 C 273.179688 354.308594 270.441406 355.6875 267.667969 356.996094 C 264.890625 358.308594 262.089844 359.554688 259.253906 360.726562 C 256.417969 361.902344 253.554688 363.003906 250.667969 364.039062 C 247.777344 365.074219 244.863281 366.035156 241.929688 366.925781 C 238.992188 367.816406 236.035156 368.636719 233.058594 369.378906 C 230.082031 370.125 227.089844 370.796875 224.078125 371.398438 C 221.070312 371.996094 218.046875 372.519531 215.011719 372.96875 C 211.976562 373.421875 208.933594 373.796875 205.878906 374.097656 C 202.824219 374.398438 199.765625 374.625 196.699219 374.773438 C 193.636719 374.925781 190.570312 375 187.5 375 C 184.429688 375 181.363281 374.925781 178.300781 374.773438 C 175.234375 374.625 172.175781 374.398438 169.121094 374.097656 C 166.066406 373.796875 163.023438 373.421875 159.988281 372.96875 C 156.953125 372.519531 153.929688 371.996094 150.921875 371.398438 C 147.910156 370.796875 144.917969 370.125 141.941406 369.378906 C 138.964844 368.636719 136.007812 367.816406 133.070312 366.925781 C 130.136719 366.035156 127.222656 365.074219 124.332031 364.039062 C 121.445312 363.003906 118.582031 361.902344 115.746094 360.726562 C 112.910156 359.554688 110.105469 358.308594 107.332031 356.996094 C 104.558594 355.6875 101.820312 354.308594 99.113281 352.859375 C 96.40625 351.414062 93.738281 349.902344 91.105469 348.324219 C 88.472656 346.746094 85.882812 345.105469 83.332031 343.402344 C 80.777344 341.695312 78.269531 339.929688 75.804688 338.101562 C 73.339844 336.273438 70.921875 334.386719 68.550781 332.4375 C 66.179688 330.492188 63.855469 328.488281 61.582031 326.429688 C 59.308594 324.367188 57.085938 322.253906 54.917969 320.082031 C 52.746094 317.914062 50.632812 315.691406 48.570312 313.417969 C 46.511719 311.144531 44.507812 308.820312 42.558594 306.449219 C 40.613281 304.078125 38.726562 301.660156 36.898438 299.195312 C 35.070312 296.730469 33.304688 294.222656 31.597656 291.667969 C 29.894531 289.117188 28.253906 286.527344 26.675781 283.894531 C 25.097656 281.261719 23.585938 278.59375 22.140625 275.886719 C 20.691406 273.179688 19.3125 270.441406 18.003906 267.667969 C 16.691406 264.890625 15.445312 262.089844 14.273438 259.253906 C 13.097656 256.417969 11.996094 253.554688 10.960938 250.667969 C 9.925781 247.777344 8.964844 244.863281 8.074219 241.929688 C 7.183594 238.992188 6.363281 236.035156 5.621094 233.058594 C 4.875 230.082031 4.203125 227.089844 3.601562 224.078125 C 3.003906 221.070312 2.480469 218.046875 2.03125 215.011719 C 1.578125 211.976562 1.203125 208.933594 0.902344 205.878906 C 0.601562 202.824219 0.375 199.765625 0.226562 196.699219 C 0.0742188 193.636719 0 190.570312 0 187.5 C 0 184.429688 0.0742188 181.363281 0.226562 178.300781 C 0.375 175.234375 0.601562 172.175781 0.902344 169.121094 C 1.203125 166.066406 1.578125 163.023438 2.03125 159.988281 C 2.480469 156.953125 3.003906 153.929688 3.601562 150.921875 C 4.203125 147.910156 4.875 144.917969 5.621094 141.941406 C 6.363281 138.964844 7.183594 136.007812 8.074219 133.070312 C 8.964844 130.136719 9.925781 127.222656 10.960938 124.332031 C 11.996094 121.445312 13.097656 118.582031 14.273438 115.746094 C 15.445312 112.910156 16.691406 110.105469 18.003906 107.332031 C 19.3125 104.558594 20.691406 101.820312 22.140625 99.113281 C 23.585938 96.40625 25.097656 93.738281 26.675781 91.105469 C 28.253906 88.472656 29.894531 85.882812 31.597656 83.332031 C 33.304688 80.777344 35.070312 78.269531 36.898438 75.804688 C 38.726562 73.339844 40.613281 70.921875 42.558594 68.550781 C 44.507812 66.179688 46.511719 63.855469 48.570312 61.582031 C 50.632812 59.308594 52.746094 57.085938 54.917969 54.917969 C 57.085938 52.746094 59.308594 50.632812 61.582031 48.570312 C 63.855469 46.511719 66.179688 44.507812 68.550781 42.558594 C 70.921875 40.613281 73.339844 38.726562 75.804688 36.898438 C 78.269531 35.070312 80.777344 33.304688 83.332031 31.597656 C 85.882812 29.894531 88.472656 28.253906 91.105469 26.675781 C 93.738281 25.097656 96.40625 23.585938 99.113281 22.140625 C 101.820312 20.691406 104.558594 19.3125 107.332031 18.003906 C 110.105469 16.691406 112.910156 15.445312 115.746094 14.273438 C 118.582031 13.097656 121.445312 11.996094 124.332031 10.960938 C 127.222656 9.925781 130.136719 8.964844 133.070312 8.074219 C 136.007812 7.183594 138.964844 6.363281 141.941406 5.617188 C 144.917969 4.875 147.910156 4.203125 150.921875 3.601562 C 153.929688 3.003906 156.953125 2.480469 159.988281 2.03125 C 163.023438 1.578125 166.066406 1.203125 169.121094 0.902344 C 172.175781 0.601562 175.234375 0.375 178.300781 0.226562 C 181.363281 0.0742188 184.429688 0 187.5 0 L 187.5 41.25 C 185.105469 41.25 182.714844 41.308594 180.324219 41.425781 C 177.933594 41.542969 175.546875 41.71875 173.164062 41.953125 C 170.78125 42.1875 168.410156 42.480469 166.039062 42.832031 C 163.671875 43.183594 161.316406 43.59375 158.96875 44.058594 C 156.621094 44.527344 154.285156 45.050781 151.964844 45.632812 C 149.640625 46.214844 147.335938 46.851562 145.046875 47.546875 C 142.753906 48.242188 140.484375 48.992188 138.230469 49.800781 C 135.976562 50.605469 133.742188 51.464844 131.53125 52.382812 C 129.320312 53.296875 127.132812 54.269531 124.96875 55.292969 C 122.804688 56.316406 120.667969 57.390625 118.558594 58.519531 C 116.449219 59.648438 114.367188 60.828125 112.3125 62.058594 C 110.257812 63.289062 108.238281 64.566406 106.246094 65.898438 C 104.257812 67.226562 102.300781 68.605469 100.378906 70.03125 C 98.457031 71.457031 96.570312 72.929688 94.71875 74.445312 C 92.871094 75.964844 91.058594 77.527344 89.285156 79.136719 C 87.511719 80.742188 85.777344 82.394531 84.085938 84.085938 C 82.394531 85.777344 80.742188 87.511719 79.136719 89.285156 C 77.527344 91.058594 75.964844 92.871094 74.445312 94.71875 C 72.929688 96.570312 71.457031 98.457031 70.03125 100.378906 C 68.605469 102.300781 67.226562 104.257812 65.898438 106.246094 C 64.566406 108.238281 63.289062 110.257812 62.058594 112.3125 C 60.828125 114.367188 59.648438 116.449219 58.519531 118.558594 C 57.390625 120.667969 56.316406 122.804688 55.292969 124.96875 C 54.269531 127.132812 53.296875 129.320312 52.382812 131.53125 C 51.464844 133.742188 50.605469 135.976562 49.800781 138.230469 C 48.992188 140.484375 48.242188 142.753906 47.546875 145.046875 C 46.851562 147.335938 46.214844 149.640625 45.632812 151.964844 C 45.050781 154.285156 44.527344 156.621094 44.058594 158.96875 C 43.59375 161.316406 43.183594 163.671875 42.832031 166.039062 C 42.480469 168.410156 42.1875 170.78125 41.953125 173.164062 C 41.71875 175.546875 41.542969 177.933594 41.425781 180.324219 C 41.308594 182.714844 41.25 185.105469 41.25 187.5 C 41.25 189.894531 41.308594 192.285156 41.425781 194.675781 C 41.542969 197.066406 41.71875 199.453125 41.953125 201.835938 C 42.1875 204.21875 42.480469 206.589844 42.832031 208.960938 C 43.183594 211.328125 43.59375 213.683594 44.058594 216.03125 C 44.527344 218.378906 45.050781 220.714844 45.632812 223.035156 C 46.214844 225.359375 46.851562 227.664062 47.546875 229.953125 C 48.242188 232.246094 48.992188 234.515625 49.800781 236.769531 C 50.605469 239.023438 51.464844 241.257812 52.382812 243.46875 C 53.296875 245.679688 54.269531 247.867188 55.292969 250.03125 C 56.316406 252.195312 57.390625 254.332031 58.519531 256.441406 C 59.648438 258.550781 60.828125 260.632812 62.058594 262.6875 C 63.289062 264.742188 64.566406 266.761719 65.898438 268.753906 C 67.226562 270.742188 68.605469 272.699219 70.03125 274.621094 C 71.457031 276.542969 72.929688 278.429688 74.445312 280.28125 C 75.964844 282.128906 77.527344 283.941406 79.136719 285.714844 C 80.742188 287.488281 82.394531 289.222656 84.085938 290.914062 C 85.777344 292.605469 87.511719 294.257812 89.285156 295.863281 C 91.058594 297.472656 92.871094 299.035156 94.71875 300.554688 C 96.570312 302.070312 98.457031 303.542969 100.378906 304.96875 C 102.300781 306.394531 104.257812 307.773438 106.246094 309.101562 C 108.238281 310.433594 110.257812 311.710938 112.3125 312.941406 C 114.367188 314.171875 116.449219 315.351562 118.558594 316.480469 C 120.667969 317.609375 122.804688 318.683594 124.96875 319.707031 C 127.132812 320.730469 129.320312 321.703125 131.53125 322.617188 C 133.742188 323.535156 135.976562 324.394531 138.230469 325.199219 C 140.484375 326.007812 142.753906 326.757812 145.046875 327.453125 C 147.335938 328.148438 149.640625 328.785156 151.964844 329.367188 C 154.285156 329.949219 156.621094 330.472656 158.96875 330.941406 C 161.316406 331.40625 163.671875 331.816406 166.039062 332.167969 C 168.410156 332.519531 170.78125 332.8125 173.164062 333.046875 C 175.546875 333.28125 177.933594 333.457031 180.324219 333.574219 C 182.714844 333.691406 185.105469 333.75 187.5 333.75 C 189.894531 333.75 192.285156 333.691406 194.675781 333.574219 C 197.066406 333.457031 199.453125 333.28125 201.835938 333.046875 C 204.21875 332.8125 206.589844 332.519531 208.960938 332.167969 C 211.328125 331.816406 213.683594 331.40625 216.03125 330.941406 C 218.378906 330.472656 220.714844 329.949219 223.035156 329.367188 C 225.359375 328.785156 227.664062 328.148438 229.953125 327.453125 C 232.246094 326.757812 234.515625 326.007812 236.769531 325.199219 C 239.023438 324.394531 241.257812 323.535156 243.46875 322.617188 C 245.679688 321.703125 247.867188 320.730469 250.03125 319.707031 C 252.195312 318.683594 254.332031 317.609375 256.441406 316.480469 C 258.550781 315.351562 260.632812 314.171875 262.6875 312.941406 C 264.742188 311.710938 266.761719 310.433594 268.753906 309.101562 C 270.742188 307.773438 272.699219 306.394531 274.621094 304.96875 C 276.542969 303.542969 278.429688 302.070312 280.28125 300.550781 C 282.128906 299.035156 283.941406 297.472656 285.714844 295.863281 C 287.488281 294.257812 289.222656 292.605469 290.914062 290.914062 C 292.605469 289.222656 294.257812 287.488281 295.863281 285.714844 C 297.472656 283.941406 299.035156 282.128906 300.554688 280.28125 C 302.070312 278.429688 303.542969 276.542969 304.96875 274.621094 C 306.394531 272.699219 307.773438 270.742188 309.101562 268.753906 C 310.433594 266.761719 311.710938 264.742188 312.941406 262.6875 C 314.171875 260.632812 315.351562 258.550781 316.480469 256.441406 C 317.609375 254.332031 318.683594 252.195312 319.707031 250.03125 C 320.730469 247.867188 321.703125 245.679688 322.617188 243.46875 C 323.535156 241.257812 324.394531 239.023438 325.199219 236.769531 C 326.007812 234.515625 326.757812 232.246094 327.453125 229.953125 C 328.148438 227.664062 328.785156 225.359375 329.367188 223.035156 C 329.949219 220.714844 330.472656 218.378906 330.941406 216.03125 C 331.40625 213.683594 331.816406 211.328125 332.167969 208.960938 C 332.519531 206.589844 332.8125 204.21875 333.046875 201.835938 C 333.28125 199.453125 333.457031 197.066406 333.574219 194.675781 C 333.691406 192.285156 333.75 189.894531 333.75 187.5 C 333.75 185.105469 333.691406 182.714844 333.574219 180.324219 C 333.457031 177.933594 333.28125 175.546875 333.046875 173.164062 C 332.8125 170.78125 332.519531 168.410156 332.167969 166.039062 C 331.816406 163.671875 331.40625 161.316406 330.941406 158.96875 C 330.472656 156.621094 329.949219 154.285156 329.367188 151.964844 C 328.785156 149.640625 328.148438 147.335938 327.453125 145.046875 C 326.757812 142.753906 326.007812 140.484375 325.199219 138.230469 C 324.394531 135.976562 323.535156 133.742188 322.617188 131.53125 C 321.703125 129.320312 320.730469 127.132812 319.707031 124.96875 C 318.683594 122.804688 317.609375 120.667969 316.480469 118.558594 C 315.351562 116.449219 314.171875 114.367188 312.941406 112.3125 C 311.710938 110.257812 310.433594 108.238281 309.101562 106.246094 C 307.773438 104.257812 306.394531 102.300781 304.96875 100.378906 C 303.542969 98.457031 302.070312 96.570312 300.554688 94.71875 C 299.035156 92.871094 297.472656 91.058594 295.863281 89.285156 C 294.257812 87.511719 292.605469 85.777344 290.914062 84.085938 C 289.222656 82.394531 287.488281 80.742188 285.714844 79.136719 C 283.941406 77.527344 282.128906 75.964844 280.28125 74.445312 C 278.429688 72.929688 276.542969 71.457031 274.621094 70.03125 C 272.699219 68.605469 270.742188 67.226562 268.753906 65.898438 C 266.761719 64.566406 264.742188 63.289062 262.6875 62.058594 C 260.632812 60.828125 258.550781 59.648438 256.441406 58.519531 C 254.332031 57.390625 252.195312 56.316406 250.03125 55.292969 C 247.867188 54.269531 245.679688 53.296875 243.46875 52.382812 C 241.257812 51.464844 239.023438 50.605469 236.769531 49.800781 C 234.515625 48.992188 232.246094 48.242188 229.953125 47.546875 C 227.664062 46.851562 225.359375 46.214844 223.035156 45.632812 C 220.714844 45.050781 218.378906 44.527344 216.03125 44.058594 C 213.683594 43.59375 211.328125 43.183594 208.960938 42.832031 C 206.589844 42.480469 204.21875 42.1875 201.835938 41.953125 C 199.453125 41.71875 197.066406 41.542969 194.675781 41.425781 C 192.285156 41.308594 189.894531 41.25 187.5 41.25 Z M 187.5 0 " fill-opacity="1" fill-rule="nonzero"/><path fill="rgb(36.079407%, 88.238525%, 90.19928%)" d="M 210.675781 1.4375 C 213.601562 1.800781 216.515625 2.234375 219.421875 2.738281 C 222.324219 3.238281 225.214844 3.808594 228.09375 4.445312 C 230.972656 5.085938 233.835938 5.792969 236.679688 6.566406 C 239.523438 7.335938 242.347656 8.175781 245.15625 9.085938 C 247.960938 9.992188 250.742188 10.960938 253.5 12 C 256.261719 13.039062 258.992188 14.140625 261.703125 15.308594 C 264.410156 16.472656 267.085938 17.703125 269.738281 18.996094 C 272.386719 20.289062 275.003906 21.644531 277.589844 23.0625 C 280.175781 24.476562 282.726562 25.953125 285.242188 27.492188 C 287.757812 29.027344 290.234375 30.621094 292.675781 32.277344 C 295.117188 33.929688 297.515625 35.640625 299.875 37.40625 C 302.234375 39.175781 304.554688 40.996094 306.828125 42.871094 C 309.101562 44.75 311.328125 46.675781 313.511719 48.65625 C 315.695312 50.640625 317.832031 52.671875 319.917969 54.753906 C 322.003906 56.835938 324.042969 58.964844 326.027344 61.144531 C 328.015625 63.320312 329.949219 65.546875 331.832031 67.8125 C 333.714844 70.082031 335.539062 72.394531 337.3125 74.75 C 339.085938 77.105469 340.800781 79.503906 342.460938 81.941406 C 344.121094 84.375 345.722656 86.851562 347.265625 89.363281 C 348.808594 91.875 350.292969 94.421875 351.714844 97.003906 C 353.136719 99.585938 354.5 102.199219 355.796875 104.84375 C 357.097656 107.492188 358.335938 110.167969 359.507812 112.871094 C 360.683594 115.574219 361.789062 118.308594 362.835938 121.0625 C 363.878906 123.820312 364.859375 126.601562 365.773438 129.402344 C 366.6875 132.207031 367.53125 135.027344 368.3125 137.871094 C 369.09375 140.714844 369.804688 143.574219 370.453125 146.453125 C 371.097656 149.328125 371.675781 152.21875 372.183594 155.121094 C 372.691406 158.027344 373.132812 160.941406 373.503906 163.863281 C 373.875 166.789062 374.179688 169.71875 374.410156 172.660156 C 374.644531 175.597656 374.808594 178.539062 374.902344 181.488281 C 375 184.433594 375.023438 187.382812 374.980469 190.328125 C 374.933594 193.277344 374.820312 196.222656 374.636719 199.164062 C 374.453125 202.105469 374.199219 205.042969 373.878906 207.972656 C 373.558594 210.902344 373.167969 213.824219 372.707031 216.738281 C 372.246094 219.648438 371.71875 222.546875 371.121094 225.433594 C 370.527344 228.324219 369.863281 231.195312 369.128906 234.050781 C 368.398438 236.90625 367.597656 239.742188 366.734375 242.5625 C 365.867188 245.378906 364.9375 248.175781 363.9375 250.949219 C 362.941406 253.722656 361.878906 256.472656 360.75 259.195312 C 359.625 261.921875 358.433594 264.617188 357.179688 267.285156 C 355.925781 269.953125 354.605469 272.589844 353.230469 275.195312 C 351.851562 277.800781 350.410156 280.371094 348.910156 282.910156 C 347.410156 285.449219 345.851562 287.949219 344.234375 290.414062 C 342.613281 292.878906 340.9375 295.300781 339.207031 297.6875 C 337.472656 300.074219 335.6875 302.414062 333.84375 304.71875 C 332 307.019531 330.105469 309.273438 328.15625 311.484375 C 326.207031 313.695312 324.203125 315.863281 322.152344 317.980469 C 320.101562 320.097656 318 322.164062 315.851562 324.179688 C 313.703125 326.199219 311.507812 328.167969 309.265625 330.082031 C 307.023438 331.996094 304.738281 333.855469 302.410156 335.664062 C 300.078125 337.46875 297.707031 339.21875 295.296875 340.914062 C 292.882812 342.609375 290.433594 344.246094 287.945312 345.824219 C 285.453125 347.40625 282.929688 348.925781 280.367188 350.386719 C 277.808594 351.84375 275.214844 353.246094 272.585938 354.582031 C 269.960938 355.921875 267.300781 357.195312 264.617188 358.40625 C 261.929688 359.621094 259.214844 360.769531 256.472656 361.851562 C 253.730469 362.9375 250.964844 363.957031 248.175781 364.910156 C 245.386719 365.863281 242.578125 366.753906 239.746094 367.574219 C 236.914062 368.394531 234.066406 369.148438 231.199219 369.835938 C 228.332031 370.523438 225.449219 371.144531 222.554688 371.695312 C 219.65625 372.246094 216.75 372.726562 213.832031 373.140625 C 210.910156 373.554688 207.984375 373.902344 205.050781 374.175781 C 202.113281 374.453125 199.175781 374.660156 196.230469 374.796875 C 193.285156 374.933594 190.339844 375 187.390625 375 C 184.441406 375 181.496094 374.925781 178.550781 374.785156 C 175.605469 374.644531 172.667969 374.433594 169.730469 374.15625 C 166.796875 373.875 163.871094 373.527344 160.953125 373.109375 C 158.035156 372.695312 155.128906 372.207031 152.230469 371.652344 C 149.335938 371.097656 146.457031 370.476562 143.589844 369.785156 C 140.722656 369.09375 137.875 368.335938 135.042969 367.511719 C 132.214844 366.6875 129.40625 365.796875 126.617188 364.839844 C 123.828125 363.882812 121.0625 362.859375 118.324219 361.773438 C 115.582031 360.683594 112.871094 359.535156 110.183594 358.316406 C 107.5 357.101562 104.84375 355.824219 102.21875 354.484375 C 99.59375 353.140625 97 351.738281 94.441406 350.277344 C 91.882812 348.8125 89.359375 347.289062 86.871094 345.707031 C 84.382812 344.125 81.933594 342.488281 79.523438 340.789062 C 77.113281 339.089844 74.746094 337.335938 72.417969 335.527344 C 70.089844 333.71875 67.808594 331.855469 65.566406 329.9375 C 63.328125 328.019531 61.132812 326.050781 58.988281 324.03125 C 56.839844 322.011719 54.742188 319.941406 52.695312 317.820312 C 50.644531 315.703125 48.648438 313.535156 46.699219 311.320312 C 44.753906 309.109375 42.859375 306.847656 41.019531 304.546875 C 39.179688 302.242188 37.394531 299.898438 35.664062 297.511719 C 33.933594 295.125 32.261719 292.695312 30.648438 290.230469 C 29.03125 287.765625 27.476562 285.261719 25.980469 282.722656 C 24.480469 280.183594 23.046875 277.609375 21.667969 275 C 20.292969 272.394531 18.980469 269.753906 17.730469 267.085938 C 16.476562 264.417969 15.289062 261.71875 14.164062 258.992188 C 13.042969 256.269531 11.980469 253.519531 10.988281 250.742188 C 9.992188 247.96875 9.066406 245.171875 8.203125 242.351562 C 7.339844 239.53125 6.542969 236.695312 5.816406 233.835938 C 5.085938 230.980469 4.425781 228.109375 3.832031 225.222656 C 3.242188 222.332031 2.714844 219.433594 2.257812 216.519531 C 1.804688 213.609375 1.414062 210.6875 1.097656 207.753906 C 0.777344 204.824219 0.53125 201.886719 0.351562 198.945312 C 0.308594 198.269531 0.300781 197.597656 0.324219 196.921875 C 0.351562 196.246094 0.410156 195.574219 0.5 194.90625 C 0.589844 194.234375 0.714844 193.574219 0.871094 192.914062 C 1.027344 192.257812 1.214844 191.609375 1.433594 190.972656 C 1.65625 190.332031 1.90625 189.707031 2.1875 189.09375 C 2.46875 188.476562 2.78125 187.878906 3.121094 187.296875 C 3.460938 186.710938 3.828125 186.148438 4.222656 185.601562 C 4.621094 185.050781 5.042969 184.527344 5.488281 184.019531 C 5.9375 183.515625 6.40625 183.03125 6.902344 182.570312 C 7.398438 182.113281 7.914062 181.675781 8.453125 181.269531 C 8.988281 180.859375 9.546875 180.476562 10.121094 180.125 C 10.695312 179.769531 11.289062 179.445312 11.894531 179.148438 C 12.503906 178.851562 13.121094 178.585938 13.753906 178.351562 C 14.390625 178.117188 15.03125 177.914062 15.683594 177.742188 C 16.339844 177.570312 17 177.429688 17.664062 177.324219 C 18.332031 177.214844 19.003906 177.140625 19.675781 177.101562 C 20.351562 177.058594 21.027344 177.050781 21.699219 177.074219 C 22.375 177.101562 23.046875 177.160156 23.71875 177.25 C 24.386719 177.339844 25.050781 177.464844 25.707031 177.621094 C 26.363281 177.777344 27.011719 177.964844 27.652344 178.183594 C 28.289062 178.40625 28.917969 178.65625 29.53125 178.9375 C 30.144531 179.21875 30.742188 179.53125 31.328125 179.871094 C 31.910156 180.210938 32.476562 180.578125 33.023438 180.972656 C 33.570312 181.371094 34.097656 181.792969 34.601562 182.238281 C 35.109375 182.6875 35.589844 183.160156 36.050781 183.652344 C 36.511719 184.148438 36.945312 184.664062 37.355469 185.203125 C 37.761719 185.738281 38.144531 186.296875 38.5 186.871094 C 38.851562 187.445312 39.179688 188.039062 39.472656 188.644531 C 39.769531 189.253906 40.035156 189.871094 40.269531 190.503906 C 40.507812 191.140625 40.710938 191.78125 40.882812 192.433594 C 41.054688 193.089844 41.191406 193.75 41.300781 194.414062 C 41.40625 195.082031 41.480469 195.753906 41.523438 196.425781 C 41.664062 198.722656 41.859375 201.011719 42.105469 203.300781 C 42.355469 205.585938 42.65625 207.863281 43.011719 210.136719 C 43.367188 212.40625 43.777344 214.671875 44.238281 216.921875 C 44.703125 219.175781 45.21875 221.414062 45.785156 223.644531 C 46.355469 225.871094 46.976562 228.085938 47.648438 230.285156 C 48.320312 232.484375 49.042969 234.664062 49.820312 236.828125 C 50.597656 238.996094 51.421875 241.140625 52.300781 243.265625 C 53.175781 245.390625 54.101562 247.496094 55.078125 249.578125 C 56.054688 251.660156 57.078125 253.71875 58.152344 255.75 C 59.226562 257.785156 60.34375 259.792969 61.511719 261.773438 C 62.679688 263.753906 63.894531 265.707031 65.15625 267.628906 C 66.414062 269.554688 67.71875 271.445312 69.070312 273.308594 C 70.417969 275.171875 71.808594 277 73.246094 278.796875 C 74.679688 280.59375 76.15625 282.355469 77.675781 284.082031 C 79.195312 285.808594 80.753906 287.496094 82.351562 289.152344 C 83.949219 290.804688 85.585938 292.417969 87.261719 293.996094 C 88.933594 295.570312 90.644531 297.105469 92.390625 298.601562 C 94.140625 300.097656 95.921875 301.550781 97.734375 302.960938 C 99.550781 304.375 101.398438 305.742188 103.277344 307.066406 C 105.160156 308.390625 107.070312 309.667969 109.007812 310.902344 C 110.949219 312.136719 112.917969 313.324219 114.914062 314.464844 C 116.910156 315.605469 118.933594 316.699219 120.980469 317.746094 C 123.027344 318.792969 125.097656 319.789062 127.195312 320.738281 C 129.289062 321.6875 131.40625 322.585938 133.542969 323.433594 C 135.679688 324.28125 137.835938 325.078125 140.011719 325.824219 C 142.1875 326.570312 144.378906 327.265625 146.585938 327.910156 C 148.792969 328.554688 151.015625 329.144531 153.25 329.683594 C 155.484375 330.222656 157.730469 330.707031 159.992188 331.140625 C 162.25 331.570312 164.515625 331.949219 166.792969 332.277344 C 169.070312 332.601562 171.351562 332.875 173.640625 333.09375 C 175.929688 333.308594 178.222656 333.472656 180.519531 333.582031 C 182.816406 333.691406 185.113281 333.75 187.414062 333.75 C 189.714844 333.75 192.011719 333.699219 194.308594 333.589844 C 196.605469 333.484375 198.898438 333.324219 201.1875 333.109375 C 203.476562 332.894531 205.761719 332.625 208.039062 332.300781 C 210.316406 331.976562 212.582031 331.601562 214.839844 331.171875 C 217.101562 330.742188 219.347656 330.257812 221.585938 329.722656 C 223.820312 329.1875 226.042969 328.597656 228.25 327.957031 C 230.460938 327.316406 232.652344 326.625 234.828125 325.878906 C 237.003906 325.136719 239.160156 324.339844 241.296875 323.496094 C 243.4375 322.648438 245.554688 321.753906 247.648438 320.808594 C 249.746094 319.863281 251.820312 318.867188 253.867188 317.824219 C 255.917969 316.78125 257.941406 315.691406 259.9375 314.550781 C 261.933594 313.410156 263.90625 312.226562 265.847656 310.996094 C 267.789062 309.761719 269.699219 308.484375 271.582031 307.164062 C 273.464844 305.839844 275.3125 304.476562 277.128906 303.066406 C 278.945312 301.65625 280.730469 300.207031 282.476562 298.710938 C 284.226562 297.21875 285.9375 295.6875 287.613281 294.113281 C 289.292969 292.539062 290.929688 290.925781 292.53125 289.273438 C 294.128906 287.621094 295.691406 285.933594 297.210938 284.207031 C 298.730469 282.484375 300.210938 280.722656 301.648438 278.929688 C 303.085938 277.132812 304.480469 275.308594 305.832031 273.445312 C 307.183594 271.585938 308.488281 269.695312 309.75 267.773438 C 311.011719 265.851562 312.230469 263.898438 313.398438 261.917969 C 314.570312 259.941406 315.691406 257.933594 316.769531 255.902344 C 317.84375 253.871094 318.871094 251.8125 319.847656 249.730469 C 320.828125 247.652344 321.757812 245.546875 322.636719 243.421875 C 323.515625 241.296875 324.34375 239.152344 325.121094 236.988281 C 325.898438 234.828125 326.625 232.644531 327.300781 230.449219 C 327.976562 228.25 328.601562 226.035156 329.171875 223.808594 C 329.742188 221.582031 330.261719 219.339844 330.726562 217.089844 C 331.191406 214.835938 331.601562 212.574219 331.960938 210.304688 C 332.320312 208.035156 332.625 205.753906 332.875 203.46875 C 333.125 201.183594 333.324219 198.894531 333.464844 196.597656 C 333.609375 194.304688 333.699219 192.003906 333.734375 189.707031 C 333.769531 187.40625 333.75 185.109375 333.675781 182.808594 C 333.601562 180.511719 333.472656 178.214844 333.292969 175.925781 C 333.109375 173.632812 332.875 171.34375 332.582031 169.0625 C 332.292969 166.78125 331.949219 164.511719 331.554688 162.246094 C 331.15625 159.980469 330.707031 157.726562 330.203125 155.480469 C 329.699219 153.238281 329.144531 151.007812 328.535156 148.789062 C 327.925781 146.574219 327.265625 144.371094 326.550781 142.183594 C 325.839844 140 325.078125 137.828125 324.261719 135.679688 C 323.445312 133.527344 322.582031 131.398438 321.667969 129.289062 C 320.75 127.179688 319.785156 125.09375 318.773438 123.03125 C 317.757812 120.964844 316.699219 118.925781 315.585938 116.914062 C 314.476562 114.898438 313.320312 112.910156 312.117188 110.953125 C 310.914062 108.992188 309.664062 107.0625 308.371094 105.164062 C 307.074219 103.261719 305.738281 101.394531 304.355469 99.554688 C 302.972656 97.71875 301.546875 95.914062 300.078125 94.144531 C 298.609375 92.375 297.101562 90.640625 295.550781 88.941406 C 294.003906 87.242188 292.414062 85.582031 290.785156 83.957031 C 289.15625 82.332031 287.492188 80.75 285.789062 79.203125 C 284.085938 77.65625 282.347656 76.152344 280.574219 74.691406 C 278.800781 73.226562 276.996094 71.804688 275.152344 70.425781 C 273.3125 69.050781 271.441406 67.714844 269.535156 66.425781 C 267.632812 65.136719 265.699219 63.890625 263.738281 62.691406 C 261.777344 61.492188 259.785156 60.34375 257.769531 59.238281 C 255.753906 58.132812 253.710938 57.074219 251.644531 56.066406 C 249.578125 55.058594 247.488281 54.097656 245.378906 53.191406 C 243.265625 52.28125 241.132812 51.417969 238.980469 50.609375 C 236.828125 49.800781 234.660156 49.042969 232.46875 48.335938 C 230.28125 47.628906 228.078125 46.972656 225.859375 46.371094 C 223.640625 45.765625 221.410156 45.214844 219.164062 44.71875 C 216.917969 44.222656 214.664062 43.777344 212.398438 43.386719 C 210.132812 42.992188 207.859375 42.65625 205.574219 42.371094 C 204.90625 42.289062 204.242188 42.171875 203.582031 42.023438 C 202.921875 41.875 202.273438 41.695312 201.632812 41.480469 C 200.992188 41.269531 200.363281 41.023438 199.746094 40.75 C 199.128906 40.476562 198.523438 40.171875 197.9375 39.835938 C 197.351562 39.503906 196.78125 39.144531 196.230469 38.753906 C 195.675781 38.363281 195.144531 37.949219 194.632812 37.503906 C 194.125 37.0625 193.636719 36.597656 193.171875 36.109375 C 192.707031 35.617188 192.265625 35.105469 191.851562 34.574219 C 191.433594 34.042969 191.046875 33.488281 190.6875 32.917969 C 190.324219 32.347656 189.996094 31.757812 189.691406 31.15625 C 189.386719 30.550781 189.117188 29.933594 188.875 29.304688 C 188.628906 28.671875 188.421875 28.03125 188.242188 27.382812 C 188.0625 26.730469 187.914062 26.070312 187.800781 25.40625 C 187.683594 24.742188 187.601562 24.070312 187.554688 23.398438 C 187.503906 22.722656 187.488281 22.050781 187.507812 21.375 C 187.523438 20.699219 187.574219 20.027344 187.65625 19.355469 C 187.742188 18.683594 187.859375 18.019531 188.007812 17.363281 C 188.15625 16.703125 188.335938 16.050781 188.546875 15.410156 C 188.761719 14.769531 189.003906 14.140625 189.28125 13.523438 C 189.554688 12.90625 189.859375 12.304688 190.191406 11.71875 C 190.523438 11.128906 190.886719 10.558594 191.277344 10.007812 C 191.667969 9.457031 192.082031 8.925781 192.523438 8.414062 C 192.964844 7.902344 193.429688 7.414062 193.921875 6.949219 C 194.410156 6.484375 194.921875 6.042969 195.457031 5.628906 C 195.988281 5.214844 196.539062 4.828125 197.113281 4.464844 C 197.683594 4.105469 198.269531 3.773438 198.875 3.46875 C 199.476562 3.167969 200.09375 2.894531 200.726562 2.652344 C 201.355469 2.410156 201.996094 2.199219 202.648438 2.019531 C 203.300781 1.839844 203.957031 1.695312 204.625 1.578125 C 205.289062 1.464844 205.957031 1.382812 206.632812 1.332031 C 207.304688 1.285156 207.980469 1.269531 208.65625 1.285156 C 209.332031 1.304688 210.003906 1.355469 210.675781 1.4375 Z M 210.675781 1.4375 " fill-opacity="1" fill-rule="nonzero"/><g clip-path="url(#id1)"><path fill="rgb(33.729553%, 23.919678%, 48.629761%)" d="M 112.5 243.15625 C 112.5 253.839844 121.160156 262.5 131.839844 262.5 L 243.15625 262.5 C 253.839844 262.5 262.5 253.839844 262.5 243.15625 L 262.5 131.839844 C 262.5 121.160156 253.839844 112.5 243.15625 112.5 L 131.839844 112.5 C 121.15625 112.5 112.5 121.160156 112.5 131.839844 Z M 112.5 243.15625 " fill-opacity="1" fill-rule="nonzero"/></g><path fill="rgb(100%, 100%, 100%)" d="M 174.703125 178.851562 L 174.703125 157.609375 L 193.398438 157.609375 C 195.179688 157.609375 196.898438 157.757812 198.550781 158.054688 C 200.203125 158.351562 201.667969 158.878906 202.9375 159.644531 C 204.210938 160.40625 205.230469 161.464844 205.992188 162.824219 C 206.753906 164.179688 207.132812 165.917969 207.132812 168.039062 C 207.132812 171.855469 205.992188 174.609375 203.699219 176.308594 C 201.417969 178 198.488281 178.851562 194.925781 178.851562 Z M 154.730469 142.089844 L 154.730469 232.910156 L 198.742188 232.910156 C 202.808594 232.910156 206.777344 232.398438 210.632812 231.378906 C 214.492188 230.367188 217.925781 228.796875 220.9375 226.675781 C 223.949219 224.554688 226.339844 221.824219 228.121094 218.472656 C 229.902344 215.121094 230.792969 211.160156 230.792969 206.578125 C 230.792969 200.898438 229.417969 196.042969 226.664062 192.015625 C 223.902344 187.984375 219.730469 185.167969 214.128906 183.554688 C 218.203125 181.605469 221.277344 179.101562 223.351562 176.050781 C 225.433594 172.996094 226.46875 169.183594 226.46875 164.605469 C 226.46875 160.363281 225.773438 156.800781 224.371094 153.917969 C 222.972656 151.035156 221.003906 148.726562 218.460938 146.988281 C 215.910156 145.25 212.859375 143.996094 209.300781 143.234375 C 205.738281 142.472656 201.796875 142.089844 197.472656 142.089844 Z M 174.703125 217.394531 L 174.703125 192.460938 L 196.453125 192.460938 C 200.777344 192.460938 204.25 193.457031 206.882812 195.449219 C 209.511719 197.441406 210.824219 200.769531 210.824219 205.433594 C 210.824219 207.808594 210.421875 209.761719 209.617188 211.289062 C 208.808594 212.8125 207.730469 214.019531 206.371094 214.910156 C 205.019531 215.800781 203.449219 216.4375 201.667969 216.820312 C 199.886719 217.199219 198.023438 217.394531 196.070312 217.394531 Z M 174.703125 217.394531 " fill-opacity="1" fill-rule="nonzero"/></svg>