<svg xmlns="http://www.w3.org/2000/svg" xmlns:xlink="http://www.w3.org/1999/xlink" width="500" zoomAndPan="magnify" viewBox="0 0 375 374.999991" height="500" preserveAspectRatio="xMidYMid meet" version="1.0"><defs><clipPath id="id1"><path d="M 119.625 112.5 L 255.375 112.5 L 255.375 262.5 L 119.625 262.5 Z M 119.625 112.5 " clip-rule="nonzero"/></clipPath><clipPath id="id2"><path d="M 119.625 112.5 L 254 112.5 L 254 225 L 119.625 225 Z M 119.625 112.5 " clip-rule="nonzero"/></clipPath><clipPath id="id3"><path d="M 186 149 L 255.375 149 L 255.375 225 L 186 225 Z M 186 149 " clip-rule="nonzero"/></clipPath></defs><path fill="rgb(65.098572%, 65.098572%, 65.098572%)" d="M 187.5 0 C 190.570312 0 193.636719 0.0742188 196.699219 0.226562 C 199.765625 0.375 202.824219 0.601562 205.878906 0.902344 C 208.933594 1.203125 211.976562 1.578125 215.011719 2.03125 C 218.046875 2.480469 221.070312 3.003906 224.078125 3.601562 C 227.089844 4.203125 230.082031 4.875 233.058594 5.617188 C 236.035156 6.363281 238.992188 7.183594 241.929688 8.074219 C 244.863281 8.964844 247.777344 9.925781 250.667969 10.960938 C 253.554688 11.996094 256.417969 13.097656 259.253906 14.273438 C 262.089844 15.445312 264.890625 16.691406 267.667969 18.003906 C 270.441406 19.3125 273.179688 20.691406 275.886719 22.140625 C 278.59375 23.585938 281.261719 25.097656 283.894531 26.675781 C 286.527344 28.253906 289.117188 29.894531 291.667969 31.597656 C 294.222656 33.304688 296.730469 35.070312 299.195312 36.898438 C 301.660156 38.726562 304.078125 40.613281 306.449219 42.558594 C 308.820312 44.507812 311.144531 46.511719 313.417969 48.570312 C 315.691406 50.632812 317.914062 52.746094 320.082031 54.917969 C 322.253906 57.085938 324.367188 59.308594 326.429688 61.582031 C 328.488281 63.855469 330.492188 66.179688 332.4375 68.550781 C 334.386719 70.921875 336.273438 73.339844 338.101562 75.804688 C 339.929688 78.269531 341.695312 80.777344 343.402344 83.332031 C 345.105469 85.882812 346.746094 88.472656 348.324219 91.105469 C 349.902344 93.738281 351.414062 96.40625 352.859375 99.113281 C 354.308594 101.820312 355.6875 104.558594 356.996094 107.332031 C 358.308594 110.105469 359.554688 112.910156 360.726562 115.746094 C 361.902344 118.582031 363.003906 121.445312 364.039062 124.332031 C 365.074219 127.222656 366.035156 130.136719 366.925781 133.070312 C 367.816406 136.007812 368.636719 138.964844 369.378906 141.941406 C 370.125 144.917969 370.796875 147.910156 371.398438 150.921875 C 371.996094 153.929688 372.519531 156.953125 372.96875 159.988281 C 373.421875 163.023438 373.796875 166.066406 374.097656 169.121094 C 374.398438 172.175781 374.625 175.234375 374.773438 178.300781 C 374.925781 181.363281 375 184.429688 375 187.5 C 375 190.570312 374.925781 193.636719 374.773438 196.699219 C 374.625 199.765625 374.398438 202.824219 374.097656 205.878906 C 373.796875 208.933594 373.421875 211.976562 372.96875 215.011719 C 372.519531 218.046875 371.996094 221.070312 371.398438 224.078125 C 370.796875 227.089844 370.125 230.082031 369.378906 233.058594 C 368.636719 236.035156 367.816406 238.992188 366.925781 241.929688 C 366.035156 244.863281 365.074219 247.777344 364.039062 250.667969 C 363.003906 253.554688 361.902344 256.417969 360.726562 259.253906 C 359.554688 262.089844 358.308594 264.890625 356.996094 267.667969 C 355.6875 270.441406 354.308594 273.179688 352.859375 275.886719 C 351.414062 278.59375 349.902344 281.261719 348.324219 283.894531 C 346.746094 286.527344 345.105469 289.117188 343.402344 291.667969 C 341.695312 294.222656 339.929688 296.730469 338.101562 299.195312 C 336.273438 301.660156 334.386719 304.078125 332.4375 306.449219 C 330.492188 308.820312 328.488281 311.144531 326.429688 313.417969 C 324.367188 315.691406 322.253906 317.914062 320.082031 320.082031 C 317.914062 322.253906 315.691406 324.367188 313.417969 326.429688 C 311.144531 328.488281 308.820312 330.492188 306.449219 332.4375 C 304.078125 334.386719 301.660156 336.273438 299.195312 338.101562 C 296.730469 339.929688 294.222656 341.695312 291.667969 343.402344 C 289.117188 345.105469 286.527344 346.746094 283.894531 348.324219 C 281.261719 349.902344 278.59375 351.414062 275.886719 352.859375 C 273.179688 354.308594 270.441406 355.6875 267.667969 356.996094 C 264.890625 358.308594 262.089844 359.554688 259.253906 360.726562 C 256.417969 361.902344 253.554688 363.003906 250.667969 364.039062 C 247.777344 365.074219 244.863281 366.035156 241.929688 366.925781 C 238.992188 367.816406 236.035156 368.636719 233.058594 369.378906 C 230.082031 370.125 227.089844 370.796875 224.078125 371.398438 C 221.070312 371.996094 218.046875 372.519531 215.011719 372.96875 C 211.976562 373.421875 208.933594 373.796875 205.878906 374.097656 C 202.824219 374.398438 199.765625 374.625 196.699219 374.773438 C 193.636719 374.925781 190.570312 375 187.5 375 C 184.429688 375 181.363281 374.925781 178.300781 374.773438 C 175.234375 374.625 172.175781 374.398438 169.121094 374.097656 C 166.066406 373.796875 163.023438 373.421875 159.988281 372.96875 C 156.953125 372.519531 153.929688 371.996094 150.921875 371.398438 C 147.910156 370.796875 144.917969 370.125 141.941406 369.378906 C 138.964844 368.636719 136.007812 367.816406 133.070312 366.925781 C 130.136719 366.035156 127.222656 365.074219 124.332031 364.039062 C 121.445312 363.003906 118.582031 361.902344 115.746094 360.726562 C 112.910156 359.554688 110.105469 358.308594 107.332031 356.996094 C 104.558594 355.6875 101.820312 354.308594 99.113281 352.859375 C 96.40625 351.414062 93.738281 349.902344 91.105469 348.324219 C 88.472656 346.746094 85.882812 345.105469 83.332031 343.402344 C 80.777344 341.695312 78.269531 339.929688 75.804688 338.101562 C 73.339844 336.273438 70.921875 334.386719 68.550781 332.4375 C 66.179688 330.492188 63.855469 328.488281 61.582031 326.429688 C 59.308594 324.367188 57.085938 322.253906 54.917969 320.082031 C 52.746094 317.914062 50.632812 315.691406 48.570312 313.417969 C 46.511719 311.144531 44.507812 308.820312 42.558594 306.449219 C 40.613281 304.078125 38.726562 301.660156 36.898438 299.195312 C 35.070312 296.730469 33.304688 294.222656 31.597656 291.667969 C 29.894531 289.117188 28.253906 286.527344 26.675781 283.894531 C 25.097656 281.261719 23.585938 278.59375 22.140625 275.886719 C 20.691406 273.179688 19.3125 270.441406 18.003906 267.667969 C 16.691406 264.890625 15.445312 262.089844 14.273438 259.253906 C 13.097656 256.417969 11.996094 253.554688 10.960938 250.667969 C 9.925781 247.777344 8.964844 244.863281 8.074219 241.929688 C 7.183594 238.992188 6.363281 236.035156 5.621094 233.058594 C 4.875 230.082031 4.203125 227.089844 3.601562 224.078125 C 3.003906 221.070312 2.480469 218.046875 2.03125 215.011719 C 1.578125 211.976562 1.203125 208.933594 0.902344 205.878906 C 0.601562 202.824219 0.375 199.765625 0.226562 196.699219 C 0.0742188 193.636719 0 190.570312 0 187.5 C 0 184.429688 0.0742188 181.363281 0.226562 178.300781 C 0.375 175.234375 0.601562 172.175781 0.902344 169.121094 C 1.203125 166.066406 1.578125 163.023438 2.03125 159.988281 C 2.480469 156.953125 3.003906 153.929688 3.601562 150.921875 C 4.203125 147.910156 4.875 144.917969 5.621094 141.941406 C 6.363281 138.964844 7.183594 136.007812 8.074219 133.070312 C 8.964844 130.136719 9.925781 127.222656 10.960938 124.332031 C 11.996094 121.445312 13.097656 118.582031 14.273438 115.746094 C 15.445312 112.910156 16.691406 110.105469 18.003906 107.332031 C 19.3125 104.558594 20.691406 101.820312 22.140625 99.113281 C 23.585938 96.40625 25.097656 93.738281 26.675781 91.105469 C 28.253906 88.472656 29.894531 85.882812 31.597656 83.332031 C 33.304688 80.777344 35.070312 78.269531 36.898438 75.804688 C 38.726562 73.339844 40.613281 70.921875 42.558594 68.550781 C 44.507812 66.179688 46.511719 63.855469 48.570312 61.582031 C 50.632812 59.308594 52.746094 57.085938 54.917969 54.917969 C 57.085938 52.746094 59.308594 50.632812 61.582031 48.570312 C 63.855469 46.511719 66.179688 44.507812 68.550781 42.558594 C 70.921875 40.613281 73.339844 38.726562 75.804688 36.898438 C 78.269531 35.070312 80.777344 33.304688 83.332031 31.597656 C 85.882812 29.894531 88.472656 28.253906 91.105469 26.675781 C 93.738281 25.097656 96.40625 23.585938 99.113281 22.140625 C 101.820312 20.691406 104.558594 19.3125 107.332031 18.003906 C 110.105469 16.691406 112.910156 15.445312 115.746094 14.273438 C 118.582031 13.097656 121.445312 11.996094 124.332031 10.960938 C 127.222656 9.925781 130.136719 8.964844 133.070312 8.074219 C 136.007812 7.183594 138.964844 6.363281 141.941406 5.617188 C 144.917969 4.875 147.910156 4.203125 150.921875 3.601562 C 153.929688 3.003906 156.953125 2.480469 159.988281 2.03125 C 163.023438 1.578125 166.066406 1.203125 169.121094 0.902344 C 172.175781 0.601562 175.234375 0.375 178.300781 0.226562 C 181.363281 0.0742188 184.429688 0 187.5 0 L 187.5 41.25 C 185.105469 41.25 182.714844 41.308594 180.324219 41.425781 C 177.933594 41.542969 175.546875 41.71875 173.164062 41.953125 C 170.78125 42.1875 168.410156 42.480469 166.039062 42.832031 C 163.671875 43.183594 161.316406 43.59375 158.96875 44.058594 C 156.621094 44.527344 154.285156 45.050781 151.964844 45.632812 C 149.640625 46.214844 147.335938 46.851562 145.046875 47.546875 C 142.753906 48.242188 140.484375 48.992188 138.230469 49.800781 C 135.976562 50.605469 133.742188 51.464844 131.53125 52.382812 C 129.320312 53.296875 127.132812 54.269531 124.96875 55.292969 C 122.804688 56.316406 120.667969 57.390625 118.558594 58.519531 C 116.449219 59.648438 114.367188 60.828125 112.3125 62.058594 C 110.257812 63.289062 108.238281 64.566406 106.246094 65.898438 C 104.257812 67.226562 102.300781 68.605469 100.378906 70.03125 C 98.457031 71.457031 96.570312 72.929688 94.71875 74.445312 C 92.871094 75.964844 91.058594 77.527344 89.285156 79.136719 C 87.511719 80.742188 85.777344 82.394531 84.085938 84.085938 C 82.394531 85.777344 80.742188 87.511719 79.136719 89.285156 C 77.527344 91.058594 75.964844 92.871094 74.445312 94.71875 C 72.929688 96.570312 71.457031 98.457031 70.03125 100.378906 C 68.605469 102.300781 67.226562 104.257812 65.898438 106.246094 C 64.566406 108.238281 63.289062 110.257812 62.058594 112.3125 C 60.828125 114.367188 59.648438 116.449219 58.519531 118.558594 C 57.390625 120.667969 56.316406 122.804688 55.292969 124.96875 C 54.269531 127.132812 53.296875 129.320312 52.382812 131.53125 C 51.464844 133.742188 50.605469 135.976562 49.800781 138.230469 C 48.992188 140.484375 48.242188 142.753906 47.546875 145.046875 C 46.851562 147.335938 46.214844 149.640625 45.632812 151.964844 C 45.050781 154.285156 44.527344 156.621094 44.058594 158.96875 C 43.59375 161.316406 43.183594 163.671875 42.832031 166.039062 C 42.480469 168.410156 42.1875 170.78125 41.953125 173.164062 C 41.71875 175.546875 41.542969 177.933594 41.425781 180.324219 C 41.308594 182.714844 41.25 185.105469 41.25 187.5 C 41.25 189.894531 41.308594 192.285156 41.425781 194.675781 C 41.542969 197.066406 41.71875 199.453125 41.953125 201.835938 C 42.1875 204.21875 42.480469 206.589844 42.832031 208.960938 C 43.183594 211.328125 43.59375 213.683594 44.058594 216.03125 C 44.527344 218.378906 45.050781 220.714844 45.632812 223.035156 C 46.214844 225.359375 46.851562 227.664062 47.546875 229.953125 C 48.242188 232.246094 48.992188 234.515625 49.800781 236.769531 C 50.605469 239.023438 51.464844 241.257812 52.382812 243.46875 C 53.296875 245.679688 54.269531 247.867188 55.292969 250.03125 C 56.316406 252.195312 57.390625 254.332031 58.519531 256.441406 C 59.648438 258.550781 60.828125 260.632812 62.058594 262.6875 C 63.289062 264.742188 64.566406 266.761719 65.898438 268.753906 C 67.226562 270.742188 68.605469 272.699219 70.03125 274.621094 C 71.457031 276.542969 72.929688 278.429688 74.445312 280.28125 C 75.964844 282.128906 77.527344 283.941406 79.136719 285.714844 C 80.742188 287.488281 82.394531 289.222656 84.085938 290.914062 C 85.777344 292.605469 87.511719 294.257812 89.285156 295.863281 C 91.058594 297.472656 92.871094 299.035156 94.71875 300.554688 C 96.570312 302.070312 98.457031 303.542969 100.378906 304.96875 C 102.300781 306.394531 104.257812 307.773438 106.246094 309.101562 C 108.238281 310.433594 110.257812 311.710938 112.3125 312.941406 C 114.367188 314.171875 116.449219 315.351562 118.558594 316.480469 C 120.667969 317.609375 122.804688 318.683594 124.96875 319.707031 C 127.132812 320.730469 129.320312 321.703125 131.53125 322.617188 C 133.742188 323.535156 135.976562 324.394531 138.230469 325.199219 C 140.484375 326.007812 142.753906 326.757812 145.046875 327.453125 C 147.335938 328.148438 149.640625 328.785156 151.964844 329.367188 C 154.285156 329.949219 156.621094 330.472656 158.96875 330.941406 C 161.316406 331.40625 163.671875 331.816406 166.039062 332.167969 C 168.410156 332.519531 170.78125 332.8125 173.164062 333.046875 C 175.546875 333.28125 177.933594 333.457031 180.324219 333.574219 C 182.714844 333.691406 185.105469 333.75 187.5 333.75 C 189.894531 333.75 192.285156 333.691406 194.675781 333.574219 C 197.066406 333.457031 199.453125 333.28125 201.835938 333.046875 C 204.21875 332.8125 206.589844 332.519531 208.960938 332.167969 C 211.328125 331.816406 213.683594 331.40625 216.03125 330.941406 C 218.378906 330.472656 220.714844 329.949219 223.035156 329.367188 C 225.359375 328.785156 227.664062 328.148438 229.953125 327.453125 C 232.246094 326.757812 234.515625 326.007812 236.769531 325.199219 C 239.023438 324.394531 241.257812 323.535156 243.46875 322.617188 C 245.679688 321.703125 247.867188 320.730469 250.03125 319.707031 C 252.195312 318.683594 254.332031 317.609375 256.441406 316.480469 C 258.550781 315.351562 260.632812 314.171875 262.6875 312.941406 C 264.742188 311.710938 266.761719 310.433594 268.753906 309.101562 C 270.742188 307.773438 272.699219 306.394531 274.621094 304.96875 C 276.542969 303.542969 278.429688 302.070312 280.28125 300.550781 C 282.128906 299.035156 283.941406 297.472656 285.714844 295.863281 C 287.488281 294.257812 289.222656 292.605469 290.914062 290.914062 C 292.605469 289.222656 294.257812 287.488281 295.863281 285.714844 C 297.472656 283.941406 299.035156 282.128906 300.554688 280.28125 C 302.070312 278.429688 303.542969 276.542969 304.96875 274.621094 C 306.394531 272.699219 307.773438 270.742188 309.101562 268.753906 C 310.433594 266.761719 311.710938 264.742188 312.941406 262.6875 C 314.171875 260.632812 315.351562 258.550781 316.480469 256.441406 C 317.609375 254.332031 318.683594 252.195312 319.707031 250.03125 C 320.730469 247.867188 321.703125 245.679688 322.617188 243.46875 C 323.535156 241.257812 324.394531 239.023438 325.199219 236.769531 C 326.007812 234.515625 326.757812 232.246094 327.453125 229.953125 C 328.148438 227.664062 328.785156 225.359375 329.367188 223.035156 C 329.949219 220.714844 330.472656 218.378906 330.941406 216.03125 C 331.40625 213.683594 331.816406 211.328125 332.167969 208.960938 C 332.519531 206.589844 332.8125 204.21875 333.046875 201.835938 C 333.28125 199.453125 333.457031 197.066406 333.574219 194.675781 C 333.691406 192.285156 333.75 189.894531 333.75 187.5 C 333.75 185.105469 333.691406 182.714844 333.574219 180.324219 C 333.457031 177.933594 333.28125 175.546875 333.046875 173.164062 C 332.8125 170.78125 332.519531 168.410156 332.167969 166.039062 C 331.816406 163.671875 331.40625 161.316406 330.941406 158.96875 C 330.472656 156.621094 329.949219 154.285156 329.367188 151.964844 C 328.785156 149.640625 328.148438 147.335938 327.453125 145.046875 C 326.757812 142.753906 326.007812 140.484375 325.199219 138.230469 C 324.394531 135.976562 323.535156 133.742188 322.617188 131.53125 C 321.703125 129.320312 320.730469 127.132812 319.707031 124.96875 C 318.683594 122.804688 317.609375 120.667969 316.480469 118.558594 C 315.351562 116.449219 314.171875 114.367188 312.941406 112.3125 C 311.710938 110.257812 310.433594 108.238281 309.101562 106.246094 C 307.773438 104.257812 306.394531 102.300781 304.96875 100.378906 C 303.542969 98.457031 302.070312 96.570312 300.554688 94.71875 C 299.035156 92.871094 297.472656 91.058594 295.863281 89.285156 C 294.257812 87.511719 292.605469 85.777344 290.914062 84.085938 C 289.222656 82.394531 287.488281 80.742188 285.714844 79.136719 C 283.941406 77.527344 282.128906 75.964844 280.28125 74.445312 C 278.429688 72.929688 276.542969 71.457031 274.621094 70.03125 C 272.699219 68.605469 270.742188 67.226562 268.753906 65.898438 C 266.761719 64.566406 264.742188 63.289062 262.6875 62.058594 C 260.632812 60.828125 258.550781 59.648438 256.441406 58.519531 C 254.332031 57.390625 252.195312 56.316406 250.03125 55.292969 C 247.867188 54.269531 245.679688 53.296875 243.46875 52.382812 C 241.257812 51.464844 239.023438 50.605469 236.769531 49.800781 C 234.515625 48.992188 232.246094 48.242188 229.953125 47.546875 C 227.664062 46.851562 225.359375 46.214844 223.035156 45.632812 C 220.714844 45.050781 218.378906 44.527344 216.03125 44.058594 C 213.683594 43.59375 211.328125 43.183594 208.960938 42.832031 C 206.589844 42.480469 204.21875 42.1875 201.835938 41.953125 C 199.453125 41.71875 197.066406 41.542969 194.675781 41.425781 C 192.285156 41.308594 189.894531 41.25 187.5 41.25 Z M 187.5 0 " fill-opacity="1" fill-rule="nonzero"/><path fill="rgb(36.079407%, 88.238525%, 90.19928%)" d="M 210.675781 1.4375 C 216.0625 2.109375 221.414062 3.011719 226.722656 4.148438 C 232.03125 5.285156 237.285156 6.648438 242.476562 8.242188 C 247.667969 9.832031 252.78125 11.648438 257.8125 13.683594 C 262.847656 15.71875 267.785156 17.972656 272.625 20.4375 C 277.460938 22.902344 282.183594 25.570312 286.789062 28.449219 C 291.398438 31.324219 295.871094 34.394531 300.210938 37.65625 C 304.550781 40.921875 308.738281 44.367188 312.78125 47.996094 C 316.820312 51.625 320.695312 55.421875 324.40625 59.386719 C 324.867188 59.878906 325.304688 60.394531 325.714844 60.929688 C 326.128906 61.46875 326.511719 62.023438 326.867188 62.59375 C 327.222656 63.167969 327.550781 63.757812 327.851562 64.367188 C 328.148438 64.972656 328.417969 65.589844 328.65625 66.222656 C 328.894531 66.855469 329.101562 67.496094 329.273438 68.152344 C 329.449219 68.804688 329.589844 69.460938 329.703125 70.128906 C 329.8125 70.796875 329.886719 71.464844 329.933594 72.140625 C 329.976562 72.816406 329.988281 73.488281 329.964844 74.164062 C 329.941406 74.839844 329.886719 75.511719 329.800781 76.183594 C 329.710938 76.851562 329.589844 77.515625 329.4375 78.175781 C 329.28125 78.832031 329.097656 79.480469 328.878906 80.121094 C 328.664062 80.761719 328.414062 81.386719 328.136719 82.003906 C 327.855469 82.617188 327.546875 83.21875 327.210938 83.804688 C 326.871094 84.390625 326.503906 84.957031 326.113281 85.503906 C 325.71875 86.054688 325.296875 86.582031 324.851562 87.089844 C 324.40625 87.597656 323.9375 88.082031 323.445312 88.542969 C 322.949219 89.007812 322.4375 89.441406 321.898438 89.851562 C 321.363281 90.265625 320.808594 90.648438 320.234375 91.003906 C 319.660156 91.359375 319.070312 91.6875 318.464844 91.988281 C 317.859375 92.285156 317.238281 92.554688 316.605469 92.792969 C 315.972656 93.027344 315.332031 93.234375 314.679688 93.410156 C 314.027344 93.585938 313.367188 93.726562 312.699219 93.835938 C 312.03125 93.945312 311.363281 94.023438 310.6875 94.066406 C 310.015625 94.109375 309.339844 94.121094 308.664062 94.097656 C 307.988281 94.074219 307.316406 94.019531 306.644531 93.929688 C 305.976562 93.84375 305.3125 93.722656 304.65625 93.566406 C 303.996094 93.414062 303.347656 93.226562 302.707031 93.011719 C 302.070312 92.792969 301.441406 92.542969 300.824219 92.265625 C 300.210938 91.984375 299.609375 91.675781 299.027344 91.339844 C 298.441406 91 297.875 90.632812 297.324219 90.242188 C 296.777344 89.847656 296.25 89.425781 295.742188 88.980469 C 295.234375 88.535156 294.75 88.066406 294.285156 87.570312 C 291.394531 84.480469 288.371094 81.519531 285.21875 78.6875 C 282.066406 75.855469 278.796875 73.167969 275.414062 70.625 C 272.027344 68.078125 268.539062 65.683594 264.945312 63.4375 C 261.355469 61.195312 257.671875 59.113281 253.894531 57.191406 C 250.121094 55.265625 246.273438 53.511719 242.34375 51.921875 C 238.417969 50.335938 234.429688 48.917969 230.382812 47.675781 C 226.332031 46.4375 222.234375 45.371094 218.09375 44.484375 C 213.953125 43.601562 209.777344 42.894531 205.574219 42.371094 C 204.90625 42.289062 204.242188 42.171875 203.582031 42.023438 C 202.921875 41.875 202.273438 41.695312 201.632812 41.480469 C 200.992188 41.269531 200.363281 41.023438 199.746094 40.75 C 199.128906 40.476562 198.523438 40.171875 197.9375 39.835938 C 197.351562 39.503906 196.78125 39.144531 196.230469 38.753906 C 195.675781 38.363281 195.144531 37.949219 194.632812 37.503906 C 194.125 37.0625 193.636719 36.597656 193.171875 36.109375 C 192.707031 35.617188 192.265625 35.105469 191.851562 34.574219 C 191.433594 34.042969 191.046875 33.488281 190.6875 32.917969 C 190.324219 32.347656 189.996094 31.757812 189.691406 31.15625 C 189.386719 30.550781 189.117188 29.933594 188.875 29.304688 C 188.628906 28.671875 188.421875 28.03125 188.242188 27.382812 C 188.0625 26.730469 187.914062 26.070312 187.800781 25.40625 C 187.683594 24.742188 187.601562 24.070312 187.554688 23.398438 C 187.503906 22.722656 187.488281 22.050781 187.507812 21.375 C 187.523438 20.699219 187.574219 20.027344 187.65625 19.355469 C 187.742188 18.683594 187.859375 18.019531 188.007812 17.363281 C 188.15625 16.703125 188.335938 16.050781 188.546875 15.410156 C 188.761719 14.769531 189.003906 14.140625 189.28125 13.523438 C 189.554688 12.90625 189.859375 12.304688 190.191406 11.71875 C 190.523438 11.128906 190.886719 10.558594 191.277344 10.007812 C 191.667969 9.457031 192.082031 8.925781 192.523438 8.414062 C 192.964844 7.902344 193.429688 7.414062 193.921875 6.949219 C 194.410156 6.484375 194.921875 6.042969 195.457031 5.628906 C 195.988281 5.214844 196.539062 4.828125 197.113281 4.464844 C 197.683594 4.105469 198.269531 3.773438 198.875 3.46875 C 199.476562 3.167969 200.09375 2.894531 200.726562 2.652344 C 201.355469 2.410156 201.996094 2.199219 202.648438 2.019531 C 203.300781 1.839844 203.957031 1.695312 204.625 1.578125 C 205.289062 1.464844 205.957031 1.382812 206.632812 1.332031 C 207.304688 1.285156 207.980469 1.269531 208.65625 1.285156 C 209.332031 1.304688 210.003906 1.355469 210.675781 1.4375 Z M 210.675781 1.4375 " fill-opacity="1" fill-rule="nonzero"/><g clip-path="url(#id1)"><path fill="rgb(15.689087%, 20.779419%, 57.649231%)" d="M 183.601562 113.871094 C 186.015625 112.519531 188.984375 112.519531 191.394531 113.871094 C 203.320312 120.566406 239.207031 140.710938 251.136719 147.40625 C 253.550781 148.757812 255.035156 151.257812 255.035156 153.96875 C 255.035156 167.351562 255.035156 207.644531 255.035156 221.03125 C 255.035156 223.738281 253.550781 226.242188 251.136719 227.59375 C 239.210938 234.289062 203.324219 254.433594 191.394531 261.128906 C 188.980469 262.480469 186.011719 262.480469 183.601562 261.128906 C 171.675781 254.433594 135.789062 234.289062 123.859375 227.59375 C 121.449219 226.242188 119.964844 223.742188 119.964844 221.03125 C 119.964844 207.648438 119.964844 167.355469 119.964844 153.96875 C 119.964844 151.261719 121.449219 148.757812 123.863281 147.40625 C 135.785156 140.710938 171.679688 120.566406 183.601562 113.871094 Z M 183.601562 113.871094 " fill-opacity="1" fill-rule="nonzero"/></g><g clip-path="url(#id2)"><path fill="rgb(36.079407%, 41.958618%, 75.289917%)" d="M 121.046875 224.480469 C 120.097656 223.214844 119.964844 222.015625 119.964844 220.398438 C 119.964844 207.089844 119.964844 167.03125 119.964844 153.71875 C 119.964844 151.023438 121.445312 148.535156 123.851562 147.191406 C 135.734375 140.539062 171.5 120.507812 183.382812 113.851562 C 185.789062 112.503906 189.050781 112.53125 191.457031 113.878906 C 203.339844 120.53125 238.984375 140.390625 250.867188 147.046875 C 251.824219 147.585938 252.558594 148.238281 253.210938 149.09375 Z M 121.046875 224.480469 " fill-opacity="1" fill-rule="nonzero"/></g><path fill="rgb(100%, 100%, 100%)" d="M 187.5 137.738281 C 160.023438 137.738281 137.738281 160.023438 137.738281 187.5 C 137.738281 214.976562 160.023438 237.261719 187.5 237.261719 C 214.976562 237.261719 237.261719 214.976562 237.261719 187.5 C 237.261719 160.023438 214.976562 137.738281 187.5 137.738281 Z M 187.5 212.382812 C 173.78125 212.382812 162.617188 201.21875 162.617188 187.5 C 162.617188 173.78125 173.78125 162.617188 187.5 162.617188 C 201.21875 162.617188 212.382812 173.78125 212.382812 187.5 C 212.382812 201.21875 201.21875 212.382812 187.5 212.382812 Z M 187.5 212.382812 " fill-opacity="1" fill-rule="nonzero"/><g clip-path="url(#id3)"><path fill="rgb(22.349548%, 28.62854%, 67.059326%)" d="M 253.203125 149.128906 C 255.039062 150.847656 255.003906 153.433594 255.003906 155.46875 C 255.003906 168.960938 254.890625 207.328125 255.035156 220.816406 C 255.050781 222.222656 254.585938 223.707031 253.886719 224.820312 L 186.054688 187.5 Z M 253.203125 149.128906 " fill-opacity="1" fill-rule="nonzero"/></g><path fill="rgb(100%, 100%, 100%)" d="M 223.046875 173.28125 L 226.597656 173.28125 L 226.597656 201.71875 L 223.046875 201.71875 Z M 233.707031 173.28125 L 237.261719 173.28125 L 237.261719 201.71875 L 233.707031 201.71875 Z M 233.707031 173.28125 " fill-opacity="1" fill-rule="nonzero"/><path fill="rgb(100%, 100%, 100%)" d="M 215.9375 191.054688 L 244.371094 191.054688 L 244.371094 194.609375 L 215.9375 194.609375 Z M 215.9375 180.390625 L 244.371094 180.390625 L 244.371094 183.945312 L 215.9375 183.945312 Z M 215.9375 180.390625 " fill-opacity="1" fill-rule="nonzero"/></svg>