<svg xmlns="http://www.w3.org/2000/svg" xmlns:xlink="http://www.w3.org/1999/xlink" width="500" zoomAndPan="magnify" viewBox="0 0 375 374.999991" height="500" preserveAspectRatio="xMidYMid meet" version="1.0"><defs><clipPath id="id1"><path d="M 120.375 112.5 L 254.625 112.5 L 254.625 262.5 L 120.375 262.5 Z M 120.375 112.5 " clip-rule="nonzero"/></clipPath></defs><path fill="rgb(65.098572%, 65.098572%, 65.098572%)" d="M 187.5 0 C 190.570312 0 193.636719 0.0742188 196.699219 0.226562 C 199.765625 0.375 202.824219 0.601562 205.878906 0.902344 C 208.933594 1.203125 211.976562 1.578125 215.011719 2.03125 C 218.046875 2.480469 221.070312 3.003906 224.078125 3.601562 C 227.089844 4.203125 230.082031 4.875 233.058594 5.617188 C 236.035156 6.363281 238.992188 7.183594 241.929688 8.074219 C 244.863281 8.964844 247.777344 9.925781 250.667969 10.960938 C 253.554688 11.996094 256.417969 13.097656 259.253906 14.273438 C 262.089844 15.445312 264.890625 16.691406 267.667969 18.003906 C 270.441406 19.3125 273.179688 20.691406 275.886719 22.140625 C 278.59375 23.585938 281.261719 25.097656 283.894531 26.675781 C 286.527344 28.253906 289.117188 29.894531 291.667969 31.597656 C 294.222656 33.304688 296.730469 35.070312 299.195312 36.898438 C 301.660156 38.726562 304.078125 40.613281 306.449219 42.558594 C 308.820312 44.507812 311.144531 46.511719 313.417969 48.570312 C 315.691406 50.632812 317.914062 52.746094 320.082031 54.917969 C 322.253906 57.085938 324.367188 59.308594 326.429688 61.582031 C 328.488281 63.855469 330.492188 66.179688 332.4375 68.550781 C 334.386719 70.921875 336.273438 73.339844 338.101562 75.804688 C 339.929688 78.269531 341.695312 80.777344 343.402344 83.332031 C 345.105469 85.882812 346.746094 88.472656 348.324219 91.105469 C 349.902344 93.738281 351.414062 96.40625 352.859375 99.113281 C 354.308594 101.820312 355.6875 104.558594 356.996094 107.332031 C 358.308594 110.105469 359.554688 112.910156 360.726562 115.746094 C 361.902344 118.582031 363.003906 121.445312 364.039062 124.332031 C 365.074219 127.222656 366.035156 130.136719 366.925781 133.070312 C 367.816406 136.007812 368.636719 138.964844 369.378906 141.941406 C 370.125 144.917969 370.796875 147.910156 371.398438 150.921875 C 371.996094 153.929688 372.519531 156.953125 372.96875 159.988281 C 373.421875 163.023438 373.796875 166.066406 374.097656 169.121094 C 374.398438 172.175781 374.625 175.234375 374.773438 178.300781 C 374.925781 181.363281 375 184.429688 375 187.5 C 375 190.570312 374.925781 193.636719 374.773438 196.699219 C 374.625 199.765625 374.398438 202.824219 374.097656 205.878906 C 373.796875 208.933594 373.421875 211.976562 372.96875 215.011719 C 372.519531 218.046875 371.996094 221.070312 371.398438 224.078125 C 370.796875 227.089844 370.125 230.082031 369.378906 233.058594 C 368.636719 236.035156 367.816406 238.992188 366.925781 241.929688 C 366.035156 244.863281 365.074219 247.777344 364.039062 250.667969 C 363.003906 253.554688 361.902344 256.417969 360.726562 259.253906 C 359.554688 262.089844 358.308594 264.890625 356.996094 267.667969 C 355.6875 270.441406 354.308594 273.179688 352.859375 275.886719 C 351.414062 278.59375 349.902344 281.261719 348.324219 283.894531 C 346.746094 286.527344 345.105469 289.117188 343.402344 291.667969 C 341.695312 294.222656 339.929688 296.730469 338.101562 299.195312 C 336.273438 301.660156 334.386719 304.078125 332.4375 306.449219 C 330.492188 308.820312 328.488281 311.144531 326.429688 313.417969 C 324.367188 315.691406 322.253906 317.914062 320.082031 320.082031 C 317.914062 322.253906 315.691406 324.367188 313.417969 326.429688 C 311.144531 328.488281 308.820312 330.492188 306.449219 332.4375 C 304.078125 334.386719 301.660156 336.273438 299.195312 338.101562 C 296.730469 339.929688 294.222656 341.695312 291.667969 343.402344 C 289.117188 345.105469 286.527344 346.746094 283.894531 348.324219 C 281.261719 349.902344 278.59375 351.414062 275.886719 352.859375 C 273.179688 354.308594 270.441406 355.6875 267.667969 356.996094 C 264.890625 358.308594 262.089844 359.554688 259.253906 360.726562 C 256.417969 361.902344 253.554688 363.003906 250.667969 364.039062 C 247.777344 365.074219 244.863281 366.035156 241.929688 366.925781 C 238.992188 367.816406 236.035156 368.636719 233.058594 369.378906 C 230.082031 370.125 227.089844 370.796875 224.078125 371.398438 C 221.070312 371.996094 218.046875 372.519531 215.011719 372.96875 C 211.976562 373.421875 208.933594 373.796875 205.878906 374.097656 C 202.824219 374.398438 199.765625 374.625 196.699219 374.773438 C 193.636719 374.925781 190.570312 375 187.5 375 C 184.429688 375 181.363281 374.925781 178.300781 374.773438 C 175.234375 374.625 172.175781 374.398438 169.121094 374.097656 C 166.066406 373.796875 163.023438 373.421875 159.988281 372.96875 C 156.953125 372.519531 153.929688 371.996094 150.921875 371.398438 C 147.910156 370.796875 144.917969 370.125 141.941406 369.378906 C 138.964844 368.636719 136.007812 367.816406 133.070312 366.925781 C 130.136719 366.035156 127.222656 365.074219 124.332031 364.039062 C 121.445312 363.003906 118.582031 361.902344 115.746094 360.726562 C 112.910156 359.554688 110.105469 358.308594 107.332031 356.996094 C 104.558594 355.6875 101.820312 354.308594 99.113281 352.859375 C 96.40625 351.414062 93.738281 349.902344 91.105469 348.324219 C 88.472656 346.746094 85.882812 345.105469 83.332031 343.402344 C 80.777344 341.695312 78.269531 339.929688 75.804688 338.101562 C 73.339844 336.273438 70.921875 334.386719 68.550781 332.4375 C 66.179688 330.492188 63.855469 328.488281 61.582031 326.429688 C 59.308594 324.367188 57.085938 322.253906 54.917969 320.082031 C 52.746094 317.914062 50.632812 315.691406 48.570312 313.417969 C 46.511719 311.144531 44.507812 308.820312 42.558594 306.449219 C 40.613281 304.078125 38.726562 301.660156 36.898438 299.195312 C 35.070312 296.730469 33.304688 294.222656 31.597656 291.667969 C 29.894531 289.117188 28.253906 286.527344 26.675781 283.894531 C 25.097656 281.261719 23.585938 278.59375 22.140625 275.886719 C 20.691406 273.179688 19.3125 270.441406 18.003906 267.667969 C 16.691406 264.890625 15.445312 262.089844 14.273438 259.253906 C 13.097656 256.417969 11.996094 253.554688 10.960938 250.667969 C 9.925781 247.777344 8.964844 244.863281 8.074219 241.929688 C 7.183594 238.992188 6.363281 236.035156 5.621094 233.058594 C 4.875 230.082031 4.203125 227.089844 3.601562 224.078125 C 3.003906 221.070312 2.480469 218.046875 2.03125 215.011719 C 1.578125 211.976562 1.203125 208.933594 0.902344 205.878906 C 0.601562 202.824219 0.375 199.765625 0.226562 196.699219 C 0.0742188 193.636719 0 190.570312 0 187.5 C 0 184.429688 0.0742188 181.363281 0.226562 178.300781 C 0.375 175.234375 0.601562 172.175781 0.902344 169.121094 C 1.203125 166.066406 1.578125 163.023438 2.03125 159.988281 C 2.480469 156.953125 3.003906 153.929688 3.601562 150.921875 C 4.203125 147.910156 4.875 144.917969 5.621094 141.941406 C 6.363281 138.964844 7.183594 136.007812 8.074219 133.070312 C 8.964844 130.136719 9.925781 127.222656 10.960938 124.332031 C 11.996094 121.445312 13.097656 118.582031 14.273438 115.746094 C 15.445312 112.910156 16.691406 110.105469 18.003906 107.332031 C 19.3125 104.558594 20.691406 101.820312 22.140625 99.113281 C 23.585938 96.40625 25.097656 93.738281 26.675781 91.105469 C 28.253906 88.472656 29.894531 85.882812 31.597656 83.332031 C 33.304688 80.777344 35.070312 78.269531 36.898438 75.804688 C 38.726562 73.339844 40.613281 70.921875 42.558594 68.550781 C 44.507812 66.179688 46.511719 63.855469 48.570312 61.582031 C 50.632812 59.308594 52.746094 57.085938 54.917969 54.917969 C 57.085938 52.746094 59.308594 50.632812 61.582031 48.570312 C 63.855469 46.511719 66.179688 44.507812 68.550781 42.558594 C 70.921875 40.613281 73.339844 38.726562 75.804688 36.898438 C 78.269531 35.070312 80.777344 33.304688 83.332031 31.597656 C 85.882812 29.894531 88.472656 28.253906 91.105469 26.675781 C 93.738281 25.097656 96.40625 23.585938 99.113281 22.140625 C 101.820312 20.691406 104.558594 19.3125 107.332031 18.003906 C 110.105469 16.691406 112.910156 15.445312 115.746094 14.273438 C 118.582031 13.097656 121.445312 11.996094 124.332031 10.960938 C 127.222656 9.925781 130.136719 8.964844 133.070312 8.074219 C 136.007812 7.183594 138.964844 6.363281 141.941406 5.617188 C 144.917969 4.875 147.910156 4.203125 150.921875 3.601562 C 153.929688 3.003906 156.953125 2.480469 159.988281 2.03125 C 163.023438 1.578125 166.066406 1.203125 169.121094 0.902344 C 172.175781 0.601562 175.234375 0.375 178.300781 0.226562 C 181.363281 0.0742188 184.429688 0 187.5 0 L 187.5 41.25 C 185.105469 41.25 182.714844 41.308594 180.324219 41.425781 C 177.933594 41.542969 175.546875 41.71875 173.164062 41.953125 C 170.78125 42.1875 168.410156 42.480469 166.039062 42.832031 C 163.671875 43.183594 161.316406 43.59375 158.96875 44.058594 C 156.621094 44.527344 154.285156 45.050781 151.964844 45.632812 C 149.640625 46.214844 147.335938 46.851562 145.046875 47.546875 C 142.753906 48.242188 140.484375 48.992188 138.230469 49.800781 C 135.976562 50.605469 133.742188 51.464844 131.53125 52.382812 C 129.320312 53.296875 127.132812 54.269531 124.96875 55.292969 C 122.804688 56.316406 120.667969 57.390625 118.558594 58.519531 C 116.449219 59.648438 114.367188 60.828125 112.3125 62.058594 C 110.257812 63.289062 108.238281 64.566406 106.246094 65.898438 C 104.257812 67.226562 102.300781 68.605469 100.378906 70.03125 C 98.457031 71.457031 96.570312 72.929688 94.71875 74.445312 C 92.871094 75.964844 91.058594 77.527344 89.285156 79.136719 C 87.511719 80.742188 85.777344 82.394531 84.085938 84.085938 C 82.394531 85.777344 80.742188 87.511719 79.136719 89.285156 C 77.527344 91.058594 75.964844 92.871094 74.445312 94.71875 C 72.929688 96.570312 71.457031 98.457031 70.03125 100.378906 C 68.605469 102.300781 67.226562 104.257812 65.898438 106.246094 C 64.566406 108.238281 63.289062 110.257812 62.058594 112.3125 C 60.828125 114.367188 59.648438 116.449219 58.519531 118.558594 C 57.390625 120.667969 56.316406 122.804688 55.292969 124.96875 C 54.269531 127.132812 53.296875 129.320312 52.382812 131.53125 C 51.464844 133.742188 50.605469 135.976562 49.800781 138.230469 C 48.992188 140.484375 48.242188 142.753906 47.546875 145.046875 C 46.851562 147.335938 46.214844 149.640625 45.632812 151.964844 C 45.050781 154.285156 44.527344 156.621094 44.058594 158.96875 C 43.59375 161.316406 43.183594 163.671875 42.832031 166.039062 C 42.480469 168.410156 42.1875 170.78125 41.953125 173.164062 C 41.71875 175.546875 41.542969 177.933594 41.425781 180.324219 C 41.308594 182.714844 41.25 185.105469 41.25 187.5 C 41.25 189.894531 41.308594 192.285156 41.425781 194.675781 C 41.542969 197.066406 41.71875 199.453125 41.953125 201.835938 C 42.1875 204.21875 42.480469 206.589844 42.832031 208.960938 C 43.183594 211.328125 43.59375 213.683594 44.058594 216.03125 C 44.527344 218.378906 45.050781 220.714844 45.632812 223.035156 C 46.214844 225.359375 46.851562 227.664062 47.546875 229.953125 C 48.242188 232.246094 48.992188 234.515625 49.800781 236.769531 C 50.605469 239.023438 51.464844 241.257812 52.382812 243.46875 C 53.296875 245.679688 54.269531 247.867188 55.292969 250.03125 C 56.316406 252.195312 57.390625 254.332031 58.519531 256.441406 C 59.648438 258.550781 60.828125 260.632812 62.058594 262.6875 C 63.289062 264.742188 64.566406 266.761719 65.898438 268.753906 C 67.226562 270.742188 68.605469 272.699219 70.03125 274.621094 C 71.457031 276.542969 72.929688 278.429688 74.445312 280.28125 C 75.964844 282.128906 77.527344 283.941406 79.136719 285.714844 C 80.742188 287.488281 82.394531 289.222656 84.085938 290.914062 C 85.777344 292.605469 87.511719 294.257812 89.285156 295.863281 C 91.058594 297.472656 92.871094 299.035156 94.71875 300.554688 C 96.570312 302.070312 98.457031 303.542969 100.378906 304.96875 C 102.300781 306.394531 104.257812 307.773438 106.246094 309.101562 C 108.238281 310.433594 110.257812 311.710938 112.3125 312.941406 C 114.367188 314.171875 116.449219 315.351562 118.558594 316.480469 C 120.667969 317.609375 122.804688 318.683594 124.96875 319.707031 C 127.132812 320.730469 129.320312 321.703125 131.53125 322.617188 C 133.742188 323.535156 135.976562 324.394531 138.230469 325.199219 C 140.484375 326.007812 142.753906 326.757812 145.046875 327.453125 C 147.335938 328.148438 149.640625 328.785156 151.964844 329.367188 C 154.285156 329.949219 156.621094 330.472656 158.96875 330.941406 C 161.316406 331.40625 163.671875 331.816406 166.039062 332.167969 C 168.410156 332.519531 170.78125 332.8125 173.164062 333.046875 C 175.546875 333.28125 177.933594 333.457031 180.324219 333.574219 C 182.714844 333.691406 185.105469 333.75 187.5 333.75 C 189.894531 333.75 192.285156 333.691406 194.675781 333.574219 C 197.066406 333.457031 199.453125 333.28125 201.835938 333.046875 C 204.21875 332.8125 206.589844 332.519531 208.960938 332.167969 C 211.328125 331.816406 213.683594 331.40625 216.03125 330.941406 C 218.378906 330.472656 220.714844 329.949219 223.035156 329.367188 C 225.359375 328.785156 227.664062 328.148438 229.953125 327.453125 C 232.246094 326.757812 234.515625 326.007812 236.769531 325.199219 C 239.023438 324.394531 241.257812 323.535156 243.46875 322.617188 C 245.679688 321.703125 247.867188 320.730469 250.03125 319.707031 C 252.195312 318.683594 254.332031 317.609375 256.441406 316.480469 C 258.550781 315.351562 260.632812 314.171875 262.6875 312.941406 C 264.742188 311.710938 266.761719 310.433594 268.753906 309.101562 C 270.742188 307.773438 272.699219 306.394531 274.621094 304.96875 C 276.542969 303.542969 278.429688 302.070312 280.28125 300.550781 C 282.128906 299.035156 283.941406 297.472656 285.714844 295.863281 C 287.488281 294.257812 289.222656 292.605469 290.914062 290.914062 C 292.605469 289.222656 294.257812 287.488281 295.863281 285.714844 C 297.472656 283.941406 299.035156 282.128906 300.554688 280.28125 C 302.070312 278.429688 303.542969 276.542969 304.96875 274.621094 C 306.394531 272.699219 307.773438 270.742188 309.101562 268.753906 C 310.433594 266.761719 311.710938 264.742188 312.941406 262.6875 C 314.171875 260.632812 315.351562 258.550781 316.480469 256.441406 C 317.609375 254.332031 318.683594 252.195312 319.707031 250.03125 C 320.730469 247.867188 321.703125 245.679688 322.617188 243.46875 C 323.535156 241.257812 324.394531 239.023438 325.199219 236.769531 C 326.007812 234.515625 326.757812 232.246094 327.453125 229.953125 C 328.148438 227.664062 328.785156 225.359375 329.367188 223.035156 C 329.949219 220.714844 330.472656 218.378906 330.941406 216.03125 C 331.40625 213.683594 331.816406 211.328125 332.167969 208.960938 C 332.519531 206.589844 332.8125 204.21875 333.046875 201.835938 C 333.28125 199.453125 333.457031 197.066406 333.574219 194.675781 C 333.691406 192.285156 333.75 189.894531 333.75 187.5 C 333.75 185.105469 333.691406 182.714844 333.574219 180.324219 C 333.457031 177.933594 333.28125 175.546875 333.046875 173.164062 C 332.8125 170.78125 332.519531 168.410156 332.167969 166.039062 C 331.816406 163.671875 331.40625 161.316406 330.941406 158.96875 C 330.472656 156.621094 329.949219 154.285156 329.367188 151.964844 C 328.785156 149.640625 328.148438 147.335938 327.453125 145.046875 C 326.757812 142.753906 326.007812 140.484375 325.199219 138.230469 C 324.394531 135.976562 323.535156 133.742188 322.617188 131.53125 C 321.703125 129.320312 320.730469 127.132812 319.707031 124.96875 C 318.683594 122.804688 317.609375 120.667969 316.480469 118.558594 C 315.351562 116.449219 314.171875 114.367188 312.941406 112.3125 C 311.710938 110.257812 310.433594 108.238281 309.101562 106.246094 C 307.773438 104.257812 306.394531 102.300781 304.96875 100.378906 C 303.542969 98.457031 302.070312 96.570312 300.554688 94.71875 C 299.035156 92.871094 297.472656 91.058594 295.863281 89.285156 C 294.257812 87.511719 292.605469 85.777344 290.914062 84.085938 C 289.222656 82.394531 287.488281 80.742188 285.714844 79.136719 C 283.941406 77.527344 282.128906 75.964844 280.28125 74.445312 C 278.429688 72.929688 276.542969 71.457031 274.621094 70.03125 C 272.699219 68.605469 270.742188 67.226562 268.753906 65.898438 C 266.761719 64.566406 264.742188 63.289062 262.6875 62.058594 C 260.632812 60.828125 258.550781 59.648438 256.441406 58.519531 C 254.332031 57.390625 252.195312 56.316406 250.03125 55.292969 C 247.867188 54.269531 245.679688 53.296875 243.46875 52.382812 C 241.257812 51.464844 239.023438 50.605469 236.769531 49.800781 C 234.515625 48.992188 232.246094 48.242188 229.953125 47.546875 C 227.664062 46.851562 225.359375 46.214844 223.035156 45.632812 C 220.714844 45.050781 218.378906 44.527344 216.03125 44.058594 C 213.683594 43.59375 211.328125 43.183594 208.960938 42.832031 C 206.589844 42.480469 204.21875 42.1875 201.835938 41.953125 C 199.453125 41.71875 197.066406 41.542969 194.675781 41.425781 C 192.285156 41.308594 189.894531 41.25 187.5 41.25 Z M 187.5 0 " fill-opacity="1" fill-rule="nonzero"/><path fill="rgb(36.079407%, 88.238525%, 90.19928%)" d="M 210.675781 1.4375 C 214.167969 1.871094 217.648438 2.40625 221.113281 3.039062 C 224.574219 3.667969 228.019531 4.398438 231.441406 5.222656 C 234.867188 6.046875 238.261719 6.96875 241.632812 7.984375 C 245.003906 9 248.34375 10.113281 251.652344 11.316406 C 254.960938 12.519531 258.234375 13.816406 261.46875 15.207031 C 264.707031 16.597656 267.898438 18.074219 271.050781 19.644531 C 274.203125 21.214844 277.308594 22.871094 280.367188 24.613281 C 283.425781 26.359375 286.433594 28.1875 289.390625 30.101562 C 292.347656 32.015625 295.246094 34.007812 298.089844 36.085938 C 300.933594 38.164062 303.714844 40.316406 306.4375 42.550781 C 309.160156 44.785156 311.816406 47.09375 314.410156 49.476562 C 317 51.859375 319.523438 54.3125 321.976562 56.839844 C 324.429688 59.363281 326.8125 61.957031 329.121094 64.617188 C 331.425781 67.277344 333.65625 70 335.8125 72.785156 C 337.964844 75.570312 340.039062 78.414062 342.035156 81.316406 C 344.027344 84.21875 345.941406 87.171875 347.765625 90.183594 C 349.59375 93.191406 351.335938 96.25 352.992188 99.359375 C 354.648438 102.46875 356.214844 105.617188 357.691406 108.816406 C 359.167969 112.011719 360.554688 115.246094 361.851562 118.519531 C 363.144531 121.792969 364.347656 125.101562 365.457031 128.445312 C 366.566406 131.785156 367.578125 135.15625 368.5 138.554688 C 369.417969 141.957031 370.242188 145.378906 370.96875 148.824219 C 371.695312 152.269531 372.324219 155.730469 372.855469 159.210938 C 373.386719 162.691406 373.816406 166.1875 374.152344 169.691406 C 374.488281 173.195312 374.722656 176.707031 374.859375 180.226562 C 374.996094 183.746094 375.03125 187.265625 374.972656 190.785156 C 374.910156 194.304688 374.75 197.820312 374.488281 201.332031 C 374.230469 204.84375 373.871094 208.347656 373.414062 211.839844 C 372.957031 215.328125 372.402344 218.804688 371.75 222.265625 C 371.097656 225.726562 370.347656 229.164062 369.5 232.582031 C 368.652344 236 367.710938 239.390625 366.671875 242.757812 C 365.636719 246.121094 364.503906 249.453125 363.277344 252.753906 C 362.054688 256.054688 360.734375 259.320312 359.328125 262.546875 C 357.917969 265.773438 356.417969 268.957031 354.828125 272.101562 C 353.242188 275.242188 351.566406 278.335938 349.800781 281.386719 C 348.039062 284.433594 346.191406 287.429688 344.257812 290.375 C 342.328125 293.316406 340.3125 296.203125 338.21875 299.035156 C 336.125 301.863281 333.953125 304.632812 331.703125 307.34375 C 329.449219 310.050781 327.125 312.691406 324.726562 315.269531 C 322.328125 317.847656 319.855469 320.355469 317.316406 322.792969 C 314.777344 325.230469 312.167969 327.59375 309.496094 329.886719 C 306.820312 332.175781 304.085938 334.390625 301.285156 336.527344 C 298.488281 338.664062 295.628906 340.71875 292.714844 342.695312 C 289.800781 344.671875 286.832031 346.5625 283.8125 348.375 C 280.792969 350.183594 277.722656 351.902344 274.601562 353.539062 C 271.484375 355.175781 268.324219 356.722656 265.117188 358.179688 C 261.914062 359.636719 258.667969 361.003906 255.386719 362.277344 C 252.105469 363.554688 248.789062 364.734375 245.441406 365.824219 C 242.089844 366.910156 238.714844 367.902344 235.308594 368.800781 C 231.90625 369.699219 228.476562 370.5 225.027344 371.207031 C 221.578125 371.910156 218.113281 372.519531 214.628906 373.027344 C 211.144531 373.535156 207.648438 373.949219 204.140625 374.261719 C 200.632812 374.574219 197.121094 374.785156 193.601562 374.902344 C 190.082031 375.015625 186.5625 375.03125 183.042969 374.945312 C 179.519531 374.863281 176.007812 374.679688 172.496094 374.398438 C 168.988281 374.117188 165.488281 373.738281 162 373.257812 C 158.511719 372.777344 155.039062 372.203125 151.582031 371.527344 C 148.125 370.851562 144.691406 370.082031 141.28125 369.214844 C 137.867188 368.347656 134.480469 367.382812 131.125 366.324219 C 127.765625 365.265625 124.441406 364.113281 121.148438 362.867188 C 117.851562 361.621094 114.597656 360.28125 111.378906 358.851562 C 108.160156 357.421875 104.988281 355.90625 101.855469 354.296875 C 98.722656 352.6875 95.636719 350.992188 92.601562 349.210938 C 89.5625 347.429688 86.578125 345.5625 83.648438 343.613281 C 80.714844 341.660156 77.839844 339.628906 75.023438 337.519531 C 72.207031 335.40625 69.453125 333.214844 66.757812 330.949219 C 64.0625 328.679688 61.4375 326.339844 58.875 323.925781 C 56.3125 321.507812 53.820312 319.023438 51.398438 316.46875 C 48.976562 313.910156 46.628906 311.289062 44.355469 308.601562 C 42.078125 305.914062 39.882812 303.164062 37.765625 300.351562 C 35.644531 297.539062 33.605469 294.667969 31.648438 291.742188 C 29.691406 288.816406 27.816406 285.835938 26.027344 282.804688 C 24.238281 279.769531 22.535156 276.691406 20.917969 273.5625 C 19.300781 270.433594 17.773438 267.261719 16.335938 264.046875 C 14.898438 260.835938 13.554688 257.582031 12.300781 254.292969 C 11.046875 251 9.886719 247.679688 8.816406 244.324219 C 7.75 240.96875 6.777344 237.585938 5.902344 234.175781 C 5.027344 230.765625 4.246094 227.332031 3.5625 223.878906 C 2.878906 220.421875 2.292969 216.953125 1.804688 213.464844 C 1.320312 209.980469 0.929688 206.480469 0.640625 202.972656 C 0.347656 199.460938 0.15625 195.949219 0.0664062 192.425781 C -0.0273438 188.90625 -0.0195312 185.386719 0.0859375 181.867188 C 0.191406 178.347656 0.394531 174.835938 0.699219 171.328125 C 1.003906 167.820312 1.40625 164.324219 1.90625 160.835938 C 2.40625 157.351562 3.003906 153.882812 3.699219 150.429688 C 4.398438 146.980469 5.191406 143.550781 6.078125 140.144531 C 6.96875 136.738281 7.953125 133.359375 9.03125 130.007812 C 10.113281 126.65625 11.285156 123.335938 12.550781 120.050781 C 13.820312 116.765625 15.175781 113.519531 16.625 110.308594 C 18.074219 107.101562 19.613281 103.933594 21.242188 100.8125 C 22.871094 97.691406 24.585938 94.617188 26.386719 91.589844 C 28.1875 88.566406 30.070312 85.59375 32.039062 82.671875 C 34.007812 79.753906 36.058594 76.890625 38.1875 74.089844 C 40.316406 71.285156 42.523438 68.542969 44.808594 65.863281 C 47.09375 63.183594 49.453125 60.570312 51.882812 58.023438 C 54.316406 55.476562 56.816406 53 59.386719 50.59375 C 59.878906 50.132812 60.394531 49.695312 60.929688 49.285156 C 61.46875 48.871094 62.023438 48.488281 62.59375 48.132812 C 63.167969 47.773438 63.757812 47.445312 64.367188 47.148438 C 64.972656 46.847656 65.589844 46.582031 66.222656 46.34375 C 66.855469 46.105469 67.5 45.898438 68.152344 45.722656 C 68.804688 45.550781 69.464844 45.40625 70.128906 45.296875 C 70.796875 45.1875 71.46875 45.109375 72.140625 45.066406 C 72.816406 45.019531 73.492188 45.011719 74.164062 45.03125 C 74.839844 45.054688 75.511719 45.109375 76.183594 45.199219 C 76.851562 45.285156 77.515625 45.40625 78.175781 45.5625 C 78.832031 45.714844 79.480469 45.902344 80.121094 46.117188 C 80.761719 46.335938 81.390625 46.582031 82.003906 46.863281 C 82.621094 47.140625 83.21875 47.449219 83.804688 47.789062 C 84.390625 48.125 84.957031 48.492188 85.507812 48.886719 C 86.054688 49.28125 86.585938 49.699219 87.09375 50.144531 C 87.601562 50.589844 88.085938 51.0625 88.546875 51.554688 C 89.007812 52.046875 89.445312 52.5625 89.855469 53.097656 C 90.265625 53.636719 90.652344 54.191406 91.007812 54.765625 C 91.363281 55.339844 91.691406 55.929688 91.988281 56.535156 C 92.289062 57.140625 92.554688 57.761719 92.792969 58.390625 C 93.03125 59.023438 93.238281 59.667969 93.414062 60.320312 C 93.585938 60.972656 93.730469 61.632812 93.839844 62.300781 C 93.949219 62.964844 94.023438 63.636719 94.070312 64.3125 C 94.113281 64.984375 94.121094 65.660156 94.101562 66.335938 C 94.078125 67.011719 94.023438 67.683594 93.933594 68.351562 C 93.84375 69.023438 93.722656 69.6875 93.570312 70.34375 C 93.414062 71.003906 93.230469 71.652344 93.011719 72.292969 C 92.792969 72.929688 92.546875 73.558594 92.265625 74.175781 C 91.988281 74.789062 91.679688 75.390625 91.339844 75.972656 C 91 76.558594 90.636719 77.125 90.242188 77.675781 C 89.847656 78.222656 89.425781 78.75 88.980469 79.257812 C 88.535156 79.765625 88.066406 80.25 87.570312 80.714844 C 85.566406 82.589844 83.617188 84.519531 81.71875 86.507812 C 79.824219 88.496094 77.984375 90.53125 76.203125 92.621094 C 74.417969 94.710938 72.699219 96.851562 71.035156 99.039062 C 69.375 101.226562 67.777344 103.457031 66.242188 105.734375 C 64.707031 108.011719 63.234375 110.332031 61.832031 112.691406 C 60.425781 115.050781 59.089844 117.449219 57.820312 119.882812 C 56.550781 122.320312 55.347656 124.789062 54.21875 127.292969 C 53.085938 129.792969 52.027344 132.328125 51.039062 134.890625 C 50.050781 137.453125 49.136719 140.039062 48.296875 142.65625 C 47.453125 145.269531 46.683594 147.90625 45.992188 150.5625 C 45.296875 153.21875 44.679688 155.894531 44.136719 158.585938 C 43.59375 161.277344 43.125 163.984375 42.734375 166.703125 C 42.34375 169.421875 42.03125 172.148438 41.796875 174.886719 C 41.558594 177.621094 41.398438 180.363281 41.316406 183.109375 C 41.234375 185.851562 41.226562 188.597656 41.300781 191.34375 C 41.371094 194.089844 41.523438 196.832031 41.75 199.566406 C 41.976562 202.304688 42.277344 205.035156 42.660156 207.753906 C 43.039062 210.472656 43.496094 213.179688 44.027344 215.875 C 44.5625 218.570312 45.171875 221.246094 45.855469 223.90625 C 46.539062 226.566406 47.296875 229.207031 48.128906 231.824219 C 48.960938 234.441406 49.867188 237.03125 50.84375 239.597656 C 51.824219 242.164062 52.871094 244.699219 53.992188 247.207031 C 55.113281 249.714844 56.304688 252.1875 57.566406 254.628906 C 58.828125 257.070312 60.15625 259.472656 61.550781 261.835938 C 62.949219 264.203125 64.410156 266.527344 65.9375 268.808594 C 67.460938 271.09375 69.050781 273.332031 70.707031 275.523438 C 72.359375 277.71875 74.070312 279.863281 75.847656 281.957031 C 77.621094 284.054688 79.453125 286.101562 81.339844 288.09375 C 83.230469 290.089844 85.171875 292.027344 87.171875 293.910156 C 89.171875 295.796875 91.21875 297.621094 93.320312 299.390625 C 95.421875 301.160156 97.570312 302.867188 99.769531 304.515625 C 101.964844 306.160156 104.207031 307.746094 106.496094 309.265625 C 108.78125 310.789062 111.109375 312.246094 113.480469 313.632812 C 115.847656 315.023438 118.253906 316.347656 120.695312 317.601562 C 123.140625 318.855469 125.617188 320.039062 128.125 321.15625 C 130.636719 322.269531 133.175781 323.3125 135.746094 324.285156 C 138.3125 325.257812 140.90625 326.15625 143.527344 326.984375 C 146.144531 327.808594 148.785156 328.558594 151.449219 329.238281 C 154.109375 329.914062 156.789062 330.515625 159.484375 331.042969 C 162.179688 331.566406 164.886719 332.015625 167.609375 332.390625 C 170.332031 332.765625 173.058594 333.0625 175.796875 333.28125 C 178.535156 333.5 181.277344 333.644531 184.023438 333.707031 C 186.769531 333.773438 189.511719 333.761719 192.257812 333.671875 C 195.003906 333.582031 197.742188 333.417969 200.480469 333.171875 C 203.214844 332.929688 205.941406 332.609375 208.660156 332.210938 C 211.378906 331.8125 214.082031 331.339844 216.773438 330.789062 C 219.464844 330.242188 222.136719 329.617188 224.792969 328.914062 C 227.449219 328.214844 230.082031 327.441406 232.695312 326.59375 C 235.304688 325.742188 237.890625 324.820312 240.453125 323.828125 C 243.011719 322.832031 245.542969 321.765625 248.042969 320.628906 C 250.542969 319.492188 253.007812 318.285156 255.441406 317.011719 C 257.871094 315.734375 260.265625 314.390625 262.625 312.980469 C 264.980469 311.570312 267.296875 310.09375 269.570312 308.554688 C 271.839844 307.011719 274.070312 305.40625 276.253906 303.742188 C 278.4375 302.074219 280.570312 300.347656 282.65625 298.5625 C 284.742188 296.773438 286.773438 294.929688 288.757812 293.027344 C 290.738281 291.125 292.664062 289.171875 294.535156 287.160156 C 296.410156 285.148438 298.222656 283.089844 299.976562 280.976562 C 301.734375 278.863281 303.425781 276.703125 305.0625 274.496094 C 306.695312 272.289062 308.265625 270.039062 309.773438 267.742188 C 311.277344 265.445312 312.71875 263.109375 314.09375 260.730469 C 315.46875 258.351562 316.777344 255.9375 318.015625 253.488281 C 319.257812 251.035156 320.425781 248.554688 321.523438 246.035156 C 322.625 243.519531 323.652344 240.972656 324.605469 238.398438 C 325.5625 235.824219 326.445312 233.222656 327.253906 230.597656 C 328.0625 227.976562 328.800781 225.328125 329.460938 222.664062 C 330.121094 219.996094 330.703125 217.316406 331.214844 214.617188 C 331.722656 211.917969 332.15625 209.207031 332.511719 206.484375 C 332.871094 203.761719 333.148438 201.027344 333.351562 198.289062 C 333.554688 195.550781 333.679688 192.808594 333.726562 190.0625 C 333.777344 187.316406 333.746094 184.570312 333.640625 181.828125 C 333.535156 179.082031 333.351562 176.34375 333.089844 173.609375 C 332.828125 170.875 332.492188 168.152344 332.074219 165.433594 C 331.660156 162.71875 331.171875 160.019531 330.605469 157.332031 C 330.039062 154.644531 329.394531 151.976562 328.679688 149.324219 C 327.960938 146.671875 327.171875 144.042969 326.304688 141.4375 C 325.441406 138.828125 324.503906 136.25 323.492188 133.695312 C 322.484375 131.140625 321.402344 128.617188 320.25 126.125 C 319.097656 123.632812 317.875 121.175781 316.582031 118.75 C 315.292969 116.324219 313.933594 113.941406 312.507812 111.59375 C 311.082031 109.246094 309.59375 106.9375 308.039062 104.675781 C 306.480469 102.410156 304.863281 100.195312 303.183594 98.023438 C 301.503906 95.847656 299.761719 93.726562 297.964844 91.652344 C 296.164062 89.578125 294.304688 87.554688 292.390625 85.585938 C 290.476562 83.613281 288.511719 81.699219 286.488281 79.839844 C 284.46875 77.984375 282.394531 76.183594 280.269531 74.441406 C 278.148438 72.699219 275.976562 71.015625 273.757812 69.398438 C 271.542969 67.777344 269.28125 66.222656 266.972656 64.726562 C 264.667969 63.234375 262.324219 61.808594 259.9375 60.449219 C 257.550781 59.089844 255.128906 57.796875 252.671875 56.574219 C 250.210938 55.347656 247.71875 54.195312 245.195312 53.113281 C 242.671875 52.027344 240.121094 51.015625 237.539062 50.078125 C 234.957031 49.136719 232.355469 48.269531 229.722656 47.476562 C 227.09375 46.683594 224.445312 45.964844 221.773438 45.324219 C 219.105469 44.679688 216.417969 44.113281 213.71875 43.617188 C 211.015625 43.125 208.300781 42.710938 205.574219 42.371094 C 204.90625 42.289062 204.242188 42.171875 203.582031 42.023438 C 202.921875 41.875 202.273438 41.695312 201.632812 41.480469 C 200.992188 41.269531 200.363281 41.023438 199.746094 40.75 C 199.128906 40.476562 198.523438 40.171875 197.9375 39.835938 C 197.351562 39.503906 196.78125 39.144531 196.230469 38.753906 C 195.675781 38.363281 195.144531 37.949219 194.632812 37.503906 C 194.125 37.0625 193.636719 36.597656 193.171875 36.109375 C 192.707031 35.617188 192.265625 35.105469 191.851562 34.574219 C 191.433594 34.042969 191.046875 33.488281 190.6875 32.917969 C 190.324219 32.347656 189.996094 31.757812 189.691406 31.15625 C 189.386719 30.550781 189.117188 29.933594 188.875 29.304688 C 188.628906 28.671875 188.421875 28.03125 188.242188 27.382812 C 188.0625 26.730469 187.914062 26.070312 187.800781 25.40625 C 187.683594 24.742188 187.601562 24.070312 187.554688 23.398438 C 187.503906 22.722656 187.488281 22.050781 187.507812 21.375 C 187.523438 20.699219 187.574219 20.027344 187.65625 19.355469 C 187.742188 18.683594 187.859375 18.019531 188.007812 17.363281 C 188.15625 16.703125 188.335938 16.050781 188.546875 15.410156 C 188.761719 14.769531 189.003906 14.140625 189.28125 13.523438 C 189.554688 12.90625 189.859375 12.304688 190.191406 11.71875 C 190.523438 11.128906 190.886719 10.558594 191.277344 10.007812 C 191.667969 9.457031 192.082031 8.925781 192.523438 8.414062 C 192.964844 7.902344 193.429688 7.414062 193.921875 6.949219 C 194.410156 6.484375 194.921875 6.042969 195.457031 5.628906 C 195.988281 5.214844 196.539062 4.828125 197.113281 4.464844 C 197.683594 4.105469 198.269531 3.773438 198.875 3.46875 C 199.476562 3.167969 200.09375 2.894531 200.726562 2.652344 C 201.355469 2.410156 201.996094 2.199219 202.648438 2.019531 C 203.300781 1.839844 203.957031 1.695312 204.625 1.578125 C 205.289062 1.464844 205.957031 1.382812 206.632812 1.332031 C 207.304688 1.285156 207.980469 1.269531 208.65625 1.285156 C 209.332031 1.304688 210.003906 1.355469 210.675781 1.4375 Z M 210.675781 1.4375 " fill-opacity="1" fill-rule="nonzero"/><g clip-path="url(#id1)"><path fill="rgb(0.779724%, 46.669006%, 74.119568%)" d="M 254.605469 112.5 L 120.394531 112.5 L 132.238281 246.710938 L 187.5 262.5 L 242.761719 246.710938 Z M 254.605469 112.5 " fill-opacity="1" fill-rule="nonzero"/></g><path fill="rgb(1.179504%, 60.778809%, 89.7995%)" d="M 187.5 124.34375 L 187.5 250.261719 L 231.710938 237.632812 L 241.578125 124.34375 Z M 187.5 124.34375 " fill-opacity="1" fill-rule="nonzero"/><path fill="rgb(100%, 100%, 100%)" d="M 223.421875 144.078125 L 187.5 144.078125 L 187.5 159.867188 L 206.84375 159.867188 L 205.65625 175.65625 L 187.5 175.65625 L 187.5 191.449219 L 204.867188 191.449219 L 203.683594 209.210938 L 187.5 214.738281 L 187.5 231.316406 L 218.683594 221.050781 L 221.449219 175.65625 Z M 223.421875 144.078125 " fill-opacity="1" fill-rule="nonzero"/><path fill="rgb(93.328857%, 93.328857%, 93.328857%)" d="M 187.5 144.078125 L 187.5 159.867188 L 152.367188 159.867188 L 151.183594 144.078125 Z M 169.34375 175.65625 L 170.132812 191.449219 L 187.5 191.449219 L 187.5 175.65625 Z M 170.921875 199.34375 L 155.132812 199.34375 L 156.316406 221.050781 L 187.5 231.316406 L 187.5 214.738281 L 171.316406 209.210938 Z M 170.921875 199.34375 " fill-opacity="1" fill-rule="nonzero"/></svg>