<svg xmlns="http://www.w3.org/2000/svg" xmlns:xlink="http://www.w3.org/1999/xlink" width="500" zoomAndPan="magnify" viewBox="0 0 375 374.999991" height="500" preserveAspectRatio="xMidYMid meet" version="1.0"><defs><clipPath id="id1"><path d="M 137.53125 212 L 188 212 L 188 262.5 L 137.53125 262.5 Z M 137.53125 212 " clip-rule="nonzero"/></clipPath><clipPath id="id2"><path d="M 137.53125 162 L 188 162 L 188 213 L 137.53125 213 Z M 137.53125 162 " clip-rule="nonzero"/></clipPath><clipPath id="id3"><path d="M 137.53125 112.5 L 188 112.5 L 188 163 L 137.53125 163 Z M 137.53125 112.5 " clip-rule="nonzero"/></clipPath><clipPath id="id4"><path d="M 187 112.5 L 237.28125 112.5 L 237.28125 163 L 187 163 Z M 187 112.5 " clip-rule="nonzero"/></clipPath><clipPath id="id5"><path d="M 187 162 L 237.28125 162 L 237.28125 213 L 187 213 Z M 187 162 " clip-rule="nonzero"/></clipPath></defs><path fill="rgb(65.098572%, 65.098572%, 65.098572%)" d="M 187.5 0 C 190.570312 0 193.636719 0.0742188 196.699219 0.226562 C 199.765625 0.375 202.824219 0.601562 205.878906 0.902344 C 208.933594 1.203125 211.976562 1.578125 215.011719 2.03125 C 218.046875 2.480469 221.070312 3.003906 224.078125 3.601562 C 227.089844 4.203125 230.082031 4.875 233.058594 5.617188 C 236.035156 6.363281 238.992188 7.183594 241.929688 8.074219 C 244.863281 8.964844 247.777344 9.925781 250.667969 10.960938 C 253.554688 11.996094 256.417969 13.097656 259.253906 14.273438 C 262.089844 15.445312 264.890625 16.691406 267.667969 18.003906 C 270.441406 19.3125 273.179688 20.691406 275.886719 22.140625 C 278.59375 23.585938 281.261719 25.097656 283.894531 26.675781 C 286.527344 28.253906 289.117188 29.894531 291.667969 31.597656 C 294.222656 33.304688 296.730469 35.070312 299.195312 36.898438 C 301.660156 38.726562 304.078125 40.613281 306.449219 42.558594 C 308.820312 44.507812 311.144531 46.511719 313.417969 48.570312 C 315.691406 50.632812 317.914062 52.746094 320.082031 54.917969 C 322.253906 57.085938 324.367188 59.308594 326.429688 61.582031 C 328.488281 63.855469 330.492188 66.179688 332.4375 68.550781 C 334.386719 70.921875 336.273438 73.339844 338.101562 75.804688 C 339.929688 78.269531 341.695312 80.777344 343.402344 83.332031 C 345.105469 85.882812 346.746094 88.472656 348.324219 91.105469 C 349.902344 93.738281 351.414062 96.40625 352.859375 99.113281 C 354.308594 101.820312 355.6875 104.558594 356.996094 107.332031 C 358.308594 110.105469 359.554688 112.910156 360.726562 115.746094 C 361.902344 118.582031 363.003906 121.445312 364.039062 124.332031 C 365.074219 127.222656 366.035156 130.136719 366.925781 133.070312 C 367.816406 136.007812 368.636719 138.964844 369.378906 141.941406 C 370.125 144.917969 370.796875 147.910156 371.398438 150.921875 C 371.996094 153.929688 372.519531 156.953125 372.96875 159.988281 C 373.421875 163.023438 373.796875 166.066406 374.097656 169.121094 C 374.398438 172.175781 374.625 175.234375 374.773438 178.300781 C 374.925781 181.363281 375 184.429688 375 187.5 C 375 190.570312 374.925781 193.636719 374.773438 196.699219 C 374.625 199.765625 374.398438 202.824219 374.097656 205.878906 C 373.796875 208.933594 373.421875 211.976562 372.96875 215.011719 C 372.519531 218.046875 371.996094 221.070312 371.398438 224.078125 C 370.796875 227.089844 370.125 230.082031 369.378906 233.058594 C 368.636719 236.035156 367.816406 238.992188 366.925781 241.929688 C 366.035156 244.863281 365.074219 247.777344 364.039062 250.667969 C 363.003906 253.554688 361.902344 256.417969 360.726562 259.253906 C 359.554688 262.089844 358.308594 264.890625 356.996094 267.667969 C 355.6875 270.441406 354.308594 273.179688 352.859375 275.886719 C 351.414062 278.59375 349.902344 281.261719 348.324219 283.894531 C 346.746094 286.527344 345.105469 289.117188 343.402344 291.667969 C 341.695312 294.222656 339.929688 296.730469 338.101562 299.195312 C 336.273438 301.660156 334.386719 304.078125 332.4375 306.449219 C 330.492188 308.820312 328.488281 311.144531 326.429688 313.417969 C 324.367188 315.691406 322.253906 317.914062 320.082031 320.082031 C 317.914062 322.253906 315.691406 324.367188 313.417969 326.429688 C 311.144531 328.488281 308.820312 330.492188 306.449219 332.4375 C 304.078125 334.386719 301.660156 336.273438 299.195312 338.101562 C 296.730469 339.929688 294.222656 341.695312 291.667969 343.402344 C 289.117188 345.105469 286.527344 346.746094 283.894531 348.324219 C 281.261719 349.902344 278.59375 351.414062 275.886719 352.859375 C 273.179688 354.308594 270.441406 355.6875 267.667969 356.996094 C 264.890625 358.308594 262.089844 359.554688 259.253906 360.726562 C 256.417969 361.902344 253.554688 363.003906 250.667969 364.039062 C 247.777344 365.074219 244.863281 366.035156 241.929688 366.925781 C 238.992188 367.816406 236.035156 368.636719 233.058594 369.378906 C 230.082031 370.125 227.089844 370.796875 224.078125 371.398438 C 221.070312 371.996094 218.046875 372.519531 215.011719 372.96875 C 211.976562 373.421875 208.933594 373.796875 205.878906 374.097656 C 202.824219 374.398438 199.765625 374.625 196.699219 374.773438 C 193.636719 374.925781 190.570312 375 187.5 375 C 184.429688 375 181.363281 374.925781 178.300781 374.773438 C 175.234375 374.625 172.175781 374.398438 169.121094 374.097656 C 166.066406 373.796875 163.023438 373.421875 159.988281 372.96875 C 156.953125 372.519531 153.929688 371.996094 150.921875 371.398438 C 147.910156 370.796875 144.917969 370.125 141.941406 369.378906 C 138.964844 368.636719 136.007812 367.816406 133.070312 366.925781 C 130.136719 366.035156 127.222656 365.074219 124.332031 364.039062 C 121.445312 363.003906 118.582031 361.902344 115.746094 360.726562 C 112.910156 359.554688 110.105469 358.308594 107.332031 356.996094 C 104.558594 355.6875 101.820312 354.308594 99.113281 352.859375 C 96.40625 351.414062 93.738281 349.902344 91.105469 348.324219 C 88.472656 346.746094 85.882812 345.105469 83.332031 343.402344 C 80.777344 341.695312 78.269531 339.929688 75.804688 338.101562 C 73.339844 336.273438 70.921875 334.386719 68.550781 332.4375 C 66.179688 330.492188 63.855469 328.488281 61.582031 326.429688 C 59.308594 324.367188 57.085938 322.253906 54.917969 320.082031 C 52.746094 317.914062 50.632812 315.691406 48.570312 313.417969 C 46.511719 311.144531 44.507812 308.820312 42.558594 306.449219 C 40.613281 304.078125 38.726562 301.660156 36.898438 299.195312 C 35.070312 296.730469 33.304688 294.222656 31.597656 291.667969 C 29.894531 289.117188 28.253906 286.527344 26.675781 283.894531 C 25.097656 281.261719 23.585938 278.59375 22.140625 275.886719 C 20.691406 273.179688 19.3125 270.441406 18.003906 267.667969 C 16.691406 264.890625 15.445312 262.089844 14.273438 259.253906 C 13.097656 256.417969 11.996094 253.554688 10.960938 250.667969 C 9.925781 247.777344 8.964844 244.863281 8.074219 241.929688 C 7.183594 238.992188 6.363281 236.035156 5.621094 233.058594 C 4.875 230.082031 4.203125 227.089844 3.601562 224.078125 C 3.003906 221.070312 2.480469 218.046875 2.03125 215.011719 C 1.578125 211.976562 1.203125 208.933594 0.902344 205.878906 C 0.601562 202.824219 0.375 199.765625 0.226562 196.699219 C 0.0742188 193.636719 0 190.570312 0 187.5 C 0 184.429688 0.0742188 181.363281 0.226562 178.300781 C 0.375 175.234375 0.601562 172.175781 0.902344 169.121094 C 1.203125 166.066406 1.578125 163.023438 2.03125 159.988281 C 2.480469 156.953125 3.003906 153.929688 3.601562 150.921875 C 4.203125 147.910156 4.875 144.917969 5.621094 141.941406 C 6.363281 138.964844 7.183594 136.007812 8.074219 133.070312 C 8.964844 130.136719 9.925781 127.222656 10.960938 124.332031 C 11.996094 121.445312 13.097656 118.582031 14.273438 115.746094 C 15.445312 112.910156 16.691406 110.105469 18.003906 107.332031 C 19.3125 104.558594 20.691406 101.820312 22.140625 99.113281 C 23.585938 96.40625 25.097656 93.738281 26.675781 91.105469 C 28.253906 88.472656 29.894531 85.882812 31.597656 83.332031 C 33.304688 80.777344 35.070312 78.269531 36.898438 75.804688 C 38.726562 73.339844 40.613281 70.921875 42.558594 68.550781 C 44.507812 66.179688 46.511719 63.855469 48.570312 61.582031 C 50.632812 59.308594 52.746094 57.085938 54.917969 54.917969 C 57.085938 52.746094 59.308594 50.632812 61.582031 48.570312 C 63.855469 46.511719 66.179688 44.507812 68.550781 42.558594 C 70.921875 40.613281 73.339844 38.726562 75.804688 36.898438 C 78.269531 35.070312 80.777344 33.304688 83.332031 31.597656 C 85.882812 29.894531 88.472656 28.253906 91.105469 26.675781 C 93.738281 25.097656 96.40625 23.585938 99.113281 22.140625 C 101.820312 20.691406 104.558594 19.3125 107.332031 18.003906 C 110.105469 16.691406 112.910156 15.445312 115.746094 14.273438 C 118.582031 13.097656 121.445312 11.996094 124.332031 10.960938 C 127.222656 9.925781 130.136719 8.964844 133.070312 8.074219 C 136.007812 7.183594 138.964844 6.363281 141.941406 5.617188 C 144.917969 4.875 147.910156 4.203125 150.921875 3.601562 C 153.929688 3.003906 156.953125 2.480469 159.988281 2.03125 C 163.023438 1.578125 166.066406 1.203125 169.121094 0.902344 C 172.175781 0.601562 175.234375 0.375 178.300781 0.226562 C 181.363281 0.0742188 184.429688 0 187.5 0 L 187.5 41.25 C 185.105469 41.25 182.714844 41.308594 180.324219 41.425781 C 177.933594 41.542969 175.546875 41.71875 173.164062 41.953125 C 170.78125 42.1875 168.410156 42.480469 166.039062 42.832031 C 163.671875 43.183594 161.316406 43.59375 158.96875 44.058594 C 156.621094 44.527344 154.285156 45.050781 151.964844 45.632812 C 149.640625 46.214844 147.335938 46.851562 145.046875 47.546875 C 142.753906 48.242188 140.484375 48.992188 138.230469 49.800781 C 135.976562 50.605469 133.742188 51.464844 131.53125 52.382812 C 129.320312 53.296875 127.132812 54.269531 124.96875 55.292969 C 122.804688 56.316406 120.667969 57.390625 118.558594 58.519531 C 116.449219 59.648438 114.367188 60.828125 112.3125 62.058594 C 110.257812 63.289062 108.238281 64.566406 106.246094 65.898438 C 104.257812 67.226562 102.300781 68.605469 100.378906 70.03125 C 98.457031 71.457031 96.570312 72.929688 94.71875 74.445312 C 92.871094 75.964844 91.058594 77.527344 89.285156 79.136719 C 87.511719 80.742188 85.777344 82.394531 84.085938 84.085938 C 82.394531 85.777344 80.742188 87.511719 79.136719 89.285156 C 77.527344 91.058594 75.964844 92.871094 74.445312 94.71875 C 72.929688 96.570312 71.457031 98.457031 70.03125 100.378906 C 68.605469 102.300781 67.226562 104.257812 65.898438 106.246094 C 64.566406 108.238281 63.289062 110.257812 62.058594 112.3125 C 60.828125 114.367188 59.648438 116.449219 58.519531 118.558594 C 57.390625 120.667969 56.316406 122.804688 55.292969 124.96875 C 54.269531 127.132812 53.296875 129.320312 52.382812 131.53125 C 51.464844 133.742188 50.605469 135.976562 49.800781 138.230469 C 48.992188 140.484375 48.242188 142.753906 47.546875 145.046875 C 46.851562 147.335938 46.214844 149.640625 45.632812 151.964844 C 45.050781 154.285156 44.527344 156.621094 44.058594 158.96875 C 43.59375 161.316406 43.183594 163.671875 42.832031 166.039062 C 42.480469 168.410156 42.1875 170.78125 41.953125 173.164062 C 41.71875 175.546875 41.542969 177.933594 41.425781 180.324219 C 41.308594 182.714844 41.25 185.105469 41.25 187.5 C 41.25 189.894531 41.308594 192.285156 41.425781 194.675781 C 41.542969 197.066406 41.71875 199.453125 41.953125 201.835938 C 42.1875 204.21875 42.480469 206.589844 42.832031 208.960938 C 43.183594 211.328125 43.59375 213.683594 44.058594 216.03125 C 44.527344 218.378906 45.050781 220.714844 45.632812 223.035156 C 46.214844 225.359375 46.851562 227.664062 47.546875 229.953125 C 48.242188 232.246094 48.992188 234.515625 49.800781 236.769531 C 50.605469 239.023438 51.464844 241.257812 52.382812 243.46875 C 53.296875 245.679688 54.269531 247.867188 55.292969 250.03125 C 56.316406 252.195312 57.390625 254.332031 58.519531 256.441406 C 59.648438 258.550781 60.828125 260.632812 62.058594 262.6875 C 63.289062 264.742188 64.566406 266.761719 65.898438 268.753906 C 67.226562 270.742188 68.605469 272.699219 70.03125 274.621094 C 71.457031 276.542969 72.929688 278.429688 74.445312 280.28125 C 75.964844 282.128906 77.527344 283.941406 79.136719 285.714844 C 80.742188 287.488281 82.394531 289.222656 84.085938 290.914062 C 85.777344 292.605469 87.511719 294.257812 89.285156 295.863281 C 91.058594 297.472656 92.871094 299.035156 94.71875 300.554688 C 96.570312 302.070312 98.457031 303.542969 100.378906 304.96875 C 102.300781 306.394531 104.257812 307.773438 106.246094 309.101562 C 108.238281 310.433594 110.257812 311.710938 112.3125 312.941406 C 114.367188 314.171875 116.449219 315.351562 118.558594 316.480469 C 120.667969 317.609375 122.804688 318.683594 124.96875 319.707031 C 127.132812 320.730469 129.320312 321.703125 131.53125 322.617188 C 133.742188 323.535156 135.976562 324.394531 138.230469 325.199219 C 140.484375 326.007812 142.753906 326.757812 145.046875 327.453125 C 147.335938 328.148438 149.640625 328.785156 151.964844 329.367188 C 154.285156 329.949219 156.621094 330.472656 158.96875 330.941406 C 161.316406 331.40625 163.671875 331.816406 166.039062 332.167969 C 168.410156 332.519531 170.78125 332.8125 173.164062 333.046875 C 175.546875 333.28125 177.933594 333.457031 180.324219 333.574219 C 182.714844 333.691406 185.105469 333.75 187.5 333.75 C 189.894531 333.75 192.285156 333.691406 194.675781 333.574219 C 197.066406 333.457031 199.453125 333.28125 201.835938 333.046875 C 204.21875 332.8125 206.589844 332.519531 208.960938 332.167969 C 211.328125 331.816406 213.683594 331.40625 216.03125 330.941406 C 218.378906 330.472656 220.714844 329.949219 223.035156 329.367188 C 225.359375 328.785156 227.664062 328.148438 229.953125 327.453125 C 232.246094 326.757812 234.515625 326.007812 236.769531 325.199219 C 239.023438 324.394531 241.257812 323.535156 243.46875 322.617188 C 245.679688 321.703125 247.867188 320.730469 250.03125 319.707031 C 252.195312 318.683594 254.332031 317.609375 256.441406 316.480469 C 258.550781 315.351562 260.632812 314.171875 262.6875 312.941406 C 264.742188 311.710938 266.761719 310.433594 268.753906 309.101562 C 270.742188 307.773438 272.699219 306.394531 274.621094 304.96875 C 276.542969 303.542969 278.429688 302.070312 280.28125 300.550781 C 282.128906 299.035156 283.941406 297.472656 285.714844 295.863281 C 287.488281 294.257812 289.222656 292.605469 290.914062 290.914062 C 292.605469 289.222656 294.257812 287.488281 295.863281 285.714844 C 297.472656 283.941406 299.035156 282.128906 300.554688 280.28125 C 302.070312 278.429688 303.542969 276.542969 304.96875 274.621094 C 306.394531 272.699219 307.773438 270.742188 309.101562 268.753906 C 310.433594 266.761719 311.710938 264.742188 312.941406 262.6875 C 314.171875 260.632812 315.351562 258.550781 316.480469 256.441406 C 317.609375 254.332031 318.683594 252.195312 319.707031 250.03125 C 320.730469 247.867188 321.703125 245.679688 322.617188 243.46875 C 323.535156 241.257812 324.394531 239.023438 325.199219 236.769531 C 326.007812 234.515625 326.757812 232.246094 327.453125 229.953125 C 328.148438 227.664062 328.785156 225.359375 329.367188 223.035156 C 329.949219 220.714844 330.472656 218.378906 330.941406 216.03125 C 331.40625 213.683594 331.816406 211.328125 332.167969 208.960938 C 332.519531 206.589844 332.8125 204.21875 333.046875 201.835938 C 333.28125 199.453125 333.457031 197.066406 333.574219 194.675781 C 333.691406 192.285156 333.75 189.894531 333.75 187.5 C 333.75 185.105469 333.691406 182.714844 333.574219 180.324219 C 333.457031 177.933594 333.28125 175.546875 333.046875 173.164062 C 332.8125 170.78125 332.519531 168.410156 332.167969 166.039062 C 331.816406 163.671875 331.40625 161.316406 330.941406 158.96875 C 330.472656 156.621094 329.949219 154.285156 329.367188 151.964844 C 328.785156 149.640625 328.148438 147.335938 327.453125 145.046875 C 326.757812 142.753906 326.007812 140.484375 325.199219 138.230469 C 324.394531 135.976562 323.535156 133.742188 322.617188 131.53125 C 321.703125 129.320312 320.730469 127.132812 319.707031 124.96875 C 318.683594 122.804688 317.609375 120.667969 316.480469 118.558594 C 315.351562 116.449219 314.171875 114.367188 312.941406 112.3125 C 311.710938 110.257812 310.433594 108.238281 309.101562 106.246094 C 307.773438 104.257812 306.394531 102.300781 304.96875 100.378906 C 303.542969 98.457031 302.070312 96.570312 300.554688 94.71875 C 299.035156 92.871094 297.472656 91.058594 295.863281 89.285156 C 294.257812 87.511719 292.605469 85.777344 290.914062 84.085938 C 289.222656 82.394531 287.488281 80.742188 285.714844 79.136719 C 283.941406 77.527344 282.128906 75.964844 280.28125 74.445312 C 278.429688 72.929688 276.542969 71.457031 274.621094 70.03125 C 272.699219 68.605469 270.742188 67.226562 268.753906 65.898438 C 266.761719 64.566406 264.742188 63.289062 262.6875 62.058594 C 260.632812 60.828125 258.550781 59.648438 256.441406 58.519531 C 254.332031 57.390625 252.195312 56.316406 250.03125 55.292969 C 247.867188 54.269531 245.679688 53.296875 243.46875 52.382812 C 241.257812 51.464844 239.023438 50.605469 236.769531 49.800781 C 234.515625 48.992188 232.246094 48.242188 229.953125 47.546875 C 227.664062 46.851562 225.359375 46.214844 223.035156 45.632812 C 220.714844 45.050781 218.378906 44.527344 216.03125 44.058594 C 213.683594 43.59375 211.328125 43.183594 208.960938 42.832031 C 206.589844 42.480469 204.21875 42.1875 201.835938 41.953125 C 199.453125 41.71875 197.066406 41.542969 194.675781 41.425781 C 192.285156 41.308594 189.894531 41.25 187.5 41.25 Z M 187.5 0 " fill-opacity="1" fill-rule="nonzero"/><path fill="rgb(36.079407%, 88.238525%, 90.19928%)" d="M 210.675781 1.4375 C 214.210938 1.878906 217.730469 2.417969 221.234375 3.058594 C 224.742188 3.699219 228.226562 4.441406 231.6875 5.28125 C 235.148438 6.121094 238.585938 7.058594 241.996094 8.09375 C 245.40625 9.128906 248.78125 10.261719 252.128906 11.488281 C 255.472656 12.71875 258.78125 14.039062 262.050781 15.457031 C 265.316406 16.875 268.542969 18.382812 271.726562 19.984375 C 274.910156 21.582031 278.046875 23.273438 281.132812 25.054688 C 284.222656 26.832031 287.253906 28.699219 290.234375 30.652344 C 293.214844 32.601562 296.140625 34.640625 299.003906 36.757812 C 301.867188 38.878906 304.671875 41.074219 307.410156 43.355469 C 310.148438 45.632812 312.820312 47.988281 315.425781 50.417969 C 318.03125 52.851562 320.566406 55.355469 323.027344 57.929688 C 325.488281 60.503906 327.875 63.148438 330.1875 65.859375 C 332.5 68.570312 334.734375 71.347656 336.886719 74.1875 C 339.039062 77.023438 341.109375 79.921875 343.097656 82.878906 C 345.085938 85.835938 346.988281 88.847656 348.804688 91.914062 C 350.621094 94.980469 352.351562 98.09375 353.988281 101.257812 C 355.628906 104.421875 357.175781 107.628906 358.632812 110.882812 C 360.085938 114.132812 361.449219 117.425781 362.71875 120.753906 C 363.984375 124.085938 365.160156 127.449219 366.234375 130.84375 C 367.3125 134.242188 368.292969 137.664062 369.171875 141.117188 C 370.054688 144.570312 370.835938 148.046875 371.519531 151.542969 C 372.203125 155.039062 372.785156 158.554688 373.269531 162.082031 C 373.753906 165.613281 374.132812 169.15625 374.414062 172.707031 C 374.695312 176.257812 374.875 179.816406 374.953125 183.378906 C 375.03125 186.941406 375.011719 190.503906 374.886719 194.0625 C 374.761719 197.625 374.535156 201.179688 374.207031 204.726562 C 373.878906 208.277344 373.453125 211.8125 372.921875 215.335938 C 372.394531 218.859375 371.765625 222.363281 371.035156 225.851562 C 370.308594 229.339844 369.480469 232.804688 368.554688 236.246094 C 367.625 239.6875 366.601562 243.097656 365.480469 246.480469 C 364.359375 249.863281 363.144531 253.210938 361.832031 256.523438 C 360.519531 259.835938 359.117188 263.109375 357.617188 266.34375 C 356.121094 269.574219 354.53125 272.761719 352.851562 275.90625 C 351.171875 279.046875 349.402344 282.140625 347.546875 285.179688 C 345.691406 288.222656 343.75 291.207031 341.722656 294.140625 C 339.695312 297.070312 337.585938 299.941406 335.398438 302.75 C 333.207031 305.5625 330.9375 308.308594 328.589844 310.988281 C 326.246094 313.671875 323.824219 316.28125 321.328125 318.824219 C 318.832031 321.367188 316.265625 323.839844 313.628906 326.234375 C 310.992188 328.632812 308.289062 330.953125 305.519531 333.195312 C 302.753906 335.4375 299.921875 337.601562 297.03125 339.683594 C 294.136719 341.765625 291.1875 343.761719 288.183594 345.675781 C 285.175781 347.589844 282.117188 349.414062 279.007812 351.152344 C 275.898438 352.890625 272.742188 354.542969 269.539062 356.101562 C 266.332031 357.660156 263.089844 359.125 259.800781 360.5 C 256.511719 361.875 253.1875 363.152344 249.828125 364.335938 C 246.46875 365.523438 243.074219 366.609375 239.652344 367.601562 C 236.230469 368.59375 232.78125 369.484375 229.308594 370.28125 C 225.835938 371.074219 222.34375 371.769531 218.828125 372.363281 C 215.316406 372.960938 211.789062 373.453125 208.246094 373.847656 C 204.707031 374.242188 201.15625 374.535156 197.597656 374.726562 C 194.039062 374.917969 190.480469 375.011719 186.917969 375 C 183.351562 374.988281 179.792969 374.875 176.238281 374.660156 C 172.679688 374.449219 169.132812 374.132812 165.59375 373.714844 C 162.054688 373.300781 158.53125 372.78125 155.019531 372.164062 C 151.511719 371.546875 148.023438 370.832031 144.554688 370.015625 C 141.085938 369.199219 137.644531 368.285156 134.226562 367.273438 C 130.808594 366.261719 127.425781 365.152344 124.074219 363.945312 C 120.71875 362.742188 117.402344 361.441406 114.125 360.046875 C 110.84375 358.652344 107.609375 357.164062 104.414062 355.585938 C 101.21875 354.007812 98.074219 352.339844 94.972656 350.582031 C 91.875 348.820312 88.828125 346.976562 85.835938 345.042969 C 82.839844 343.113281 79.902344 341.097656 77.023438 338.996094 C 76.480469 338.597656 75.953125 338.175781 75.449219 337.726562 C 74.945312 337.277344 74.464844 336.804688 74.003906 336.308594 C 73.546875 335.808594 73.117188 335.292969 72.707031 334.753906 C 72.300781 334.214844 71.921875 333.65625 71.570312 333.078125 C 71.21875 332.503906 70.894531 331.910156 70.601562 331.300781 C 70.304688 330.691406 70.042969 330.070312 69.808594 329.4375 C 69.578125 328.804688 69.375 328.160156 69.207031 327.503906 C 69.035156 326.851562 68.898438 326.191406 68.796875 325.523438 C 68.691406 324.855469 68.617188 324.183594 68.582031 323.511719 C 68.542969 322.835938 68.535156 322.160156 68.5625 321.484375 C 68.589844 320.808594 68.652344 320.136719 68.746094 319.46875 C 68.839844 318.800781 68.964844 318.136719 69.125 317.480469 C 69.28125 316.824219 69.472656 316.175781 69.695312 315.539062 C 69.917969 314.898438 70.171875 314.273438 70.457031 313.660156 C 70.738281 313.046875 71.054688 312.449219 71.394531 311.867188 C 71.738281 311.285156 72.109375 310.722656 72.507812 310.175781 C 72.90625 309.628906 73.328125 309.105469 73.777344 308.601562 C 74.226562 308.097656 74.703125 307.617188 75.199219 307.15625 C 75.695312 306.699219 76.214844 306.269531 76.753906 305.859375 C 77.292969 305.453125 77.851562 305.074219 78.425781 304.722656 C 79.003906 304.371094 79.597656 304.046875 80.203125 303.753906 C 80.8125 303.460938 81.433594 303.199219 82.070312 302.964844 C 82.703125 302.730469 83.347656 302.53125 84 302.363281 C 84.65625 302.191406 85.316406 302.054688 85.984375 301.953125 C 86.652344 301.847656 87.324219 301.777344 87.996094 301.738281 C 88.671875 301.699219 89.347656 301.691406 90.023438 301.722656 C 90.695312 301.75 91.367188 301.808594 92.039062 301.902344 C 92.707031 301.996094 93.371094 302.125 94.027344 302.28125 C 94.683594 302.441406 95.332031 302.632812 95.96875 302.855469 C 96.605469 303.078125 97.230469 303.332031 97.84375 303.617188 C 98.457031 303.898438 99.054688 304.214844 99.636719 304.554688 C 100.21875 304.898438 100.785156 305.269531 101.328125 305.667969 C 103.574219 307.304688 105.867188 308.878906 108.199219 310.386719 C 110.535156 311.890625 112.914062 313.332031 115.328125 314.703125 C 117.746094 316.074219 120.203125 317.375 122.691406 318.605469 C 125.183594 319.839844 127.710938 321 130.265625 322.085938 C 132.824219 323.171875 135.410156 324.1875 138.027344 325.128906 C 140.640625 326.066406 143.28125 326.933594 145.945312 327.722656 C 148.613281 328.511719 151.296875 329.226562 154.003906 329.863281 C 156.707031 330.5 159.429688 331.058594 162.167969 331.539062 C 164.902344 332.019531 167.652344 332.421875 170.414062 332.75 C 173.171875 333.074219 175.941406 333.320312 178.714844 333.484375 C 181.488281 333.652344 184.265625 333.742188 187.042969 333.75 C 189.824219 333.757812 192.601562 333.6875 195.375 333.539062 C 198.152344 333.386719 200.921875 333.160156 203.683594 332.851562 C 206.445312 332.542969 209.195312 332.160156 211.9375 331.695312 C 214.675781 331.230469 217.402344 330.6875 220.109375 330.066406 C 222.820312 329.449219 225.511719 328.75 228.179688 327.980469 C 230.847656 327.207031 233.496094 326.355469 236.117188 325.433594 C 238.738281 324.507812 241.328125 323.511719 243.894531 322.441406 C 246.457031 321.367188 248.992188 320.222656 251.488281 319.007812 C 253.988281 317.792969 256.453125 316.507812 258.878906 315.148438 C 261.304688 313.792969 263.6875 312.367188 266.03125 310.875 C 268.378906 309.382812 270.675781 307.824219 272.933594 306.203125 C 275.1875 304.578125 277.398438 302.890625 279.554688 301.144531 C 281.714844 299.394531 283.824219 297.582031 285.878906 295.714844 C 287.9375 293.84375 289.9375 291.917969 291.886719 289.933594 C 293.832031 287.949219 295.71875 285.914062 297.550781 283.820312 C 299.382812 281.730469 301.152344 279.589844 302.859375 277.394531 C 304.566406 275.203125 306.210938 272.964844 307.792969 270.679688 C 309.375 268.390625 310.886719 266.0625 312.335938 263.691406 C 313.785156 261.320312 315.164062 258.90625 316.472656 256.457031 C 317.785156 254.003906 319.023438 251.519531 320.191406 248.996094 C 321.359375 246.476562 322.457031 243.921875 323.480469 241.339844 C 324.503906 238.753906 325.453125 236.144531 326.324219 233.503906 C 327.199219 230.867188 328 228.207031 328.722656 225.523438 C 329.445312 222.839844 330.089844 220.136719 330.65625 217.414062 C 331.226562 214.695312 331.71875 211.960938 332.128906 209.210938 C 332.542969 206.464844 332.875 203.707031 333.132812 200.9375 C 333.386719 198.171875 333.5625 195.398438 333.660156 192.621094 C 333.757812 189.84375 333.777344 187.0625 333.714844 184.285156 C 333.652344 181.507812 333.511719 178.730469 333.292969 175.960938 C 333.074219 173.191406 332.777344 170.429688 332.398438 167.675781 C 332.023438 164.921875 331.570312 162.179688 331.035156 159.453125 C 330.503906 156.726562 329.890625 154.015625 329.203125 151.320312 C 328.515625 148.628906 327.753906 145.957031 326.914062 143.308594 C 326.074219 140.660156 325.160156 138.035156 324.171875 135.4375 C 323.179688 132.839844 322.117188 130.273438 320.980469 127.738281 C 319.847656 125.199219 318.640625 122.699219 317.359375 120.230469 C 316.082031 117.761719 314.734375 115.332031 313.316406 112.941406 C 311.902344 110.550781 310.417969 108.203125 308.867188 105.894531 C 307.316406 103.589844 305.699219 101.328125 304.019531 99.113281 C 302.339844 96.902344 300.601562 94.734375 298.796875 92.621094 C 296.992188 90.507812 295.132812 88.445312 293.210938 86.433594 C 291.289062 84.425781 289.316406 82.472656 287.28125 80.578125 C 285.25 78.679688 283.167969 76.84375 281.03125 75.066406 C 278.894531 73.289062 276.707031 71.574219 274.472656 69.921875 C 272.238281 68.269531 269.960938 66.679688 267.632812 65.15625 C 265.308594 63.636719 262.941406 62.179688 260.535156 60.792969 C 258.125 59.402344 255.679688 58.085938 253.199219 56.835938 C 250.714844 55.589844 248.199219 54.410156 245.648438 53.304688 C 243.097656 52.203125 240.519531 51.171875 237.910156 50.210938 C 235.300781 49.253906 232.667969 48.371094 230.007812 47.5625 C 227.347656 46.753906 224.667969 46.023438 221.964844 45.371094 C 219.265625 44.714844 216.546875 44.136719 213.8125 43.636719 C 211.078125 43.136719 208.332031 42.714844 205.574219 42.371094 C 204.90625 42.289062 204.242188 42.171875 203.582031 42.023438 C 202.921875 41.875 202.273438 41.695312 201.632812 41.480469 C 200.992188 41.269531 200.363281 41.023438 199.746094 40.75 C 199.128906 40.476562 198.523438 40.171875 197.9375 39.835938 C 197.351562 39.503906 196.78125 39.144531 196.230469 38.753906 C 195.675781 38.363281 195.144531 37.949219 194.632812 37.503906 C 194.125 37.0625 193.636719 36.597656 193.171875 36.109375 C 192.707031 35.617188 192.265625 35.105469 191.851562 34.574219 C 191.433594 34.042969 191.046875 33.488281 190.6875 32.917969 C 190.324219 32.347656 189.996094 31.757812 189.691406 31.15625 C 189.386719 30.550781 189.117188 29.933594 188.875 29.304688 C 188.628906 28.671875 188.421875 28.03125 188.242188 27.382812 C 188.0625 26.730469 187.914062 26.070312 187.800781 25.40625 C 187.683594 24.742188 187.601562 24.070312 187.554688 23.398438 C 187.503906 22.722656 187.488281 22.050781 187.507812 21.375 C 187.523438 20.699219 187.574219 20.027344 187.65625 19.355469 C 187.742188 18.683594 187.859375 18.019531 188.007812 17.363281 C 188.15625 16.703125 188.335938 16.050781 188.546875 15.410156 C 188.761719 14.769531 189.003906 14.140625 189.28125 13.523438 C 189.554688 12.90625 189.859375 12.304688 190.191406 11.71875 C 190.523438 11.128906 190.886719 10.558594 191.277344 10.007812 C 191.667969 9.457031 192.082031 8.925781 192.523438 8.414062 C 192.964844 7.902344 193.429688 7.414062 193.921875 6.949219 C 194.410156 6.484375 194.921875 6.042969 195.457031 5.628906 C 195.988281 5.214844 196.539062 4.828125 197.113281 4.464844 C 197.683594 4.105469 198.269531 3.773438 198.875 3.46875 C 199.476562 3.167969 200.09375 2.894531 200.726562 2.652344 C 201.355469 2.410156 201.996094 2.199219 202.648438 2.019531 C 203.300781 1.839844 203.957031 1.695312 204.625 1.578125 C 205.289062 1.464844 205.957031 1.382812 206.632812 1.332031 C 207.304688 1.285156 207.980469 1.269531 208.65625 1.285156 C 209.332031 1.304688 210.003906 1.355469 210.675781 1.4375 Z M 210.675781 1.4375 " fill-opacity="1" fill-rule="nonzero"/><g clip-path="url(#id1)"><path fill="rgb(3.919983%, 81.17981%, 51.368713%)" d="M 162.46875 262.453125 C 176.234375 262.453125 187.40625 251.261719 187.40625 237.46875 L 187.40625 212.484375 L 162.46875 212.484375 C 148.703125 212.484375 137.53125 223.675781 137.53125 237.46875 C 137.53125 251.261719 148.703125 262.453125 162.46875 262.453125 Z M 162.46875 262.453125 " fill-opacity="1" fill-rule="nonzero"/></g><g clip-path="url(#id2)"><path fill="rgb(63.529968%, 34.899902%, 100%)" d="M 137.53125 187.5 C 137.53125 173.707031 148.703125 162.515625 162.46875 162.515625 L 187.40625 162.515625 L 187.40625 212.484375 L 162.46875 212.484375 C 148.703125 212.484375 137.53125 201.292969 137.53125 187.5 Z M 137.53125 187.5 " fill-opacity="1" fill-rule="nonzero"/></g><g clip-path="url(#id3)"><path fill="rgb(94.898987%, 30.589294%, 11.759949%)" d="M 137.53125 137.53125 C 137.53125 123.738281 148.703125 112.546875 162.46875 112.546875 L 187.40625 112.546875 L 187.40625 162.515625 L 162.46875 162.515625 C 148.703125 162.515625 137.53125 151.324219 137.53125 137.53125 Z M 137.53125 137.53125 " fill-opacity="1" fill-rule="nonzero"/></g><g clip-path="url(#id4)"><path fill="rgb(100%, 44.709778%, 38.42926%)" d="M 187.40625 112.546875 L 212.34375 112.546875 C 226.109375 112.546875 237.28125 123.738281 237.28125 137.53125 C 237.28125 151.324219 226.109375 162.515625 212.34375 162.515625 L 187.40625 162.515625 Z M 187.40625 112.546875 " fill-opacity="1" fill-rule="nonzero"/></g><g clip-path="url(#id5)"><path fill="rgb(10.198975%, 73.728943%, 99.609375%)" d="M 237.28125 187.5 C 237.28125 201.292969 226.109375 212.484375 212.34375 212.484375 C 198.578125 212.484375 187.40625 201.292969 187.40625 187.5 C 187.40625 173.707031 198.578125 162.515625 212.34375 162.515625 C 226.109375 162.515625 237.28125 173.707031 237.28125 187.5 Z M 237.28125 187.5 " fill-opacity="1" fill-rule="nonzero"/></g></svg>