<svg xmlns="http://www.w3.org/2000/svg" xmlns:xlink="http://www.w3.org/1999/xlink" width="500" zoomAndPan="magnify" viewBox="0 0 375 374.999991" height="500" preserveAspectRatio="xMidYMid meet" version="1.0"><defs><clipPath id="id1"><path d="M 112.5 112.5 L 262.5 112.5 L 262.5 262.5 L 112.5 262.5 Z M 112.5 112.5 " clip-rule="nonzero"/></clipPath></defs><path fill="rgb(65.098572%, 65.098572%, 65.098572%)" d="M 187.5 0 C 190.570312 0 193.636719 0.0742188 196.699219 0.226562 C 199.765625 0.375 202.824219 0.601562 205.878906 0.902344 C 208.933594 1.203125 211.976562 1.578125 215.011719 2.03125 C 218.046875 2.480469 221.070312 3.003906 224.078125 3.601562 C 227.089844 4.203125 230.082031 4.875 233.058594 5.617188 C 236.035156 6.363281 238.992188 7.183594 241.929688 8.074219 C 244.863281 8.964844 247.777344 9.925781 250.667969 10.960938 C 253.554688 11.996094 256.417969 13.097656 259.253906 14.273438 C 262.089844 15.445312 264.890625 16.691406 267.667969 18.003906 C 270.441406 19.3125 273.179688 20.691406 275.886719 22.140625 C 278.59375 23.585938 281.261719 25.097656 283.894531 26.675781 C 286.527344 28.253906 289.117188 29.894531 291.667969 31.597656 C 294.222656 33.304688 296.730469 35.070312 299.195312 36.898438 C 301.660156 38.726562 304.078125 40.613281 306.449219 42.558594 C 308.820312 44.507812 311.144531 46.511719 313.417969 48.570312 C 315.691406 50.632812 317.914062 52.746094 320.082031 54.917969 C 322.253906 57.085938 324.367188 59.308594 326.429688 61.582031 C 328.488281 63.855469 330.492188 66.179688 332.4375 68.550781 C 334.386719 70.921875 336.273438 73.339844 338.101562 75.804688 C 339.929688 78.269531 341.695312 80.777344 343.402344 83.332031 C 345.105469 85.882812 346.746094 88.472656 348.324219 91.105469 C 349.902344 93.738281 351.414062 96.40625 352.859375 99.113281 C 354.308594 101.820312 355.6875 104.558594 356.996094 107.332031 C 358.308594 110.105469 359.554688 112.910156 360.726562 115.746094 C 361.902344 118.582031 363.003906 121.445312 364.039062 124.332031 C 365.074219 127.222656 366.035156 130.136719 366.925781 133.070312 C 367.816406 136.007812 368.636719 138.964844 369.378906 141.941406 C 370.125 144.917969 370.796875 147.910156 371.398438 150.921875 C 371.996094 153.929688 372.519531 156.953125 372.96875 159.988281 C 373.421875 163.023438 373.796875 166.066406 374.097656 169.121094 C 374.398438 172.175781 374.625 175.234375 374.773438 178.300781 C 374.925781 181.363281 375 184.429688 375 187.5 C 375 190.570312 374.925781 193.636719 374.773438 196.699219 C 374.625 199.765625 374.398438 202.824219 374.097656 205.878906 C 373.796875 208.933594 373.421875 211.976562 372.96875 215.011719 C 372.519531 218.046875 371.996094 221.070312 371.398438 224.078125 C 370.796875 227.089844 370.125 230.082031 369.378906 233.058594 C 368.636719 236.035156 367.816406 238.992188 366.925781 241.929688 C 366.035156 244.863281 365.074219 247.777344 364.039062 250.667969 C 363.003906 253.554688 361.902344 256.417969 360.726562 259.253906 C 359.554688 262.089844 358.308594 264.890625 356.996094 267.667969 C 355.6875 270.441406 354.308594 273.179688 352.859375 275.886719 C 351.414062 278.59375 349.902344 281.261719 348.324219 283.894531 C 346.746094 286.527344 345.105469 289.117188 343.402344 291.667969 C 341.695312 294.222656 339.929688 296.730469 338.101562 299.195312 C 336.273438 301.660156 334.386719 304.078125 332.4375 306.449219 C 330.492188 308.820312 328.488281 311.144531 326.429688 313.417969 C 324.367188 315.691406 322.253906 317.914062 320.082031 320.082031 C 317.914062 322.253906 315.691406 324.367188 313.417969 326.429688 C 311.144531 328.488281 308.820312 330.492188 306.449219 332.4375 C 304.078125 334.386719 301.660156 336.273438 299.195312 338.101562 C 296.730469 339.929688 294.222656 341.695312 291.667969 343.402344 C 289.117188 345.105469 286.527344 346.746094 283.894531 348.324219 C 281.261719 349.902344 278.59375 351.414062 275.886719 352.859375 C 273.179688 354.308594 270.441406 355.6875 267.667969 356.996094 C 264.890625 358.308594 262.089844 359.554688 259.253906 360.726562 C 256.417969 361.902344 253.554688 363.003906 250.667969 364.039062 C 247.777344 365.074219 244.863281 366.035156 241.929688 366.925781 C 238.992188 367.816406 236.035156 368.636719 233.058594 369.378906 C 230.082031 370.125 227.089844 370.796875 224.078125 371.398438 C 221.070312 371.996094 218.046875 372.519531 215.011719 372.96875 C 211.976562 373.421875 208.933594 373.796875 205.878906 374.097656 C 202.824219 374.398438 199.765625 374.625 196.699219 374.773438 C 193.636719 374.925781 190.570312 375 187.5 375 C 184.429688 375 181.363281 374.925781 178.300781 374.773438 C 175.234375 374.625 172.175781 374.398438 169.121094 374.097656 C 166.066406 373.796875 163.023438 373.421875 159.988281 372.96875 C 156.953125 372.519531 153.929688 371.996094 150.921875 371.398438 C 147.910156 370.796875 144.917969 370.125 141.941406 369.378906 C 138.964844 368.636719 136.007812 367.816406 133.070312 366.925781 C 130.136719 366.035156 127.222656 365.074219 124.332031 364.039062 C 121.445312 363.003906 118.582031 361.902344 115.746094 360.726562 C 112.910156 359.554688 110.105469 358.308594 107.332031 356.996094 C 104.558594 355.6875 101.820312 354.308594 99.113281 352.859375 C 96.40625 351.414062 93.738281 349.902344 91.105469 348.324219 C 88.472656 346.746094 85.882812 345.105469 83.332031 343.402344 C 80.777344 341.695312 78.269531 339.929688 75.804688 338.101562 C 73.339844 336.273438 70.921875 334.386719 68.550781 332.4375 C 66.179688 330.492188 63.855469 328.488281 61.582031 326.429688 C 59.308594 324.367188 57.085938 322.253906 54.917969 320.082031 C 52.746094 317.914062 50.632812 315.691406 48.570312 313.417969 C 46.511719 311.144531 44.507812 308.820312 42.558594 306.449219 C 40.613281 304.078125 38.726562 301.660156 36.898438 299.195312 C 35.070312 296.730469 33.304688 294.222656 31.597656 291.667969 C 29.894531 289.117188 28.253906 286.527344 26.675781 283.894531 C 25.097656 281.261719 23.585938 278.59375 22.140625 275.886719 C 20.691406 273.179688 19.3125 270.441406 18.003906 267.667969 C 16.691406 264.890625 15.445312 262.089844 14.273438 259.253906 C 13.097656 256.417969 11.996094 253.554688 10.960938 250.667969 C 9.925781 247.777344 8.964844 244.863281 8.074219 241.929688 C 7.183594 238.992188 6.363281 236.035156 5.621094 233.058594 C 4.875 230.082031 4.203125 227.089844 3.601562 224.078125 C 3.003906 221.070312 2.480469 218.046875 2.03125 215.011719 C 1.578125 211.976562 1.203125 208.933594 0.902344 205.878906 C 0.601562 202.824219 0.375 199.765625 0.226562 196.699219 C 0.0742188 193.636719 0 190.570312 0 187.5 C 0 184.429688 0.0742188 181.363281 0.226562 178.300781 C 0.375 175.234375 0.601562 172.175781 0.902344 169.121094 C 1.203125 166.066406 1.578125 163.023438 2.03125 159.988281 C 2.480469 156.953125 3.003906 153.929688 3.601562 150.921875 C 4.203125 147.910156 4.875 144.917969 5.621094 141.941406 C 6.363281 138.964844 7.183594 136.007812 8.074219 133.070312 C 8.964844 130.136719 9.925781 127.222656 10.960938 124.332031 C 11.996094 121.445312 13.097656 118.582031 14.273438 115.746094 C 15.445312 112.910156 16.691406 110.105469 18.003906 107.332031 C 19.3125 104.558594 20.691406 101.820312 22.140625 99.113281 C 23.585938 96.40625 25.097656 93.738281 26.675781 91.105469 C 28.253906 88.472656 29.894531 85.882812 31.597656 83.332031 C 33.304688 80.777344 35.070312 78.269531 36.898438 75.804688 C 38.726562 73.339844 40.613281 70.921875 42.558594 68.550781 C 44.507812 66.179688 46.511719 63.855469 48.570312 61.582031 C 50.632812 59.308594 52.746094 57.085938 54.917969 54.917969 C 57.085938 52.746094 59.308594 50.632812 61.582031 48.570312 C 63.855469 46.511719 66.179688 44.507812 68.550781 42.558594 C 70.921875 40.613281 73.339844 38.726562 75.804688 36.898438 C 78.269531 35.070312 80.777344 33.304688 83.332031 31.597656 C 85.882812 29.894531 88.472656 28.253906 91.105469 26.675781 C 93.738281 25.097656 96.40625 23.585938 99.113281 22.140625 C 101.820312 20.691406 104.558594 19.3125 107.332031 18.003906 C 110.105469 16.691406 112.910156 15.445312 115.746094 14.273438 C 118.582031 13.097656 121.445312 11.996094 124.332031 10.960938 C 127.222656 9.925781 130.136719 8.964844 133.070312 8.074219 C 136.007812 7.183594 138.964844 6.363281 141.941406 5.617188 C 144.917969 4.875 147.910156 4.203125 150.921875 3.601562 C 153.929688 3.003906 156.953125 2.480469 159.988281 2.03125 C 163.023438 1.578125 166.066406 1.203125 169.121094 0.902344 C 172.175781 0.601562 175.234375 0.375 178.300781 0.226562 C 181.363281 0.0742188 184.429688 0 187.5 0 L 187.5 41.25 C 185.105469 41.25 182.714844 41.308594 180.324219 41.425781 C 177.933594 41.542969 175.546875 41.71875 173.164062 41.953125 C 170.78125 42.1875 168.410156 42.480469 166.039062 42.832031 C 163.671875 43.183594 161.316406 43.59375 158.96875 44.058594 C 156.621094 44.527344 154.285156 45.050781 151.964844 45.632812 C 149.640625 46.214844 147.335938 46.851562 145.046875 47.546875 C 142.753906 48.242188 140.484375 48.992188 138.230469 49.800781 C 135.976562 50.605469 133.742188 51.464844 131.53125 52.382812 C 129.320312 53.296875 127.132812 54.269531 124.96875 55.292969 C 122.804688 56.316406 120.667969 57.390625 118.558594 58.519531 C 116.449219 59.648438 114.367188 60.828125 112.3125 62.058594 C 110.257812 63.289062 108.238281 64.566406 106.246094 65.898438 C 104.257812 67.226562 102.300781 68.605469 100.378906 70.03125 C 98.457031 71.457031 96.570312 72.929688 94.71875 74.445312 C 92.871094 75.964844 91.058594 77.527344 89.285156 79.136719 C 87.511719 80.742188 85.777344 82.394531 84.085938 84.085938 C 82.394531 85.777344 80.742188 87.511719 79.136719 89.285156 C 77.527344 91.058594 75.964844 92.871094 74.445312 94.71875 C 72.929688 96.570312 71.457031 98.457031 70.03125 100.378906 C 68.605469 102.300781 67.226562 104.257812 65.898438 106.246094 C 64.566406 108.238281 63.289062 110.257812 62.058594 112.3125 C 60.828125 114.367188 59.648438 116.449219 58.519531 118.558594 C 57.390625 120.667969 56.316406 122.804688 55.292969 124.96875 C 54.269531 127.132812 53.296875 129.320312 52.382812 131.53125 C 51.464844 133.742188 50.605469 135.976562 49.800781 138.230469 C 48.992188 140.484375 48.242188 142.753906 47.546875 145.046875 C 46.851562 147.335938 46.214844 149.640625 45.632812 151.964844 C 45.050781 154.285156 44.527344 156.621094 44.058594 158.96875 C 43.59375 161.316406 43.183594 163.671875 42.832031 166.039062 C 42.480469 168.410156 42.1875 170.78125 41.953125 173.164062 C 41.71875 175.546875 41.542969 177.933594 41.425781 180.324219 C 41.308594 182.714844 41.25 185.105469 41.25 187.5 C 41.25 189.894531 41.308594 192.285156 41.425781 194.675781 C 41.542969 197.066406 41.71875 199.453125 41.953125 201.835938 C 42.1875 204.21875 42.480469 206.589844 42.832031 208.960938 C 43.183594 211.328125 43.59375 213.683594 44.058594 216.03125 C 44.527344 218.378906 45.050781 220.714844 45.632812 223.035156 C 46.214844 225.359375 46.851562 227.664062 47.546875 229.953125 C 48.242188 232.246094 48.992188 234.515625 49.800781 236.769531 C 50.605469 239.023438 51.464844 241.257812 52.382812 243.46875 C 53.296875 245.679688 54.269531 247.867188 55.292969 250.03125 C 56.316406 252.195312 57.390625 254.332031 58.519531 256.441406 C 59.648438 258.550781 60.828125 260.632812 62.058594 262.6875 C 63.289062 264.742188 64.566406 266.761719 65.898438 268.753906 C 67.226562 270.742188 68.605469 272.699219 70.03125 274.621094 C 71.457031 276.542969 72.929688 278.429688 74.445312 280.28125 C 75.964844 282.128906 77.527344 283.941406 79.136719 285.714844 C 80.742188 287.488281 82.394531 289.222656 84.085938 290.914062 C 85.777344 292.605469 87.511719 294.257812 89.285156 295.863281 C 91.058594 297.472656 92.871094 299.035156 94.71875 300.554688 C 96.570312 302.070312 98.457031 303.542969 100.378906 304.96875 C 102.300781 306.394531 104.257812 307.773438 106.246094 309.101562 C 108.238281 310.433594 110.257812 311.710938 112.3125 312.941406 C 114.367188 314.171875 116.449219 315.351562 118.558594 316.480469 C 120.667969 317.609375 122.804688 318.683594 124.96875 319.707031 C 127.132812 320.730469 129.320312 321.703125 131.53125 322.617188 C 133.742188 323.535156 135.976562 324.394531 138.230469 325.199219 C 140.484375 326.007812 142.753906 326.757812 145.046875 327.453125 C 147.335938 328.148438 149.640625 328.785156 151.964844 329.367188 C 154.285156 329.949219 156.621094 330.472656 158.96875 330.941406 C 161.316406 331.40625 163.671875 331.816406 166.039062 332.167969 C 168.410156 332.519531 170.78125 332.8125 173.164062 333.046875 C 175.546875 333.28125 177.933594 333.457031 180.324219 333.574219 C 182.714844 333.691406 185.105469 333.75 187.5 333.75 C 189.894531 333.75 192.285156 333.691406 194.675781 333.574219 C 197.066406 333.457031 199.453125 333.28125 201.835938 333.046875 C 204.21875 332.8125 206.589844 332.519531 208.960938 332.167969 C 211.328125 331.816406 213.683594 331.40625 216.03125 330.941406 C 218.378906 330.472656 220.714844 329.949219 223.035156 329.367188 C 225.359375 328.785156 227.664062 328.148438 229.953125 327.453125 C 232.246094 326.757812 234.515625 326.007812 236.769531 325.199219 C 239.023438 324.394531 241.257812 323.535156 243.46875 322.617188 C 245.679688 321.703125 247.867188 320.730469 250.03125 319.707031 C 252.195312 318.683594 254.332031 317.609375 256.441406 316.480469 C 258.550781 315.351562 260.632812 314.171875 262.6875 312.941406 C 264.742188 311.710938 266.761719 310.433594 268.753906 309.101562 C 270.742188 307.773438 272.699219 306.394531 274.621094 304.96875 C 276.542969 303.542969 278.429688 302.070312 280.28125 300.550781 C 282.128906 299.035156 283.941406 297.472656 285.714844 295.863281 C 287.488281 294.257812 289.222656 292.605469 290.914062 290.914062 C 292.605469 289.222656 294.257812 287.488281 295.863281 285.714844 C 297.472656 283.941406 299.035156 282.128906 300.554688 280.28125 C 302.070312 278.429688 303.542969 276.542969 304.96875 274.621094 C 306.394531 272.699219 307.773438 270.742188 309.101562 268.753906 C 310.433594 266.761719 311.710938 264.742188 312.941406 262.6875 C 314.171875 260.632812 315.351562 258.550781 316.480469 256.441406 C 317.609375 254.332031 318.683594 252.195312 319.707031 250.03125 C 320.730469 247.867188 321.703125 245.679688 322.617188 243.46875 C 323.535156 241.257812 324.394531 239.023438 325.199219 236.769531 C 326.007812 234.515625 326.757812 232.246094 327.453125 229.953125 C 328.148438 227.664062 328.785156 225.359375 329.367188 223.035156 C 329.949219 220.714844 330.472656 218.378906 330.941406 216.03125 C 331.40625 213.683594 331.816406 211.328125 332.167969 208.960938 C 332.519531 206.589844 332.8125 204.21875 333.046875 201.835938 C 333.28125 199.453125 333.457031 197.066406 333.574219 194.675781 C 333.691406 192.285156 333.75 189.894531 333.75 187.5 C 333.75 185.105469 333.691406 182.714844 333.574219 180.324219 C 333.457031 177.933594 333.28125 175.546875 333.046875 173.164062 C 332.8125 170.78125 332.519531 168.410156 332.167969 166.039062 C 331.816406 163.671875 331.40625 161.316406 330.941406 158.96875 C 330.472656 156.621094 329.949219 154.285156 329.367188 151.964844 C 328.785156 149.640625 328.148438 147.335938 327.453125 145.046875 C 326.757812 142.753906 326.007812 140.484375 325.199219 138.230469 C 324.394531 135.976562 323.535156 133.742188 322.617188 131.53125 C 321.703125 129.320312 320.730469 127.132812 319.707031 124.96875 C 318.683594 122.804688 317.609375 120.667969 316.480469 118.558594 C 315.351562 116.449219 314.171875 114.367188 312.941406 112.3125 C 311.710938 110.257812 310.433594 108.238281 309.101562 106.246094 C 307.773438 104.257812 306.394531 102.300781 304.96875 100.378906 C 303.542969 98.457031 302.070312 96.570312 300.554688 94.71875 C 299.035156 92.871094 297.472656 91.058594 295.863281 89.285156 C 294.257812 87.511719 292.605469 85.777344 290.914062 84.085938 C 289.222656 82.394531 287.488281 80.742188 285.714844 79.136719 C 283.941406 77.527344 282.128906 75.964844 280.28125 74.445312 C 278.429688 72.929688 276.542969 71.457031 274.621094 70.03125 C 272.699219 68.605469 270.742188 67.226562 268.753906 65.898438 C 266.761719 64.566406 264.742188 63.289062 262.6875 62.058594 C 260.632812 60.828125 258.550781 59.648438 256.441406 58.519531 C 254.332031 57.390625 252.195312 56.316406 250.03125 55.292969 C 247.867188 54.269531 245.679688 53.296875 243.46875 52.382812 C 241.257812 51.464844 239.023438 50.605469 236.769531 49.800781 C 234.515625 48.992188 232.246094 48.242188 229.953125 47.546875 C 227.664062 46.851562 225.359375 46.214844 223.035156 45.632812 C 220.714844 45.050781 218.378906 44.527344 216.03125 44.058594 C 213.683594 43.59375 211.328125 43.183594 208.960938 42.832031 C 206.589844 42.480469 204.21875 42.1875 201.835938 41.953125 C 199.453125 41.71875 197.066406 41.542969 194.675781 41.425781 C 192.285156 41.308594 189.894531 41.25 187.5 41.25 Z M 187.5 0 " fill-opacity="1" fill-rule="nonzero"/><path fill="rgb(36.079407%, 88.238525%, 90.19928%)" d="M 210.675781 1.4375 C 214.585938 1.925781 218.476562 2.535156 222.351562 3.265625 C 226.226562 4 230.070312 4.855469 233.890625 5.828125 C 237.710938 6.804688 241.496094 7.898438 245.246094 9.113281 C 248.996094 10.328125 252.703125 11.660156 256.371094 13.105469 C 260.035156 14.554688 263.652344 16.117188 267.222656 17.792969 C 270.789062 19.46875 274.300781 21.253906 277.757812 23.152344 C 281.210938 25.050781 284.605469 27.054688 287.933594 29.167969 C 291.261719 31.277344 294.519531 33.492188 297.710938 35.808594 C 300.898438 38.125 304.011719 40.542969 307.046875 43.054688 C 310.085938 45.566406 313.039062 48.175781 315.914062 50.875 C 318.785156 53.574219 321.570312 56.363281 324.265625 59.238281 C 326.960938 62.113281 329.566406 65.070312 332.074219 68.109375 C 334.585938 71.148438 336.996094 74.265625 339.3125 77.457031 C 341.625 80.648438 343.835938 83.910156 345.941406 87.242188 C 348.050781 90.570312 350.050781 93.964844 351.945312 97.421875 C 353.839844 100.878906 355.621094 104.394531 357.292969 107.964844 C 357.582031 108.574219 357.839844 109.199219 358.0625 109.835938 C 358.289062 110.472656 358.484375 111.121094 358.644531 111.777344 C 358.808594 112.433594 358.9375 113.09375 359.035156 113.765625 C 359.132812 114.433594 359.195312 115.105469 359.226562 115.78125 C 359.257812 116.453125 359.257812 117.128906 359.222656 117.804688 C 359.183594 118.480469 359.117188 119.152344 359.015625 119.820312 C 358.914062 120.488281 358.78125 121.148438 358.613281 121.804688 C 358.449219 122.460938 358.25 123.105469 358.019531 123.738281 C 357.789062 124.375 357.53125 125 357.238281 125.609375 C 356.949219 126.21875 356.628906 126.8125 356.277344 127.390625 C 355.929688 127.96875 355.550781 128.53125 355.148438 129.070312 C 354.742188 129.613281 354.3125 130.132812 353.855469 130.632812 C 353.402344 131.128906 352.921875 131.605469 352.421875 132.058594 C 351.917969 132.511719 351.394531 132.9375 350.851562 133.335938 C 350.304688 133.738281 349.742188 134.109375 349.164062 134.457031 C 348.582031 134.800781 347.984375 135.117188 347.371094 135.40625 C 346.761719 135.691406 346.136719 135.945312 345.5 136.171875 C 344.863281 136.398438 344.214844 136.589844 343.558594 136.753906 C 342.902344 136.914062 342.242188 137.042969 341.570312 137.140625 C 340.902344 137.238281 340.230469 137.300781 339.554688 137.332031 C 338.878906 137.363281 338.207031 137.359375 337.53125 137.324219 C 336.855469 137.289062 336.183594 137.21875 335.515625 137.117188 C 334.847656 137.015625 334.1875 136.878906 333.53125 136.714844 C 332.875 136.546875 332.230469 136.347656 331.597656 136.117188 C 330.960938 135.886719 330.339844 135.625 329.726562 135.335938 C 329.117188 135.042969 328.523438 134.722656 327.945312 134.371094 C 327.367188 134.023438 326.808594 133.644531 326.265625 133.242188 C 325.726562 132.835938 325.207031 132.40625 324.707031 131.949219 C 324.207031 131.492188 323.734375 131.015625 323.28125 130.511719 C 322.832031 130.007812 322.402344 129.484375 322.003906 128.941406 C 321.605469 128.394531 321.230469 127.832031 320.886719 127.25 C 320.542969 126.671875 320.226562 126.074219 319.941406 125.460938 C 318.636719 122.675781 317.246094 119.9375 315.769531 117.238281 C 314.289062 114.542969 312.730469 111.894531 311.085938 109.296875 C 309.441406 106.699219 307.71875 104.15625 305.914062 101.664062 C 304.109375 99.175781 302.226562 96.746094 300.269531 94.375 C 298.3125 92.003906 296.28125 89.699219 294.175781 87.453125 C 292.074219 85.210938 289.902344 83.039062 287.660156 80.933594 C 285.421875 78.828125 283.117188 76.792969 280.746094 74.832031 C 278.378906 72.871094 275.949219 70.988281 273.464844 69.179688 C 270.976562 67.375 268.433594 65.648438 265.835938 64 C 263.242188 62.351562 260.59375 60.789062 257.898438 59.308594 C 255.207031 57.828125 252.464844 56.433594 249.683594 55.128906 C 246.898438 53.820312 244.078125 52.601562 241.21875 51.472656 C 238.359375 50.34375 235.464844 49.304688 232.542969 48.359375 C 229.617188 47.410156 226.664062 46.558594 223.683594 45.796875 C 220.707031 45.035156 217.707031 44.371094 214.683594 43.796875 C 211.664062 43.226562 208.628906 42.75 205.574219 42.371094 C 204.90625 42.289062 204.242188 42.171875 203.582031 42.023438 C 202.921875 41.875 202.273438 41.695312 201.632812 41.480469 C 200.992188 41.269531 200.363281 41.023438 199.746094 40.75 C 199.128906 40.476562 198.523438 40.171875 197.9375 39.835938 C 197.351562 39.503906 196.78125 39.144531 196.230469 38.753906 C 195.675781 38.363281 195.144531 37.949219 194.632812 37.503906 C 194.125 37.0625 193.636719 36.597656 193.171875 36.109375 C 192.707031 35.617188 192.265625 35.105469 191.851562 34.574219 C 191.433594 34.042969 191.046875 33.488281 190.6875 32.917969 C 190.324219 32.347656 189.996094 31.757812 189.691406 31.15625 C 189.386719 30.550781 189.117188 29.933594 188.875 29.304688 C 188.628906 28.671875 188.421875 28.03125 188.242188 27.382812 C 188.0625 26.730469 187.914062 26.070312 187.800781 25.40625 C 187.683594 24.742188 187.601562 24.070312 187.554688 23.398438 C 187.503906 22.722656 187.488281 22.050781 187.507812 21.375 C 187.523438 20.699219 187.574219 20.027344 187.65625 19.355469 C 187.742188 18.683594 187.859375 18.019531 188.007812 17.363281 C 188.15625 16.703125 188.335938 16.050781 188.546875 15.410156 C 188.761719 14.769531 189.003906 14.140625 189.28125 13.523438 C 189.554688 12.90625 189.859375 12.304688 190.191406 11.71875 C 190.523438 11.128906 190.886719 10.558594 191.277344 10.007812 C 191.667969 9.457031 192.082031 8.925781 192.523438 8.414062 C 192.964844 7.902344 193.429688 7.414062 193.921875 6.949219 C 194.410156 6.484375 194.921875 6.042969 195.457031 5.628906 C 195.988281 5.214844 196.539062 4.828125 197.113281 4.464844 C 197.683594 4.105469 198.269531 3.773438 198.875 3.46875 C 199.476562 3.167969 200.09375 2.894531 200.726562 2.652344 C 201.355469 2.410156 201.996094 2.199219 202.648438 2.019531 C 203.300781 1.839844 203.957031 1.695312 204.625 1.578125 C 205.289062 1.464844 205.957031 1.382812 206.632812 1.332031 C 207.304688 1.285156 207.980469 1.269531 208.65625 1.285156 C 209.332031 1.304688 210.003906 1.355469 210.675781 1.4375 Z M 210.675781 1.4375 " fill-opacity="1" fill-rule="nonzero"/><g clip-path="url(#id1)"><path fill="rgb(96.859741%, 87.449646%, 11.759949%)" d="M 112.5 112.5 L 262.5 112.5 L 262.5 262.5 L 112.5 262.5 Z M 112.5 112.5 " fill-opacity="1" fill-rule="nonzero"/></g><path fill="rgb(0%, 0%, 0%)" d="M 151.941406 237.847656 L 163.417969 230.90625 C 165.632812 234.832031 167.648438 238.152344 172.480469 238.152344 C 177.109375 238.152344 180.035156 236.335938 180.035156 229.292969 L 180.035156 181.363281 L 194.125 181.363281 L 194.125 229.492188 C 194.125 244.089844 185.570312 250.738281 173.085938 250.738281 C 161.808594 250.738281 155.261719 244.898438 151.941406 237.847656 " fill-opacity="1" fill-rule="nonzero"/><path fill="rgb(0%, 0%, 0%)" d="M 201.785156 236.335938 L 213.261719 229.691406 C 216.285156 234.625 220.210938 238.253906 227.15625 238.253906 C 232.996094 238.253906 236.722656 235.335938 236.722656 231.304688 C 236.722656 226.46875 232.898438 224.757812 226.453125 221.941406 L 222.929688 220.429688 C 212.757812 216.097656 206.015625 210.667969 206.015625 199.183594 C 206.015625 188.613281 214.066406 180.554688 226.65625 180.554688 C 235.617188 180.554688 242.0625 183.679688 246.691406 191.835938 L 235.714844 198.886719 C 233.300781 194.554688 230.683594 192.84375 226.65625 192.84375 C 222.527344 192.84375 219.90625 195.464844 219.90625 198.886719 C 219.90625 203.117188 222.527344 204.828125 228.566406 207.445312 L 232.089844 208.953125 C 244.070312 214.089844 250.820312 219.324219 250.820312 231.105469 C 250.820312 243.789062 240.855469 250.738281 227.460938 250.738281 C 214.371094 250.738281 205.914062 244.492188 201.785156 236.335938 " fill-opacity="1" fill-rule="nonzero"/></svg>