<svg xmlns="http://www.w3.org/2000/svg" xmlns:xlink="http://www.w3.org/1999/xlink" width="500" zoomAndPan="magnify" viewBox="0 0 375 374.999991" height="500" preserveAspectRatio="xMidYMid meet" version="1.0"><defs><clipPath id="id1"><path d="M 56.25 127.839844 L 318.75 127.839844 L 318.75 247 L 56.25 247 Z M 56.25 127.839844 " clip-rule="nonzero"/></clipPath></defs><path fill="rgb(65.098572%, 65.098572%, 65.098572%)" d="M 187.5 0 C 190.570312 0 193.636719 0.0742188 196.699219 0.226562 C 199.765625 0.375 202.824219 0.601562 205.878906 0.902344 C 208.933594 1.203125 211.976562 1.578125 215.011719 2.03125 C 218.046875 2.480469 221.070312 3.003906 224.078125 3.601562 C 227.089844 4.203125 230.082031 4.875 233.058594 5.617188 C 236.035156 6.363281 238.992188 7.183594 241.929688 8.074219 C 244.863281 8.964844 247.777344 9.925781 250.667969 10.960938 C 253.554688 11.996094 256.417969 13.097656 259.253906 14.273438 C 262.089844 15.445312 264.890625 16.691406 267.667969 18.003906 C 270.441406 19.3125 273.179688 20.691406 275.886719 22.140625 C 278.59375 23.585938 281.261719 25.097656 283.894531 26.675781 C 286.527344 28.253906 289.117188 29.894531 291.667969 31.597656 C 294.222656 33.304688 296.730469 35.070312 299.195312 36.898438 C 301.660156 38.726562 304.078125 40.613281 306.449219 42.558594 C 308.820312 44.507812 311.144531 46.511719 313.417969 48.570312 C 315.691406 50.632812 317.914062 52.746094 320.082031 54.917969 C 322.253906 57.085938 324.367188 59.308594 326.429688 61.582031 C 328.488281 63.855469 330.492188 66.179688 332.4375 68.550781 C 334.386719 70.921875 336.273438 73.339844 338.101562 75.804688 C 339.929688 78.269531 341.695312 80.777344 343.402344 83.332031 C 345.105469 85.882812 346.746094 88.472656 348.324219 91.105469 C 349.902344 93.738281 351.414062 96.40625 352.859375 99.113281 C 354.308594 101.820312 355.6875 104.558594 356.996094 107.332031 C 358.308594 110.105469 359.554688 112.910156 360.726562 115.746094 C 361.902344 118.582031 363.003906 121.445312 364.039062 124.332031 C 365.074219 127.222656 366.035156 130.136719 366.925781 133.070312 C 367.816406 136.007812 368.636719 138.964844 369.378906 141.941406 C 370.125 144.917969 370.796875 147.910156 371.398438 150.921875 C 371.996094 153.929688 372.519531 156.953125 372.96875 159.988281 C 373.421875 163.023438 373.796875 166.066406 374.097656 169.121094 C 374.398438 172.175781 374.625 175.234375 374.773438 178.300781 C 374.925781 181.363281 375 184.429688 375 187.5 C 375 190.570312 374.925781 193.636719 374.773438 196.699219 C 374.625 199.765625 374.398438 202.824219 374.097656 205.878906 C 373.796875 208.933594 373.421875 211.976562 372.96875 215.011719 C 372.519531 218.046875 371.996094 221.070312 371.398438 224.078125 C 370.796875 227.089844 370.125 230.082031 369.378906 233.058594 C 368.636719 236.035156 367.816406 238.992188 366.925781 241.929688 C 366.035156 244.863281 365.074219 247.777344 364.039062 250.667969 C 363.003906 253.554688 361.902344 256.417969 360.726562 259.253906 C 359.554688 262.089844 358.308594 264.890625 356.996094 267.667969 C 355.6875 270.441406 354.308594 273.179688 352.859375 275.886719 C 351.414062 278.59375 349.902344 281.261719 348.324219 283.894531 C 346.746094 286.527344 345.105469 289.117188 343.402344 291.667969 C 341.695312 294.222656 339.929688 296.730469 338.101562 299.195312 C 336.273438 301.660156 334.386719 304.078125 332.4375 306.449219 C 330.492188 308.820312 328.488281 311.144531 326.429688 313.417969 C 324.367188 315.691406 322.253906 317.914062 320.082031 320.082031 C 317.914062 322.253906 315.691406 324.367188 313.417969 326.429688 C 311.144531 328.488281 308.820312 330.492188 306.449219 332.4375 C 304.078125 334.386719 301.660156 336.273438 299.195312 338.101562 C 296.730469 339.929688 294.222656 341.695312 291.667969 343.402344 C 289.117188 345.105469 286.527344 346.746094 283.894531 348.324219 C 281.261719 349.902344 278.59375 351.414062 275.886719 352.859375 C 273.179688 354.308594 270.441406 355.6875 267.667969 356.996094 C 264.890625 358.308594 262.089844 359.554688 259.253906 360.726562 C 256.417969 361.902344 253.554688 363.003906 250.667969 364.039062 C 247.777344 365.074219 244.863281 366.035156 241.929688 366.925781 C 238.992188 367.816406 236.035156 368.636719 233.058594 369.378906 C 230.082031 370.125 227.089844 370.796875 224.078125 371.398438 C 221.070312 371.996094 218.046875 372.519531 215.011719 372.96875 C 211.976562 373.421875 208.933594 373.796875 205.878906 374.097656 C 202.824219 374.398438 199.765625 374.625 196.699219 374.773438 C 193.636719 374.925781 190.570312 375 187.5 375 C 184.429688 375 181.363281 374.925781 178.300781 374.773438 C 175.234375 374.625 172.175781 374.398438 169.121094 374.097656 C 166.066406 373.796875 163.023438 373.421875 159.988281 372.96875 C 156.953125 372.519531 153.929688 371.996094 150.921875 371.398438 C 147.910156 370.796875 144.917969 370.125 141.941406 369.378906 C 138.964844 368.636719 136.007812 367.816406 133.070312 366.925781 C 130.136719 366.035156 127.222656 365.074219 124.332031 364.039062 C 121.445312 363.003906 118.582031 361.902344 115.746094 360.726562 C 112.910156 359.554688 110.105469 358.308594 107.332031 356.996094 C 104.558594 355.6875 101.820312 354.308594 99.113281 352.859375 C 96.40625 351.414062 93.738281 349.902344 91.105469 348.324219 C 88.472656 346.746094 85.882812 345.105469 83.332031 343.402344 C 80.777344 341.695312 78.269531 339.929688 75.804688 338.101562 C 73.339844 336.273438 70.921875 334.386719 68.550781 332.4375 C 66.179688 330.492188 63.855469 328.488281 61.582031 326.429688 C 59.308594 324.367188 57.085938 322.253906 54.917969 320.082031 C 52.746094 317.914062 50.632812 315.691406 48.570312 313.417969 C 46.511719 311.144531 44.507812 308.820312 42.558594 306.449219 C 40.613281 304.078125 38.726562 301.660156 36.898438 299.195312 C 35.070312 296.730469 33.304688 294.222656 31.597656 291.667969 C 29.894531 289.117188 28.253906 286.527344 26.675781 283.894531 C 25.097656 281.261719 23.585938 278.59375 22.140625 275.886719 C 20.691406 273.179688 19.3125 270.441406 18.003906 267.667969 C 16.691406 264.890625 15.445312 262.089844 14.273438 259.253906 C 13.097656 256.417969 11.996094 253.554688 10.960938 250.667969 C 9.925781 247.777344 8.964844 244.863281 8.074219 241.929688 C 7.183594 238.992188 6.363281 236.035156 5.621094 233.058594 C 4.875 230.082031 4.203125 227.089844 3.601562 224.078125 C 3.003906 221.070312 2.480469 218.046875 2.03125 215.011719 C 1.578125 211.976562 1.203125 208.933594 0.902344 205.878906 C 0.601562 202.824219 0.375 199.765625 0.226562 196.699219 C 0.0742188 193.636719 0 190.570312 0 187.5 C 0 184.429688 0.0742188 181.363281 0.226562 178.300781 C 0.375 175.234375 0.601562 172.175781 0.902344 169.121094 C 1.203125 166.066406 1.578125 163.023438 2.03125 159.988281 C 2.480469 156.953125 3.003906 153.929688 3.601562 150.921875 C 4.203125 147.910156 4.875 144.917969 5.621094 141.941406 C 6.363281 138.964844 7.183594 136.007812 8.074219 133.070312 C 8.964844 130.136719 9.925781 127.222656 10.960938 124.332031 C 11.996094 121.445312 13.097656 118.582031 14.273438 115.746094 C 15.445312 112.910156 16.691406 110.105469 18.003906 107.332031 C 19.3125 104.558594 20.691406 101.820312 22.140625 99.113281 C 23.585938 96.40625 25.097656 93.738281 26.675781 91.105469 C 28.253906 88.472656 29.894531 85.882812 31.597656 83.332031 C 33.304688 80.777344 35.070312 78.269531 36.898438 75.804688 C 38.726562 73.339844 40.613281 70.921875 42.558594 68.550781 C 44.507812 66.179688 46.511719 63.855469 48.570312 61.582031 C 50.632812 59.308594 52.746094 57.085938 54.917969 54.917969 C 57.085938 52.746094 59.308594 50.632812 61.582031 48.570312 C 63.855469 46.511719 66.179688 44.507812 68.550781 42.558594 C 70.921875 40.613281 73.339844 38.726562 75.804688 36.898438 C 78.269531 35.070312 80.777344 33.304688 83.332031 31.597656 C 85.882812 29.894531 88.472656 28.253906 91.105469 26.675781 C 93.738281 25.097656 96.40625 23.585938 99.113281 22.140625 C 101.820312 20.691406 104.558594 19.3125 107.332031 18.003906 C 110.105469 16.691406 112.910156 15.445312 115.746094 14.273438 C 118.582031 13.097656 121.445312 11.996094 124.332031 10.960938 C 127.222656 9.925781 130.136719 8.964844 133.070312 8.074219 C 136.007812 7.183594 138.964844 6.363281 141.941406 5.617188 C 144.917969 4.875 147.910156 4.203125 150.921875 3.601562 C 153.929688 3.003906 156.953125 2.480469 159.988281 2.03125 C 163.023438 1.578125 166.066406 1.203125 169.121094 0.902344 C 172.175781 0.601562 175.234375 0.375 178.300781 0.226562 C 181.363281 0.0742188 184.429688 0 187.5 0 L 187.5 41.25 C 185.105469 41.25 182.714844 41.308594 180.324219 41.425781 C 177.933594 41.542969 175.546875 41.71875 173.164062 41.953125 C 170.78125 42.1875 168.410156 42.480469 166.039062 42.832031 C 163.671875 43.183594 161.316406 43.59375 158.96875 44.058594 C 156.621094 44.527344 154.285156 45.050781 151.964844 45.632812 C 149.640625 46.214844 147.335938 46.851562 145.046875 47.546875 C 142.753906 48.242188 140.484375 48.992188 138.230469 49.800781 C 135.976562 50.605469 133.742188 51.464844 131.53125 52.382812 C 129.320312 53.296875 127.132812 54.269531 124.96875 55.292969 C 122.804688 56.316406 120.667969 57.390625 118.558594 58.519531 C 116.449219 59.648438 114.367188 60.828125 112.3125 62.058594 C 110.257812 63.289062 108.238281 64.566406 106.246094 65.898438 C 104.257812 67.226562 102.300781 68.605469 100.378906 70.03125 C 98.457031 71.457031 96.570312 72.929688 94.71875 74.445312 C 92.871094 75.964844 91.058594 77.527344 89.285156 79.136719 C 87.511719 80.742188 85.777344 82.394531 84.085938 84.085938 C 82.394531 85.777344 80.742188 87.511719 79.136719 89.285156 C 77.527344 91.058594 75.964844 92.871094 74.445312 94.71875 C 72.929688 96.570312 71.457031 98.457031 70.03125 100.378906 C 68.605469 102.300781 67.226562 104.257812 65.898438 106.246094 C 64.566406 108.238281 63.289062 110.257812 62.058594 112.3125 C 60.828125 114.367188 59.648438 116.449219 58.519531 118.558594 C 57.390625 120.667969 56.316406 122.804688 55.292969 124.96875 C 54.269531 127.132812 53.296875 129.320312 52.382812 131.53125 C 51.464844 133.742188 50.605469 135.976562 49.800781 138.230469 C 48.992188 140.484375 48.242188 142.753906 47.546875 145.046875 C 46.851562 147.335938 46.214844 149.640625 45.632812 151.964844 C 45.050781 154.285156 44.527344 156.621094 44.058594 158.96875 C 43.59375 161.316406 43.183594 163.671875 42.832031 166.039062 C 42.480469 168.410156 42.1875 170.78125 41.953125 173.164062 C 41.71875 175.546875 41.542969 177.933594 41.425781 180.324219 C 41.308594 182.714844 41.25 185.105469 41.25 187.5 C 41.25 189.894531 41.308594 192.285156 41.425781 194.675781 C 41.542969 197.066406 41.71875 199.453125 41.953125 201.835938 C 42.1875 204.21875 42.480469 206.589844 42.832031 208.960938 C 43.183594 211.328125 43.59375 213.683594 44.058594 216.03125 C 44.527344 218.378906 45.050781 220.714844 45.632812 223.035156 C 46.214844 225.359375 46.851562 227.664062 47.546875 229.953125 C 48.242188 232.246094 48.992188 234.515625 49.800781 236.769531 C 50.605469 239.023438 51.464844 241.257812 52.382812 243.46875 C 53.296875 245.679688 54.269531 247.867188 55.292969 250.03125 C 56.316406 252.195312 57.390625 254.332031 58.519531 256.441406 C 59.648438 258.550781 60.828125 260.632812 62.058594 262.6875 C 63.289062 264.742188 64.566406 266.761719 65.898438 268.753906 C 67.226562 270.742188 68.605469 272.699219 70.03125 274.621094 C 71.457031 276.542969 72.929688 278.429688 74.445312 280.28125 C 75.964844 282.128906 77.527344 283.941406 79.136719 285.714844 C 80.742188 287.488281 82.394531 289.222656 84.085938 290.914062 C 85.777344 292.605469 87.511719 294.257812 89.285156 295.863281 C 91.058594 297.472656 92.871094 299.035156 94.71875 300.554688 C 96.570312 302.070312 98.457031 303.542969 100.378906 304.96875 C 102.300781 306.394531 104.257812 307.773438 106.246094 309.101562 C 108.238281 310.433594 110.257812 311.710938 112.3125 312.941406 C 114.367188 314.171875 116.449219 315.351562 118.558594 316.480469 C 120.667969 317.609375 122.804688 318.683594 124.96875 319.707031 C 127.132812 320.730469 129.320312 321.703125 131.53125 322.617188 C 133.742188 323.535156 135.976562 324.394531 138.230469 325.199219 C 140.484375 326.007812 142.753906 326.757812 145.046875 327.453125 C 147.335938 328.148438 149.640625 328.785156 151.964844 329.367188 C 154.285156 329.949219 156.621094 330.472656 158.96875 330.941406 C 161.316406 331.40625 163.671875 331.816406 166.039062 332.167969 C 168.410156 332.519531 170.78125 332.8125 173.164062 333.046875 C 175.546875 333.28125 177.933594 333.457031 180.324219 333.574219 C 182.714844 333.691406 185.105469 333.75 187.5 333.75 C 189.894531 333.75 192.285156 333.691406 194.675781 333.574219 C 197.066406 333.457031 199.453125 333.28125 201.835938 333.046875 C 204.21875 332.8125 206.589844 332.519531 208.960938 332.167969 C 211.328125 331.816406 213.683594 331.40625 216.03125 330.941406 C 218.378906 330.472656 220.714844 329.949219 223.035156 329.367188 C 225.359375 328.785156 227.664062 328.148438 229.953125 327.453125 C 232.246094 326.757812 234.515625 326.007812 236.769531 325.199219 C 239.023438 324.394531 241.257812 323.535156 243.46875 322.617188 C 245.679688 321.703125 247.867188 320.730469 250.03125 319.707031 C 252.195312 318.683594 254.332031 317.609375 256.441406 316.480469 C 258.550781 315.351562 260.632812 314.171875 262.6875 312.941406 C 264.742188 311.710938 266.761719 310.433594 268.753906 309.101562 C 270.742188 307.773438 272.699219 306.394531 274.621094 304.96875 C 276.542969 303.542969 278.429688 302.070312 280.28125 300.550781 C 282.128906 299.035156 283.941406 297.472656 285.714844 295.863281 C 287.488281 294.257812 289.222656 292.605469 290.914062 290.914062 C 292.605469 289.222656 294.257812 287.488281 295.863281 285.714844 C 297.472656 283.941406 299.035156 282.128906 300.554688 280.28125 C 302.070312 278.429688 303.542969 276.542969 304.96875 274.621094 C 306.394531 272.699219 307.773438 270.742188 309.101562 268.753906 C 310.433594 266.761719 311.710938 264.742188 312.941406 262.6875 C 314.171875 260.632812 315.351562 258.550781 316.480469 256.441406 C 317.609375 254.332031 318.683594 252.195312 319.707031 250.03125 C 320.730469 247.867188 321.703125 245.679688 322.617188 243.46875 C 323.535156 241.257812 324.394531 239.023438 325.199219 236.769531 C 326.007812 234.515625 326.757812 232.246094 327.453125 229.953125 C 328.148438 227.664062 328.785156 225.359375 329.367188 223.035156 C 329.949219 220.714844 330.472656 218.378906 330.941406 216.03125 C 331.40625 213.683594 331.816406 211.328125 332.167969 208.960938 C 332.519531 206.589844 332.8125 204.21875 333.046875 201.835938 C 333.28125 199.453125 333.457031 197.066406 333.574219 194.675781 C 333.691406 192.285156 333.75 189.894531 333.75 187.5 C 333.75 185.105469 333.691406 182.714844 333.574219 180.324219 C 333.457031 177.933594 333.28125 175.546875 333.046875 173.164062 C 332.8125 170.78125 332.519531 168.410156 332.167969 166.039062 C 331.816406 163.671875 331.40625 161.316406 330.941406 158.96875 C 330.472656 156.621094 329.949219 154.285156 329.367188 151.964844 C 328.785156 149.640625 328.148438 147.335938 327.453125 145.046875 C 326.757812 142.753906 326.007812 140.484375 325.199219 138.230469 C 324.394531 135.976562 323.535156 133.742188 322.617188 131.53125 C 321.703125 129.320312 320.730469 127.132812 319.707031 124.96875 C 318.683594 122.804688 317.609375 120.667969 316.480469 118.558594 C 315.351562 116.449219 314.171875 114.367188 312.941406 112.3125 C 311.710938 110.257812 310.433594 108.238281 309.101562 106.246094 C 307.773438 104.257812 306.394531 102.300781 304.96875 100.378906 C 303.542969 98.457031 302.070312 96.570312 300.554688 94.71875 C 299.035156 92.871094 297.472656 91.058594 295.863281 89.285156 C 294.257812 87.511719 292.605469 85.777344 290.914062 84.085938 C 289.222656 82.394531 287.488281 80.742188 285.714844 79.136719 C 283.941406 77.527344 282.128906 75.964844 280.28125 74.445312 C 278.429688 72.929688 276.542969 71.457031 274.621094 70.03125 C 272.699219 68.605469 270.742188 67.226562 268.753906 65.898438 C 266.761719 64.566406 264.742188 63.289062 262.6875 62.058594 C 260.632812 60.828125 258.550781 59.648438 256.441406 58.519531 C 254.332031 57.390625 252.195312 56.316406 250.03125 55.292969 C 247.867188 54.269531 245.679688 53.296875 243.46875 52.382812 C 241.257812 51.464844 239.023438 50.605469 236.769531 49.800781 C 234.515625 48.992188 232.246094 48.242188 229.953125 47.546875 C 227.664062 46.851562 225.359375 46.214844 223.035156 45.632812 C 220.714844 45.050781 218.378906 44.527344 216.03125 44.058594 C 213.683594 43.59375 211.328125 43.183594 208.960938 42.832031 C 206.589844 42.480469 204.21875 42.1875 201.835938 41.953125 C 199.453125 41.71875 197.066406 41.542969 194.675781 41.425781 C 192.285156 41.308594 189.894531 41.25 187.5 41.25 Z M 187.5 0 " fill-opacity="1" fill-rule="nonzero"/><path fill="rgb(36.079407%, 88.238525%, 90.19928%)" d="M 187.5 0 C 190.570312 0 193.636719 0.0742188 196.699219 0.226562 C 199.765625 0.375 202.824219 0.601562 205.878906 0.902344 C 208.933594 1.203125 211.976562 1.578125 215.011719 2.03125 C 218.046875 2.480469 221.070312 3.003906 224.078125 3.601562 C 227.089844 4.203125 230.082031 4.875 233.058594 5.617188 C 236.035156 6.363281 238.992188 7.183594 241.929688 8.074219 C 244.863281 8.964844 247.777344 9.925781 250.667969 10.960938 C 253.554688 11.996094 256.417969 13.097656 259.253906 14.273438 C 262.089844 15.445312 264.890625 16.691406 267.667969 18.003906 C 270.441406 19.3125 273.179688 20.691406 275.886719 22.140625 C 278.59375 23.585938 281.261719 25.097656 283.894531 26.675781 C 286.527344 28.253906 289.117188 29.894531 291.667969 31.597656 C 294.222656 33.304688 296.730469 35.070312 299.195312 36.898438 C 301.660156 38.726562 304.078125 40.613281 306.449219 42.558594 C 308.820312 44.507812 311.144531 46.511719 313.417969 48.570312 C 315.691406 50.632812 317.914062 52.746094 320.082031 54.917969 C 322.253906 57.085938 324.367188 59.308594 326.429688 61.582031 C 328.488281 63.855469 330.492188 66.179688 332.4375 68.550781 C 334.386719 70.921875 336.273438 73.339844 338.101562 75.804688 C 339.929688 78.269531 341.695312 80.777344 343.402344 83.332031 C 345.105469 85.882812 346.746094 88.472656 348.324219 91.105469 C 349.902344 93.738281 351.414062 96.40625 352.859375 99.113281 C 354.308594 101.820312 355.6875 104.558594 356.996094 107.332031 C 358.308594 110.105469 359.554688 112.910156 360.726562 115.746094 C 361.902344 118.582031 363.003906 121.445312 364.039062 124.332031 C 365.074219 127.222656 366.035156 130.136719 366.925781 133.070312 C 367.816406 136.007812 368.636719 138.964844 369.378906 141.941406 C 370.125 144.917969 370.796875 147.910156 371.398438 150.921875 C 371.996094 153.929688 372.519531 156.953125 372.96875 159.988281 C 373.421875 163.023438 373.796875 166.066406 374.097656 169.121094 C 374.398438 172.175781 374.625 175.234375 374.773438 178.300781 C 374.925781 181.363281 375 184.429688 375 187.5 C 375 190.570312 374.925781 193.636719 374.773438 196.699219 C 374.625 199.765625 374.398438 202.824219 374.097656 205.878906 C 373.796875 208.933594 373.421875 211.976562 372.96875 215.011719 C 372.519531 218.046875 371.996094 221.070312 371.398438 224.078125 C 370.796875 227.089844 370.125 230.082031 369.378906 233.058594 C 368.636719 236.035156 367.816406 238.992188 366.925781 241.929688 C 366.035156 244.863281 365.074219 247.777344 364.039062 250.667969 C 363.003906 253.554688 361.902344 256.417969 360.726562 259.253906 C 359.554688 262.089844 358.308594 264.890625 356.996094 267.667969 C 355.6875 270.441406 354.308594 273.179688 352.859375 275.886719 C 351.414062 278.59375 349.902344 281.261719 348.324219 283.894531 C 346.746094 286.527344 345.105469 289.117188 343.402344 291.667969 C 341.695312 294.222656 339.929688 296.730469 338.101562 299.195312 C 336.273438 301.660156 334.386719 304.078125 332.4375 306.449219 C 330.492188 308.820312 328.488281 311.144531 326.429688 313.417969 C 324.367188 315.691406 322.253906 317.914062 320.082031 320.082031 C 317.914062 322.253906 315.691406 324.367188 313.417969 326.429688 C 311.144531 328.488281 308.820312 330.492188 306.449219 332.4375 C 304.078125 334.386719 301.660156 336.273438 299.195312 338.101562 C 296.730469 339.929688 294.222656 341.695312 291.667969 343.402344 C 289.117188 345.105469 286.527344 346.746094 283.894531 348.324219 C 281.261719 349.902344 278.59375 351.414062 275.886719 352.859375 C 273.179688 354.308594 270.441406 355.6875 267.667969 356.996094 C 264.890625 358.308594 262.089844 359.554688 259.253906 360.726562 C 256.417969 361.902344 253.554688 363.003906 250.667969 364.039062 C 247.777344 365.074219 244.863281 366.035156 241.929688 366.925781 C 238.992188 367.816406 236.035156 368.636719 233.058594 369.378906 C 230.082031 370.125 227.089844 370.796875 224.078125 371.398438 C 221.070312 371.996094 218.046875 372.519531 215.011719 372.96875 C 211.976562 373.421875 208.933594 373.796875 205.878906 374.097656 C 202.824219 374.398438 199.765625 374.625 196.699219 374.773438 C 193.636719 374.925781 190.570312 375 187.5 375 C 184.429688 375 181.363281 374.925781 178.300781 374.773438 C 175.234375 374.625 172.175781 374.398438 169.121094 374.097656 C 166.066406 373.796875 163.023438 373.421875 159.988281 372.96875 C 156.953125 372.519531 153.929688 371.996094 150.921875 371.398438 C 147.910156 370.796875 144.917969 370.125 141.941406 369.378906 C 138.964844 368.636719 136.007812 367.816406 133.070312 366.925781 C 130.136719 366.035156 127.222656 365.074219 124.332031 364.039062 C 121.445312 363.003906 118.582031 361.902344 115.746094 360.726562 C 112.910156 359.554688 110.105469 358.308594 107.332031 356.996094 C 104.558594 355.6875 101.820312 354.308594 99.113281 352.859375 C 96.40625 351.414062 93.738281 349.902344 91.105469 348.324219 C 88.472656 346.746094 85.882812 345.105469 83.332031 343.402344 C 80.777344 341.695312 78.269531 339.929688 75.804688 338.101562 C 73.339844 336.273438 70.921875 334.386719 68.550781 332.4375 C 66.179688 330.492188 63.855469 328.488281 61.582031 326.429688 C 59.308594 324.367188 57.085938 322.253906 54.917969 320.082031 C 52.746094 317.914062 50.632812 315.691406 48.570312 313.417969 C 46.511719 311.144531 44.507812 308.820312 42.558594 306.449219 C 40.613281 304.078125 38.726562 301.660156 36.898438 299.195312 C 35.070312 296.730469 33.304688 294.222656 31.597656 291.667969 C 29.894531 289.117188 28.253906 286.527344 26.675781 283.894531 C 25.097656 281.261719 23.585938 278.59375 22.140625 275.886719 C 20.691406 273.179688 19.3125 270.441406 18.003906 267.667969 C 16.691406 264.890625 15.445312 262.089844 14.273438 259.253906 C 13.097656 256.417969 11.996094 253.554688 10.960938 250.667969 C 9.925781 247.777344 8.964844 244.863281 8.074219 241.929688 C 7.183594 238.992188 6.363281 236.035156 5.621094 233.058594 C 4.875 230.082031 4.203125 227.089844 3.601562 224.078125 C 3.003906 221.070312 2.480469 218.046875 2.03125 215.011719 C 1.578125 211.976562 1.203125 208.933594 0.902344 205.878906 C 0.601562 202.824219 0.375 199.765625 0.226562 196.699219 C 0.0742188 193.636719 0 190.570312 0 187.5 C 0 184.429688 0.0742188 181.363281 0.226562 178.300781 C 0.375 175.234375 0.601562 172.175781 0.902344 169.121094 C 1.203125 166.066406 1.578125 163.023438 2.03125 159.988281 C 2.480469 156.953125 3.003906 153.929688 3.601562 150.921875 C 4.203125 147.910156 4.875 144.917969 5.621094 141.941406 C 6.363281 138.964844 7.183594 136.007812 8.074219 133.070312 C 8.964844 130.136719 9.925781 127.222656 10.960938 124.332031 C 11.996094 121.445312 13.097656 118.582031 14.273438 115.746094 C 15.445312 112.910156 16.691406 110.105469 18.003906 107.332031 C 19.3125 104.558594 20.691406 101.820312 22.140625 99.113281 C 23.585938 96.40625 25.097656 93.738281 26.675781 91.105469 C 28.253906 88.472656 29.894531 85.882812 31.597656 83.332031 C 33.304688 80.777344 35.070312 78.269531 36.898438 75.804688 C 38.726562 73.339844 40.613281 70.921875 42.558594 68.550781 C 44.507812 66.179688 46.511719 63.855469 48.570312 61.582031 C 50.632812 59.308594 52.746094 57.085938 54.917969 54.917969 C 57.085938 52.746094 59.308594 50.632812 61.582031 48.570312 C 63.855469 46.511719 66.179688 44.507812 68.550781 42.558594 C 70.921875 40.613281 73.339844 38.726562 75.804688 36.898438 C 78.269531 35.070312 80.777344 33.304688 83.332031 31.597656 C 85.882812 29.894531 88.472656 28.253906 91.105469 26.675781 C 93.738281 25.097656 96.40625 23.585938 99.113281 22.140625 C 101.820312 20.691406 104.558594 19.3125 107.332031 18.003906 C 110.105469 16.691406 112.910156 15.445312 115.746094 14.273438 C 118.582031 13.097656 121.445312 11.996094 124.332031 10.960938 C 127.222656 9.925781 130.136719 8.964844 133.070312 8.074219 C 136.007812 7.183594 138.964844 6.363281 141.941406 5.617188 C 144.917969 4.875 147.910156 4.203125 150.921875 3.601562 C 153.929688 3.003906 156.953125 2.480469 159.988281 2.03125 C 163.023438 1.578125 166.066406 1.203125 169.121094 0.902344 C 172.175781 0.601562 175.234375 0.375 178.300781 0.226562 C 181.363281 0.0742188 184.429688 0 187.5 0 L 187.5 41.25 C 185.105469 41.25 182.714844 41.308594 180.324219 41.425781 C 177.933594 41.542969 175.546875 41.71875 173.164062 41.953125 C 170.78125 42.1875 168.410156 42.480469 166.039062 42.832031 C 163.671875 43.183594 161.316406 43.59375 158.96875 44.058594 C 156.621094 44.527344 154.285156 45.050781 151.964844 45.632812 C 149.640625 46.214844 147.335938 46.851562 145.046875 47.546875 C 142.753906 48.242188 140.484375 48.992188 138.230469 49.800781 C 135.976562 50.605469 133.742188 51.464844 131.53125 52.382812 C 129.320312 53.296875 127.132812 54.269531 124.96875 55.292969 C 122.804688 56.316406 120.667969 57.390625 118.558594 58.519531 C 116.449219 59.648438 114.367188 60.828125 112.3125 62.058594 C 110.257812 63.289062 108.238281 64.566406 106.246094 65.898438 C 104.257812 67.226562 102.300781 68.605469 100.378906 70.03125 C 98.457031 71.457031 96.570312 72.929688 94.71875 74.445312 C 92.871094 75.964844 91.058594 77.527344 89.285156 79.136719 C 87.511719 80.742188 85.777344 82.394531 84.085938 84.085938 C 82.394531 85.777344 80.742188 87.511719 79.136719 89.285156 C 77.527344 91.058594 75.964844 92.871094 74.445312 94.71875 C 72.929688 96.570312 71.457031 98.457031 70.03125 100.378906 C 68.605469 102.300781 67.226562 104.257812 65.898438 106.246094 C 64.566406 108.238281 63.289062 110.257812 62.058594 112.3125 C 60.828125 114.367188 59.648438 116.449219 58.519531 118.558594 C 57.390625 120.667969 56.316406 122.804688 55.292969 124.96875 C 54.269531 127.132812 53.296875 129.320312 52.382812 131.53125 C 51.464844 133.742188 50.605469 135.976562 49.800781 138.230469 C 48.992188 140.484375 48.242188 142.753906 47.546875 145.046875 C 46.851562 147.335938 46.214844 149.640625 45.632812 151.964844 C 45.050781 154.285156 44.527344 156.621094 44.058594 158.96875 C 43.59375 161.316406 43.183594 163.671875 42.832031 166.039062 C 42.480469 168.410156 42.1875 170.78125 41.953125 173.164062 C 41.71875 175.546875 41.542969 177.933594 41.425781 180.324219 C 41.308594 182.714844 41.25 185.105469 41.25 187.5 C 41.25 189.894531 41.308594 192.285156 41.425781 194.675781 C 41.542969 197.066406 41.71875 199.453125 41.953125 201.835938 C 42.1875 204.21875 42.480469 206.589844 42.832031 208.960938 C 43.183594 211.328125 43.59375 213.683594 44.058594 216.03125 C 44.527344 218.378906 45.050781 220.714844 45.632812 223.035156 C 46.214844 225.359375 46.851562 227.664062 47.546875 229.953125 C 48.242188 232.246094 48.992188 234.515625 49.800781 236.769531 C 50.605469 239.023438 51.464844 241.257812 52.382812 243.46875 C 53.296875 245.679688 54.269531 247.867188 55.292969 250.03125 C 56.316406 252.195312 57.390625 254.332031 58.519531 256.441406 C 59.648438 258.550781 60.828125 260.632812 62.058594 262.6875 C 63.289062 264.742188 64.566406 266.761719 65.898438 268.753906 C 67.226562 270.742188 68.605469 272.699219 70.03125 274.621094 C 71.457031 276.542969 72.929688 278.429688 74.445312 280.28125 C 75.964844 282.128906 77.527344 283.941406 79.136719 285.714844 C 80.742188 287.488281 82.394531 289.222656 84.085938 290.914062 C 85.777344 292.605469 87.511719 294.257812 89.285156 295.863281 C 91.058594 297.472656 92.871094 299.035156 94.71875 300.554688 C 96.570312 302.070312 98.457031 303.542969 100.378906 304.96875 C 102.300781 306.394531 104.257812 307.773438 106.246094 309.101562 C 108.238281 310.433594 110.257812 311.710938 112.3125 312.941406 C 114.367188 314.171875 116.449219 315.351562 118.558594 316.480469 C 120.667969 317.609375 122.804688 318.683594 124.96875 319.707031 C 127.132812 320.730469 129.320312 321.703125 131.53125 322.617188 C 133.742188 323.535156 135.976562 324.394531 138.230469 325.199219 C 140.484375 326.007812 142.753906 326.757812 145.046875 327.453125 C 147.335938 328.148438 149.640625 328.785156 151.964844 329.367188 C 154.285156 329.949219 156.621094 330.472656 158.96875 330.941406 C 161.316406 331.40625 163.671875 331.816406 166.039062 332.167969 C 168.410156 332.519531 170.78125 332.8125 173.164062 333.046875 C 175.546875 333.28125 177.933594 333.457031 180.324219 333.574219 C 182.714844 333.691406 185.105469 333.75 187.5 333.75 C 189.894531 333.75 192.285156 333.691406 194.675781 333.574219 C 197.066406 333.457031 199.453125 333.28125 201.835938 333.046875 C 204.21875 332.8125 206.589844 332.519531 208.960938 332.167969 C 211.328125 331.816406 213.683594 331.40625 216.03125 330.941406 C 218.378906 330.472656 220.714844 329.949219 223.035156 329.367188 C 225.359375 328.785156 227.664062 328.148438 229.953125 327.453125 C 232.246094 326.757812 234.515625 326.007812 236.769531 325.199219 C 239.023438 324.394531 241.257812 323.535156 243.46875 322.617188 C 245.679688 321.703125 247.867188 320.730469 250.03125 319.707031 C 252.195312 318.683594 254.332031 317.609375 256.441406 316.480469 C 258.550781 315.351562 260.632812 314.171875 262.6875 312.941406 C 264.742188 311.710938 266.761719 310.433594 268.753906 309.101562 C 270.742188 307.773438 272.699219 306.394531 274.621094 304.96875 C 276.542969 303.542969 278.429688 302.070312 280.28125 300.550781 C 282.128906 299.035156 283.941406 297.472656 285.714844 295.863281 C 287.488281 294.257812 289.222656 292.605469 290.914062 290.914062 C 292.605469 289.222656 294.257812 287.488281 295.863281 285.714844 C 297.472656 283.941406 299.035156 282.128906 300.554688 280.28125 C 302.070312 278.429688 303.542969 276.542969 304.96875 274.621094 C 306.394531 272.699219 307.773438 270.742188 309.101562 268.753906 C 310.433594 266.761719 311.710938 264.742188 312.941406 262.6875 C 314.171875 260.632812 315.351562 258.550781 316.480469 256.441406 C 317.609375 254.332031 318.683594 252.195312 319.707031 250.03125 C 320.730469 247.867188 321.703125 245.679688 322.617188 243.46875 C 323.535156 241.257812 324.394531 239.023438 325.199219 236.769531 C 326.007812 234.515625 326.757812 232.246094 327.453125 229.953125 C 328.148438 227.664062 328.785156 225.359375 329.367188 223.035156 C 329.949219 220.714844 330.472656 218.378906 330.941406 216.03125 C 331.40625 213.683594 331.816406 211.328125 332.167969 208.960938 C 332.519531 206.589844 332.8125 204.21875 333.046875 201.835938 C 333.28125 199.453125 333.457031 197.066406 333.574219 194.675781 C 333.691406 192.285156 333.75 189.894531 333.75 187.5 C 333.75 185.105469 333.691406 182.714844 333.574219 180.324219 C 333.457031 177.933594 333.28125 175.546875 333.046875 173.164062 C 332.8125 170.78125 332.519531 168.410156 332.167969 166.039062 C 331.816406 163.671875 331.40625 161.316406 330.941406 158.96875 C 330.472656 156.621094 329.949219 154.285156 329.367188 151.964844 C 328.785156 149.640625 328.148438 147.335938 327.453125 145.046875 C 326.757812 142.753906 326.007812 140.484375 325.199219 138.230469 C 324.394531 135.976562 323.535156 133.742188 322.617188 131.53125 C 321.703125 129.320312 320.730469 127.132812 319.707031 124.96875 C 318.683594 122.804688 317.609375 120.667969 316.480469 118.558594 C 315.351562 116.449219 314.171875 114.367188 312.941406 112.3125 C 311.710938 110.257812 310.433594 108.238281 309.101562 106.246094 C 307.773438 104.257812 306.394531 102.300781 304.96875 100.378906 C 303.542969 98.457031 302.070312 96.570312 300.554688 94.71875 C 299.035156 92.871094 297.472656 91.058594 295.863281 89.285156 C 294.257812 87.511719 292.605469 85.777344 290.914062 84.085938 C 289.222656 82.394531 287.488281 80.742188 285.714844 79.136719 C 283.941406 77.527344 282.128906 75.964844 280.28125 74.445312 C 278.429688 72.929688 276.542969 71.457031 274.621094 70.03125 C 272.699219 68.605469 270.742188 67.226562 268.753906 65.898438 C 266.761719 64.566406 264.742188 63.289062 262.6875 62.058594 C 260.632812 60.828125 258.550781 59.648438 256.441406 58.519531 C 254.332031 57.390625 252.195312 56.316406 250.03125 55.292969 C 247.867188 54.269531 245.679688 53.296875 243.46875 52.382812 C 241.257812 51.464844 239.023438 50.605469 236.769531 49.800781 C 234.515625 48.992188 232.246094 48.242188 229.953125 47.546875 C 227.664062 46.851562 225.359375 46.214844 223.035156 45.632812 C 220.714844 45.050781 218.378906 44.527344 216.03125 44.058594 C 213.683594 43.59375 211.328125 43.183594 208.960938 42.832031 C 206.589844 42.480469 204.21875 42.1875 201.835938 41.953125 C 199.453125 41.71875 197.066406 41.542969 194.675781 41.425781 C 192.285156 41.308594 189.894531 41.25 187.5 41.25 Z M 187.5 0 " fill-opacity="1" fill-rule="nonzero"/><g clip-path="url(#id1)"><path fill="rgb(0%, 47.839355%, 79.998779%)" d="M 67.179688 246.433594 L 65.101562 246.433594 L 56.792969 223.644531 L 59.148438 223.644531 L 65.632812 241.875 L 65.9375 242.886719 C 65.9375 243.242188 66.089844 243.597656 66.191406 243.976562 C 66.246094 243.644531 66.324219 243.3125 66.417969 242.988281 C 66.417969 242.636719 66.621094 242.230469 66.773438 241.824219 L 73.511719 223.59375 L 75.789062 223.59375 Z M 79.945312 226 C 79.554688 225.992188 79.21875 225.859375 78.933594 225.59375 C 78.65625 225.285156 78.539062 224.921875 78.578125 224.507812 C 78.570312 224.105469 78.710938 223.765625 79.007812 223.496094 C 79.289062 223.214844 79.625 223.070312 80.019531 223.0625 C 80.214844 223.039062 80.410156 223.039062 80.605469 223.0625 C 80.777344 223.140625 80.941406 223.242188 81.085938 223.367188 C 81.214844 223.5 81.316406 223.652344 81.390625 223.824219 C 81.46875 224.007812 81.511719 224.203125 81.515625 224.40625 C 81.542969 224.601562 81.542969 224.792969 81.515625 224.988281 C 81.433594 225.160156 81.324219 225.3125 81.1875 225.445312 C 81.054688 225.59375 80.894531 225.695312 80.703125 225.746094 C 80.480469 225.914062 80.226562 225.996094 79.945312 226 Z M 78.933594 246.433594 L 78.933594 230.128906 L 81.109375 230.128906 L 81.109375 246.433594 Z M 85.316406 243.496094 C 85.960938 243.996094 86.667969 244.375 87.441406 244.636719 C 87.816406 244.789062 88.207031 244.886719 88.609375 244.9375 C 88.972656 244.976562 89.335938 244.976562 89.699219 244.9375 C 92.128906 244.9375 93.34375 244.027344 93.34375 242.203125 C 93.34375 241.828125 93.261719 241.476562 93.089844 241.140625 C 92.894531 240.820312 92.652344 240.542969 92.355469 240.304688 C 92.007812 240.0625 91.636719 239.859375 91.242188 239.699219 C 90.753906 239.445312 90.257812 239.21875 89.746094 239.015625 C 89.070312 238.757812 88.421875 238.445312 87.796875 238.078125 C 87.304688 237.789062 86.855469 237.445312 86.453125 237.039062 C 86.113281 236.675781 85.851562 236.265625 85.667969 235.800781 C 85.5 235.296875 85.414062 234.785156 85.417969 234.253906 C 85.402344 233.570312 85.5625 232.925781 85.898438 232.332031 C 86.21875 231.757812 86.640625 231.277344 87.164062 230.886719 C 87.722656 230.488281 88.332031 230.195312 88.988281 230 C 89.707031 229.796875 90.441406 229.695312 91.191406 229.695312 C 92.488281 229.664062 93.71875 229.925781 94.890625 230.480469 L 94.890625 232.632812 C 93.691406 231.839844 92.375 231.445312 90.9375 231.445312 C 90.464844 231.441406 90 231.507812 89.546875 231.648438 C 89.148438 231.757812 88.785156 231.933594 88.457031 232.179688 C 88.183594 232.421875 87.957031 232.699219 87.773438 233.015625 C 87.605469 233.359375 87.519531 233.71875 87.519531 234.101562 C 87.515625 234.472656 87.582031 234.824219 87.722656 235.164062 C 87.863281 235.476562 88.054688 235.746094 88.304688 235.976562 C 88.628906 236.257812 88.984375 236.492188 89.367188 236.683594 C 89.796875 236.9375 90.332031 237.140625 90.9375 237.394531 L 92.964844 238.332031 C 93.492188 238.605469 93.964844 238.953125 94.382812 239.367188 C 94.757812 239.710938 95.035156 240.113281 95.21875 240.585938 C 95.410156 241.089844 95.503906 241.613281 95.5 242.152344 C 95.511719 242.84375 95.359375 243.492188 95.042969 244.101562 C 94.730469 244.6875 94.308594 245.175781 93.777344 245.570312 C 93.203125 245.976562 92.578125 246.269531 91.902344 246.457031 C 91.121094 246.667969 90.328125 246.769531 89.519531 246.761719 C 88.039062 246.800781 86.652344 246.457031 85.367188 245.722656 Z M 110.140625 246.433594 L 110.140625 243.648438 C 109.917969 244.128906 109.628906 244.566406 109.277344 244.964844 C 108.925781 245.363281 108.527344 245.703125 108.078125 245.980469 C 107.625 246.261719 107.144531 246.472656 106.636719 246.617188 C 106.125 246.757812 105.601562 246.824219 105.074219 246.8125 C 101.199219 246.8125 99.246094 244.433594 99.246094 239.722656 L 99.246094 230.101562 L 101.273438 230.101562 L 101.273438 239.292969 C 101.148438 240.847656 101.496094 242.292969 102.3125 243.621094 C 102.691406 244.109375 103.164062 244.480469 103.730469 244.730469 C 104.296875 244.984375 104.886719 245.085938 105.503906 245.039062 C 106.175781 245.039062 106.816406 244.90625 107.429688 244.636719 C 108.011719 244.355469 108.511719 243.96875 108.921875 243.46875 C 109.355469 242.9375 109.683594 242.34375 109.910156 241.699219 C 110.144531 240.957031 110.253906 240.195312 110.242188 239.417969 L 110.242188 230.128906 L 112.265625 230.128906 L 112.265625 246.433594 Z M 126.859375 246.433594 L 126.859375 243.546875 C 126.371094 244.59375 125.644531 245.4375 124.679688 246.078125 C 123.722656 246.664062 122.683594 246.949219 121.5625 246.9375 C 120.835938 246.941406 120.128906 246.832031 119.4375 246.609375 C 118.835938 246.398438 118.304688 246.078125 117.839844 245.648438 C 117.382812 245.238281 117.035156 244.746094 116.800781 244.179688 C 116.558594 243.570312 116.441406 242.9375 116.445312 242.28125 C 116.414062 241.625 116.515625 240.988281 116.753906 240.375 C 116.996094 239.761719 117.347656 239.222656 117.816406 238.761719 C 119.015625 237.746094 120.402344 237.171875 121.96875 237.039062 L 127.035156 236.332031 C 127.035156 233.191406 125.820312 231.621094 123.386719 231.621094 C 122.410156 231.636719 121.464844 231.824219 120.558594 232.183594 C 119.652344 232.546875 118.835938 233.058594 118.117188 233.722656 L 118.117188 231.496094 C 118.476562 231.234375 118.855469 231.015625 119.257812 230.835938 C 119.699219 230.625 120.15625 230.457031 120.625 230.332031 C 121.109375 230.183594 121.597656 230.066406 122.09375 229.976562 C 122.585938 229.9375 123.074219 229.9375 123.566406 229.976562 C 124.332031 229.921875 125.074219 230.027344 125.792969 230.289062 C 126.511719 230.554688 127.148438 230.957031 127.695312 231.496094 C 128.207031 232.140625 128.582031 232.855469 128.824219 233.640625 C 129.0625 234.429688 129.152344 235.230469 129.085938 236.050781 L 129.085938 246.6875 Z M 122.652344 238.484375 C 122.019531 238.574219 121.394531 238.707031 120.777344 238.886719 C 120.3125 239.027344 119.882812 239.238281 119.488281 239.519531 C 119.15625 239.796875 118.910156 240.132812 118.75 240.535156 C 118.566406 241.003906 118.480469 241.496094 118.5 242.003906 C 118.496094 242.421875 118.570312 242.828125 118.726562 243.21875 C 118.878906 243.59375 119.105469 243.914062 119.410156 244.179688 C 119.714844 244.472656 120.070312 244.683594 120.472656 244.8125 C 120.933594 244.972656 121.40625 245.050781 121.894531 245.039062 C 122.59375 245.046875 123.257812 244.902344 123.894531 244.609375 C 124.492188 244.332031 125.015625 243.953125 125.464844 243.46875 C 125.921875 242.953125 126.269531 242.371094 126.503906 241.722656 C 126.742188 241 126.863281 240.257812 126.859375 239.496094 L 126.859375 237.902344 Z M 133.796875 246.433594 L 133.796875 222.277344 L 135.824219 222.277344 L 135.824219 246.433594 Z M 149.503906 243.089844 C 149.90625 243.378906 150.328125 243.632812 150.769531 243.851562 C 151.230469 244.078125 151.703125 244.269531 152.1875 244.433594 C 152.695312 244.585938 153.203125 244.6875 153.65625 244.785156 C 154.121094 244.824219 154.585938 244.824219 155.050781 244.785156 C 156.460938 244.886719 157.761719 244.558594 158.953125 243.800781 C 159.382812 243.449219 159.710938 243.015625 159.933594 242.507812 C 160.15625 242 160.25 241.46875 160.21875 240.914062 C 160.238281 240.363281 160.144531 239.832031 159.941406 239.316406 C 159.699219 238.835938 159.378906 238.414062 158.976562 238.050781 C 158.488281 237.601562 157.957031 237.214844 157.382812 236.886719 L 155.101562 235.570312 L 152.570312 234.050781 C 151.949219 233.632812 151.382812 233.152344 150.871094 232.609375 C 150.449219 232.128906 150.128906 231.589844 149.910156 230.988281 C 149.683594 230.359375 149.574219 229.707031 149.578125 229.039062 C 149.558594 228.140625 149.761719 227.296875 150.1875 226.507812 C 150.574219 225.757812 151.105469 225.132812 151.785156 224.632812 C 152.492188 224.101562 153.269531 223.703125 154.113281 223.445312 C 155.105469 223.203125 156.109375 223.117188 157.128906 223.191406 C 158.675781 223.148438 160.179688 223.394531 161.636719 223.925781 L 161.636719 226.277344 C 160.15625 225.457031 158.570312 225.066406 156.875 225.113281 C 156.230469 225.105469 155.597656 225.191406 154.976562 225.367188 C 154.402344 225.511719 153.871094 225.746094 153.378906 226.078125 C 152.945312 226.402344 152.589844 226.796875 152.316406 227.265625 C 152.050781 227.78125 151.921875 228.332031 151.933594 228.914062 C 151.917969 229.445312 152.003906 229.957031 152.1875 230.457031 C 152.386719 230.925781 152.671875 231.328125 153.050781 231.671875 C 153.511719 232.113281 154.015625 232.492188 154.570312 232.8125 L 156.847656 234.078125 C 157.722656 234.527344 158.566406 235.027344 159.382812 235.570312 C 160.039062 236 160.632812 236.507812 161.15625 237.089844 C 161.621094 237.578125 161.976562 238.132812 162.21875 238.761719 C 162.460938 239.390625 162.578125 240.039062 162.574219 240.710938 C 162.578125 241.597656 162.394531 242.441406 162.015625 243.242188 C 161.648438 243.996094 161.125 244.621094 160.445312 245.117188 C 159.726562 245.648438 158.933594 246.03125 158.066406 246.253906 C 157.070312 246.515625 156.054688 246.644531 155.027344 246.636719 C 154.59375 246.667969 154.164062 246.667969 153.734375 246.636719 C 153.222656 246.589844 152.714844 246.503906 152.214844 246.382812 C 151.726562 246.285156 151.242188 246.160156 150.769531 246.003906 C 150.375 245.867188 149.996094 245.699219 149.628906 245.496094 Z M 172.808594 246.230469 C 172.082031 246.59375 171.3125 246.769531 170.503906 246.761719 C 167.867188 246.761719 166.550781 245.242188 166.550781 242.203125 L 166.550781 231.898438 L 163.6875 231.898438 L 163.6875 230.128906 L 166.550781 230.128906 L 166.550781 226.027344 L 168.578125 225.34375 L 168.578125 230.152344 L 172.78125 230.152344 L 172.78125 231.925781 L 168.578125 231.925781 L 168.578125 241.902344 C 168.484375 242.800781 168.660156 243.644531 169.109375 244.433594 C 169.335938 244.695312 169.609375 244.894531 169.933594 245.023438 C 170.253906 245.152344 170.585938 245.199219 170.933594 245.167969 C 171.609375 245.160156 172.226562 244.964844 172.78125 244.585938 Z M 186.816406 246.433594 L 186.816406 243.648438 C 186.59375 244.128906 186.308594 244.570312 185.957031 244.96875 C 185.605469 245.367188 185.207031 245.707031 184.757812 245.988281 C 184.304688 246.265625 183.824219 246.476562 183.3125 246.617188 C 182.800781 246.757812 182.28125 246.824219 181.75 246.8125 C 177.875 246.8125 175.921875 244.433594 175.921875 239.722656 L 175.921875 230.101562 L 177.949219 230.101562 L 177.949219 239.292969 C 177.839844 240.847656 178.183594 242.289062 178.988281 243.621094 C 179.371094 244.105469 179.84375 244.476562 180.410156 244.726562 C 180.972656 244.976562 181.5625 245.082031 182.179688 245.039062 C 182.851562 245.039062 183.492188 244.90625 184.105469 244.636719 C 184.695312 244.363281 185.191406 243.972656 185.601562 243.46875 C 186.050781 242.945312 186.378906 242.355469 186.589844 241.699219 C 186.832031 240.957031 186.949219 240.199219 186.941406 239.417969 L 186.941406 230.128906 L 188.96875 230.128906 L 188.96875 246.433594 Z M 205.5625 246.433594 L 205.5625 243.546875 C 205.019531 244.570312 204.242188 245.363281 203.230469 245.925781 C 202.171875 246.53125 201.03125 246.816406 199.8125 246.789062 C 198.847656 246.796875 197.925781 246.605469 197.050781 246.203125 C 196.199219 245.839844 195.480469 245.300781 194.898438 244.585938 C 194.273438 243.832031 193.816406 242.988281 193.527344 242.050781 C 193.179688 240.941406 193.011719 239.800781 193.023438 238.632812 C 193.007812 237.40625 193.183594 236.210938 193.554688 235.039062 C 193.875 233.945312 194.398438 232.957031 195.125 232.078125 C 195.773438 231.296875 196.558594 230.6875 197.480469 230.253906 C 198.457031 229.816406 199.476562 229.605469 200.546875 229.621094 C 201.058594 229.585938 201.566406 229.625 202.066406 229.738281 C 202.566406 229.851562 203.042969 230.03125 203.492188 230.28125 C 203.941406 230.53125 204.347656 230.835938 204.707031 231.203125 C 205.066406 231.570312 205.371094 231.980469 205.613281 232.429688 L 205.613281 222.304688 L 207.636719 222.304688 L 207.636719 246.457031 Z M 205.5625 236.558594 C 205.570312 235.890625 205.46875 235.242188 205.257812 234.609375 C 205.015625 234.007812 204.671875 233.476562 204.21875 233.015625 C 203.769531 232.542969 203.246094 232.179688 202.648438 231.925781 C 202.007812 231.652344 201.339844 231.519531 200.648438 231.519531 C 199.871094 231.519531 199.125 231.679688 198.417969 232 C 197.726562 232.328125 197.144531 232.792969 196.667969 233.394531 C 196.152344 234.046875 195.769531 234.773438 195.53125 235.570312 C 195.246094 236.519531 195.105469 237.492188 195.097656 238.484375 C 195.085938 239.421875 195.210938 240.34375 195.480469 241.242188 C 195.6875 242.003906 196.035156 242.695312 196.519531 243.320312 C 196.964844 243.878906 197.515625 244.316406 198.164062 244.621094 C 198.8125 244.929688 199.496094 245.078125 200.214844 245.066406 C 201 245.078125 201.753906 244.925781 202.46875 244.609375 C 203.121094 244.316406 203.6875 243.902344 204.164062 243.367188 C 204.640625 242.835938 204.988281 242.226562 205.207031 241.546875 C 205.464844 240.824219 205.59375 240.082031 205.585938 239.316406 Z M 213.84375 226 C 213.453125 226 213.113281 225.867188 212.832031 225.59375 C 212.523438 225.308594 212.378906 224.953125 212.398438 224.53125 C 212.378906 224.125 212.523438 223.789062 212.832031 223.519531 C 213.105469 223.226562 213.441406 223.085938 213.84375 223.089844 C 214.03125 223.0625 214.214844 223.0625 214.402344 223.089844 C 214.585938 223.15625 214.746094 223.257812 214.882812 223.394531 C 215.023438 223.523438 215.132812 223.675781 215.210938 223.847656 C 215.351562 224.238281 215.351562 224.625 215.210938 225.011719 C 215.140625 225.191406 215.03125 225.34375 214.882812 225.46875 C 214.761719 225.617188 214.609375 225.71875 214.425781 225.773438 C 214.25 225.890625 214.054688 225.964844 213.84375 226 Z M 212.832031 246.433594 L 212.832031 230.128906 L 214.855469 230.128906 L 214.855469 246.433594 Z M 226.8125 246.835938 C 225.683594 246.855469 224.59375 246.652344 223.546875 246.230469 C 222.574219 245.84375 221.730469 245.269531 221.011719 244.507812 C 220.324219 243.765625 219.800781 242.921875 219.441406 241.976562 C 219.074219 240.859375 218.894531 239.710938 218.910156 238.535156 C 218.886719 237.28125 219.078125 236.066406 219.492188 234.886719 C 219.851562 233.839844 220.417969 232.921875 221.191406 232.128906 C 221.902344 231.359375 222.746094 230.785156 223.722656 230.40625 C 224.800781 229.992188 225.914062 229.796875 227.066406 229.824219 C 228.171875 229.800781 229.234375 229.992188 230.257812 230.40625 C 231.238281 230.757812 232.082031 231.316406 232.792969 232.078125 C 233.4375 232.839844 233.902344 233.699219 234.183594 234.660156 C 234.910156 237.015625 234.910156 239.367188 234.183594 241.722656 C 233.828125 242.714844 233.304688 243.609375 232.613281 244.40625 C 231.90625 245.1875 231.0625 245.769531 230.082031 246.152344 C 229.039062 246.613281 227.953125 246.839844 226.8125 246.835938 Z M 226.964844 231.519531 C 226.085938 231.503906 225.242188 231.664062 224.433594 232 C 223.710938 232.304688 223.097656 232.753906 222.582031 233.34375 C 222.042969 233.980469 221.648438 234.699219 221.394531 235.496094 C 221.105469 236.445312 220.96875 237.414062 220.988281 238.40625 C 220.96875 239.347656 221.105469 240.269531 221.394531 241.167969 C 221.652344 241.945312 222.050781 242.644531 222.582031 243.269531 C 223.082031 243.863281 223.691406 244.308594 224.40625 244.609375 C 225.21875 244.949219 226.0625 245.109375 226.941406 245.089844 C 227.820312 245.128906 228.664062 244.976562 229.472656 244.636719 C 230.175781 244.324219 230.773438 243.875 231.273438 243.292969 C 231.792969 242.675781 232.15625 241.976562 232.359375 241.191406 C 232.628906 240.25 232.753906 239.285156 232.742188 238.304688 C 232.804688 237.402344 232.710938 236.511719 232.460938 235.640625 C 232.207031 234.769531 231.8125 233.972656 231.273438 233.242188 C 230.734375 232.625 230.085938 232.164062 229.328125 231.859375 C 228.566406 231.554688 227.78125 231.441406 226.964844 231.519531 Z M 263.492188 245.570312 C 261.570312 246.441406 259.550781 246.855469 257.4375 246.8125 C 255.921875 246.832031 254.460938 246.554688 253.054688 245.976562 C 251.761719 245.425781 250.640625 244.632812 249.6875 243.597656 C 248.714844 242.550781 248 241.351562 247.535156 240 C 247.011719 238.527344 246.757812 237.007812 246.773438 235.445312 C 246.761719 233.792969 247.03125 232.191406 247.585938 230.632812 C 248.089844 229.179688 248.855469 227.878906 249.890625 226.734375 C 250.917969 225.636719 252.128906 224.792969 253.511719 224.203125 C 255.03125 223.546875 256.621094 223.234375 258.273438 223.265625 C 260.066406 223.242188 261.808594 223.539062 263.492188 224.152344 L 263.492188 226.429688 C 261.839844 225.613281 260.09375 225.210938 258.25 225.214844 C 256.878906 225.191406 255.5625 225.445312 254.296875 225.976562 C 253.171875 226.464844 252.210938 227.175781 251.410156 228.101562 C 250.59375 229.054688 249.992188 230.125 249.613281 231.316406 C 249.183594 232.632812 248.972656 233.984375 248.976562 235.367188 C 248.976562 236.636719 249.164062 237.878906 249.535156 239.089844 C 249.890625 240.207031 250.441406 241.21875 251.183594 242.128906 C 251.933594 243.03125 252.84375 243.722656 253.917969 244.203125 C 255.117188 244.742188 256.375 244.996094 257.691406 244.964844 C 259.746094 244.992188 261.679688 244.519531 263.492188 243.546875 Z M 274.636719 246.835938 C 273.515625 246.855469 272.4375 246.652344 271.394531 246.230469 C 270.417969 245.851562 269.574219 245.277344 268.863281 244.507812 C 268.167969 243.769531 267.644531 242.925781 267.292969 241.976562 C 266.921875 240.859375 266.746094 239.710938 266.761719 238.535156 C 266.738281 237.285156 266.925781 236.070312 267.316406 234.886719 C 267.691406 233.84375 268.265625 232.921875 269.039062 232.128906 C 269.75 231.355469 270.59375 230.78125 271.574219 230.40625 C 272.648438 229.992188 273.765625 229.796875 274.917969 229.824219 C 276.011719 229.800781 277.066406 229.992188 278.082031 230.40625 C 279.066406 230.753906 279.910156 231.308594 280.617188 232.078125 C 281.308594 232.867188 281.816406 233.761719 282.136719 234.761719 C 282.511719 235.921875 282.6875 237.113281 282.667969 238.332031 C 282.683594 239.527344 282.5 240.691406 282.109375 241.824219 C 281.773438 242.828125 281.25 243.722656 280.539062 244.507812 C 279.832031 245.289062 278.988281 245.871094 278.007812 246.253906 C 276.925781 246.691406 275.804688 246.886719 274.636719 246.835938 Z M 274.816406 231.519531 C 273.9375 231.5 273.09375 231.660156 272.28125 232 C 271.5625 232.304688 270.945312 232.753906 270.433594 233.34375 C 269.882812 233.976562 269.488281 234.695312 269.242188 235.496094 C 268.953125 236.445312 268.820312 237.414062 268.835938 238.40625 C 268.820312 239.347656 268.957031 240.269531 269.242188 241.167969 C 269.492188 241.941406 269.882812 242.644531 270.40625 243.269531 C 270.917969 243.863281 271.535156 244.308594 272.257812 244.609375 C 273.035156 244.921875 273.839844 245.078125 274.675781 245.078125 C 275.511719 245.078125 276.320312 244.921875 277.09375 244.609375 C 277.796875 244.308594 278.386719 243.859375 278.867188 243.269531 C 279.398438 242.652344 279.769531 241.949219 279.984375 241.167969 C 280.25 240.222656 280.375 239.261719 280.363281 238.28125 C 280.429688 237.375 280.335938 236.488281 280.082031 235.617188 C 279.828125 234.746094 279.433594 233.945312 278.894531 233.214844 C 278.378906 232.636719 277.765625 232.199219 277.050781 231.902344 C 276.332031 231.601562 275.589844 231.476562 274.816406 231.519531 Z M 298.121094 246.457031 L 298.121094 243.546875 C 297.589844 244.570312 296.820312 245.363281 295.816406 245.925781 C 294.855469 246.445312 293.832031 246.730469 292.742188 246.78125 C 291.65625 246.828125 290.609375 246.636719 289.609375 246.203125 C 288.761719 245.835938 288.046875 245.296875 287.457031 244.585938 C 286.84375 243.824219 286.386719 242.980469 286.085938 242.050781 C 285.746094 240.9375 285.585938 239.800781 285.605469 238.632812 C 285.589844 237.40625 285.769531 236.210938 286.136719 235.039062 C 286.460938 234.003906 286.96875 233.066406 287.660156 232.230469 C 288.300781 231.433594 289.085938 230.828125 290.015625 230.40625 C 290.988281 229.964844 292.007812 229.753906 293.078125 229.773438 C 293.59375 229.734375 294.101562 229.773438 294.601562 229.882812 C 295.105469 229.996094 295.582031 230.175781 296.03125 230.425781 C 296.480469 230.671875 296.886719 230.980469 297.246094 231.351562 C 297.605469 231.71875 297.90625 232.128906 298.144531 232.582031 L 298.144531 222.277344 L 300.171875 222.277344 L 300.171875 246.433594 Z M 298.121094 236.582031 C 298.125 235.890625 297.996094 235.226562 297.738281 234.582031 C 297.511719 233.984375 297.171875 233.453125 296.726562 232.988281 C 296.273438 232.523438 295.75 232.164062 295.15625 231.898438 C 294.507812 231.628906 293.832031 231.496094 293.128906 231.496094 C 292.351562 231.496094 291.609375 231.65625 290.902344 231.976562 C 290.222656 232.3125 289.648438 232.777344 289.179688 233.367188 C 288.648438 234.015625 288.269531 234.742188 288.039062 235.546875 C 287.75 236.503906 287.613281 237.484375 287.632812 238.484375 C 287.625 239.417969 287.742188 240.339844 287.988281 241.242188 C 288.203125 242.003906 288.558594 242.699219 289.050781 243.320312 C 289.484375 243.871094 290.015625 244.300781 290.648438 244.609375 C 291.3125 244.921875 292.015625 245.074219 292.75 245.066406 C 293.527344 245.078125 294.269531 244.925781 294.980469 244.609375 C 295.625 244.316406 296.1875 243.910156 296.675781 243.394531 C 297.144531 242.84375 297.5 242.230469 297.738281 241.546875 C 298 240.824219 298.125 240.082031 298.121094 239.316406 Z M 306.378906 238.660156 C 306.371094 239.574219 306.507812 240.46875 306.785156 241.34375 C 306.996094 242.097656 307.359375 242.773438 307.871094 243.371094 C 308.351562 243.933594 308.933594 244.355469 309.621094 244.636719 C 310.355469 244.953125 311.125 245.105469 311.925781 245.089844 C 313.890625 245.058594 315.628906 244.417969 317.144531 243.167969 L 317.144531 245.191406 C 315.433594 246.367188 313.542969 246.921875 311.46875 246.863281 C 310.441406 246.875 309.453125 246.679688 308.503906 246.28125 C 307.605469 245.914062 306.847656 245.359375 306.226562 244.609375 C 305.550781 243.816406 305.0625 242.921875 304.757812 241.925781 C 304.402344 240.746094 304.234375 239.539062 304.25 238.304688 C 304.246094 237.144531 304.433594 236.011719 304.808594 234.914062 C 305.15625 233.921875 305.671875 233.027344 306.351562 232.230469 C 307.011719 231.460938 307.796875 230.863281 308.707031 230.429688 C 309.648438 229.992188 310.636719 229.78125 311.671875 229.796875 C 312.636719 229.78125 313.566406 229.957031 314.457031 230.332031 C 315.257812 230.695312 315.933594 231.21875 316.484375 231.898438 C 317.074219 232.65625 317.488281 233.503906 317.726562 234.433594 C 318.035156 235.507812 318.179688 236.605469 318.15625 237.722656 L 318.15625 238.734375 Z M 316.054688 236.886719 C 316.121094 235.425781 315.714844 234.109375 314.839844 232.9375 C 314.445312 232.460938 313.964844 232.097656 313.398438 231.847656 C 312.832031 231.597656 312.238281 231.488281 311.621094 231.519531 C 310.953125 231.515625 310.3125 231.640625 309.695312 231.898438 C 309.109375 232.148438 308.59375 232.503906 308.152344 232.964844 C 307.679688 233.453125 307.308594 234.011719 307.035156 234.632812 C 306.71875 235.355469 306.515625 236.105469 306.429688 236.886719 Z M 208.269531 127.765625 L 208.269531 198.984375 L 146.035156 189.746094 L 208.269531 210.683594 L 229.042969 202.074219 L 229.042969 136.398438 Z M 186.488281 139.917969 L 167.414062 158.703125 L 155.9375 150.097656 L 151.226562 151.664062 L 162.878906 163.210938 L 151.226562 174.757812 L 155.9375 176.324219 L 167.414062 167.71875 L 186.488281 186.605469 L 197.886719 181.742188 L 197.886719 144.804688 Z M 186.488281 153.335938 L 186.488281 173.085938 L 173.367188 163.210938 Z M 186.488281 153.335938 " fill-opacity="1" fill-rule="nonzero"/></g></svg>